<?xml version="1.0" encoding="utf-8"?>
<!-- Generator: Adobe Illustrator 16.0.0, SVG Export Plug-In . SVG Version: 6.00 Build 0)  -->
<!DOCTYPE svg PUBLIC "-//W3C//DTD SVG 1.1//EN" "http://www.w3.org/Graphics/SVG/1.1/DTD/svg11.dtd">
<svg version="1.1" id="Layer_1" xmlns="http://www.w3.org/2000/svg" xmlns:xlink="http://www.w3.org/1999/xlink" x="0px" y="0px"
	 width="119.083px" height="134.312px" viewBox="0 0 119.083 134.312" enable-background="new 0 0 119.083 134.312"
	 xml:space="preserve">
<polyline fill="#FFFFFF" points="88.513,49.37 117.559,36.847 117.559,95.044 "/>
<polygon fill="#FFFFFF" points="31.697,49.136 3.061,96.851 49.935,56.873 "/>
<polygon fill="#FFFFFF" points="60.041,1.425 45.347,28.799 73.528,56.874 88.514,47.967 "/>
<path fill="#FFFFFF" d="M72.663,58.56l40.943,38.705L60,129.767L6.611,97.402l42.925-37.346l9.761,4.619l0.076-0.078l0.077,0.078
	L72.663,58.56z M32.526,52.006l13.068,6.183L9.878,89.262L32.526,52.006z M76.564,56.753l10.825-5.009l21.663,35.721L76.564,56.753z
	 M4,38.651l0.13-0.082l24.766,11.72L4,91.243V38.651z M91.038,50.057l24.827-11.489L116,38.651v52.566L91.038,50.057z
	 M34.423,48.887l10.222-16.813l25.124,23.75l-10.364,4.735L34.423,48.887z M46.766,28.584L60.071,6.698l25.434,41.937l-11.818,5.399
	L46.766,28.584z M64.565,6.407l47.792,29.962L89.163,46.964L64.565,6.407z M7.638,36.372L55.661,6.265L30.784,47.186L7.638,36.372z
	 M60.076,0l-0.001,0.002L60.074,0l-0.038,0.022L60,0l-2.657,1.666L56.665,2.08l0.005,0.009L0,36.617v61.196l0.005,0.003L0,97.823
	l0.023,0.014l-0.019,0.016l3.568,2.193L60,134.312l59-36.499v-61.16l0.083-0.037L63.438,2.157L60.076,0z"/>
</svg>
