<?xml version="1.0" encoding="utf-8"?>
<!-- Generated by IcoMoon.io -->
<!DOCTYPE svg PUBLIC "-//W3C//DTD SVG 1.1//EN" "http://www.w3.org/Graphics/SVG/1.1/DTD/svg11.dtd">
<svg version="1.1" xmlns="http://www.w3.org/2000/svg" xmlns:xlink="http://www.w3.org/1999/xlink" width="376" height="100" viewBox="0 0 376 100">
<path fill="#00000b" d="M44.347 71.412h3.694v13.693h8.182v3.106h-11.876z"></path>
<path fill="#00000b" d="M63.027 86.024c2.283 0 2.962-1.954 2.962-3.882 0-1.952-0.678-3.905-2.962-3.905-2.26 0-2.941 1.952-2.941 3.905-0.002 1.928 0.68 3.882 2.941 3.882zM63.027 75.719c3.832 0 6.302 2.541 6.302 6.424 0 3.856-2.469 6.396-6.302 6.396-3.809 0-6.282-2.541-6.282-6.396 0-3.884 2.473-6.424 6.282-6.424z"></path>
<path fill="#00000b" d="M78.482 80.328c-0.214-1.362-1.084-2.093-2.469-2.093-2.142 0-2.849 2.163-2.849 3.953 0 1.742 0.678 3.837 2.781 3.837 1.547 0 2.441-0.988 2.655-2.469h3.223c-0.423 3.219-2.657 4.983-5.861 4.983-3.666 0-6.136-2.585-6.136-6.233 0-3.786 2.257-6.586 6.21-6.586 2.869 0 5.502 1.505 5.718 4.609h-3.271z"></path>
<path fill="#00000b" d="M90.454 82.254c-0.564 0.498-1.74 0.517-2.77 0.707-1.041 0.212-1.982 0.565-1.982 1.79 0 1.248 0.966 1.548 2.048 1.548 2.611 0 2.706-2.067 2.706-2.794v-1.251zM82.738 79.785c0.188-3.13 2.99-4.070 5.72-4.070 2.418 0 5.34 0.543 5.34 3.463v6.328c0 1.103 0.115 2.208 0.425 2.704h-3.392c-0.114-0.374-0.207-0.776-0.235-1.178-1.058 1.107-2.606 1.507-4.093 1.507-2.307 0-4.14-1.154-4.14-3.643 0-2.753 2.067-3.414 4.14-3.698 2.046-0.301 3.95-0.235 3.95-1.597 0-1.434-0.987-1.646-2.163-1.646-1.27 0-2.097 0.517-2.21 1.832h-3.345z"></path>
<path fill="#00000b" d="M95.653 71.412h3.343v16.799h-3.343v-16.799z"></path>
<path fill="#00000b" d="M112.309 88.208h-3.717l-4.158-12.163h3.502l2.563 8.305h0.048l2.565-8.305h3.318z"></path>
<path fill="#00000b" d="M122.426 86.024c2.283 0 2.962-1.954 2.962-3.882 0-1.952-0.678-3.905-2.962-3.905-2.253 0-2.941 1.952-2.941 3.905-0.002 1.928 0.688 3.882 2.941 3.882zM122.426 75.719c3.832 0 6.306 2.541 6.306 6.424 0 3.856-2.474 6.396-6.306 6.396-3.809 0-6.282-2.541-6.282-6.396 0-3.884 2.471-6.424 6.282-6.424z"></path>
<path fill="#00000b" d="M129.696 76.050h3.34v12.167h-3.34v-12.167zM133.037 74.165h-3.34v-2.753h3.34v2.753z"></path>
<path fill="#00000b" d="M142.656 80.328c-0.211-1.362-1.076-2.093-2.469-2.093-2.138 0-2.845 2.163-2.845 3.953 0 1.742 0.684 3.837 2.777 3.837 1.552 0 2.444-0.988 2.657-2.469h3.223c-0.423 3.219-2.661 4.983-5.861 4.983-3.666 0-6.136-2.585-6.136-6.233 0-3.786 2.26-6.586 6.21-6.586 2.867 0 5.507 1.505 5.72 4.609h-3.275z"></path>
<path fill="#00000b" d="M155.246 80.825c-0.31-1.694-1.033-2.591-2.659-2.591-2.114 0-2.726 1.646-2.778 2.591h5.437zM149.807 82.94c0.105 2.118 1.137 3.084 2.992 3.084 1.343 0 2.423-0.828 2.636-1.576h2.941c-0.941 2.867-2.941 4.087-5.695 4.087-3.835 0-6.212-2.631-6.212-6.394 0-3.647 2.52-6.424 6.212-6.424 4.14 0 6.139 3.482 5.904 7.223h-8.779z"></path>
<path fill="#00000b" d="M162.326 84.258c0.028 1.462 1.25 2.046 2.565 2.046 0.966 0 2.191-0.374 2.191-1.554 0-1.010-1.394-1.362-3.79-1.883-1.932-0.418-3.857-1.103-3.857-3.245 0-3.102 2.678-3.907 5.292-3.907 2.661 0 5.111 0.896 5.361 3.884h-3.173c-0.096-1.293-1.086-1.646-2.283-1.646-0.754 0-1.857 0.139-1.857 1.128 0 1.203 1.883 1.365 3.784 1.813 1.957 0.447 3.862 1.152 3.862 3.406 0 3.2-2.775 4.236-5.558 4.236-2.822 0-5.571-1.056-5.712-4.279h3.174z"></path>
<path fill="#00000b" d="M171.219 84.582h3.695v3.628h-3.695v-3.628z"></path>
<path fill="#00000b" d="M193.124 86.304c-1.297 1.668-2.992 2.308-4.621 2.308-5.197 0-8.252-3.882-8.252-8.734 0-4.981 3.055-8.869 8.252-8.869 3.441 0 6.693 2.12 7.086 5.929h-3.525c-0.428-1.857-1.815-2.819-3.561-2.819-3.309 0-4.559 2.819-4.559 5.758 0 2.807 1.25 5.626 4.559 5.626 2.403 0 3.798-1.294 4.003-3.623h-3.717v-2.755h7.061v9.085h-2.349l-0.377-1.907z"></path>
<path fill="#00000b" d="M197.762 71.412h3.34v16.799h-3.34v-16.799z"></path>
<path fill="#00000b" d="M208.341 86.024c2.278 0 2.958-1.954 2.958-3.882 0-1.952-0.68-3.905-2.958-3.905-2.256 0-2.937 1.952-2.937 3.905 0.002 1.928 0.681 3.882 2.937 3.882zM208.341 75.719c3.828 0 6.302 2.541 6.302 6.424 0 3.856-2.474 6.396-6.302 6.396-3.806 0-6.274-2.541-6.274-6.396 0-3.884 2.469-6.424 6.274-6.424z"></path>
<path fill="#00000b" d="M221.577 78.237c-1.967 0-2.841 1.857-2.841 3.905 0 2.026 0.876 3.882 2.841 3.882 1.982 0 2.856-1.857 2.856-3.882-0.002-2.046-0.874-3.905-2.856-3.905zM215.512 71.412h3.34v6.118h0.049c0.825-1.248 2.334-1.815 3.833-1.815 2.423 0 5.032 1.952 5.032 6.4 0 4.468-2.61 6.423-5.032 6.423-1.785 0-3.27-0.536-3.999-1.883h-0.043v1.557h-3.178v-16.801z"></path>
<path fill="#00000b" d="M236.638 82.254c-0.564 0.498-1.74 0.517-2.775 0.707-1.031 0.212-1.975 0.565-1.975 1.79 0 1.248 0.965 1.548 2.046 1.548 2.608 0 2.706-2.067 2.706-2.794v-1.251zM228.923 79.785c0.188-3.13 2.988-4.070 5.714-4.070 2.424 0 5.34 0.543 5.34 3.463v6.328c0 1.103 0.12 2.208 0.428 2.704h-3.39c-0.12-0.374-0.211-0.776-0.237-1.178-1.056 1.107-2.604 1.507-4.093 1.507-2.309 0-4.14-1.154-4.14-3.643 0-2.753 2.073-3.414 4.14-3.698 2.046-0.301 3.953-0.235 3.953-1.597 0-1.434-0.985-1.646-2.167-1.646-1.268 0-2.086 0.517-2.208 1.832h-3.34z"></path>
<path fill="#00000b" d="M241.837 71.412h3.345v16.799h-3.345v-16.799z"></path>
<path fill="#00000b" d="M260.047 80.328c-0.211-1.362-1.081-2.093-2.475-2.093-2.138 0-2.841 2.163-2.841 3.953 0 1.742 0.68 3.837 2.775 3.837 1.554 0 2.444-0.988 2.656-2.469h3.224c-0.423 3.219-2.659 4.983-5.857 4.983-3.666 0-6.139-2.585-6.139-6.233 0-3.786 2.257-6.586 6.216-6.586 2.866 0 5.502 1.505 5.718 4.609h-3.275z"></path>
<path fill="#00000b" d="M264.446 71.412h3.34v6.327h0.070c0.846-1.362 2.309-2.024 3.551-2.024 3.557 0 4.45 2.003 4.45 5.015v7.481h-3.339v-6.87c0-2.003-0.595-2.991-2.142-2.991-1.816 0-2.59 1.010-2.59 3.48v6.379h-3.34v-16.796z"></path>
<path fill="#00000b" d="M285.15 82.254c-0.564 0.498-1.745 0.517-2.781 0.707-1.031 0.212-1.971 0.565-1.971 1.79 0 1.248 0.965 1.548 2.041 1.548 2.616 0 2.712-2.067 2.712-2.794v-1.251zM277.43 79.785c0.186-3.13 2.988-4.070 5.724-4.070 2.424 0 5.34 0.543 5.34 3.463v6.328c0 1.103 0.111 2.208 0.423 2.704h-3.391c-0.12-0.374-0.21-0.776-0.235-1.178-1.061 1.107-2.61 1.507-4.094 1.507-2.308 0-4.143-1.154-4.143-3.643 0-2.753 2.073-3.414 4.143-3.698 2.048-0.301 3.954-0.235 3.954-1.597 0-1.434-0.992-1.646-2.168-1.646-1.268 0-2.091 0.517-2.212 1.832h-3.34z"></path>
<path fill="#00000b" d="M289.782 76.044h3.172v1.694h0.077c0.844-1.362 2.304-2.022 3.711-2.022 3.555 0 4.45 1.999 4.45 5.012v7.478h-3.34v-6.866c0-1.997-0.59-2.991-2.142-2.991-1.811 0-2.586 1.010-2.586 3.482v6.374h-3.343v-12.161z"></path>
<path fill="#00000b" d="M310.952 81.978c0-1.977-0.68-3.743-2.841-3.743-1.886 0-2.706 1.646-2.706 3.461 0 1.738 0.654 3.639 2.706 3.639 1.896 0 2.841-1.62 2.841-3.356zM314.131 87.434c0 1.998-0.714 5.386-6.302 5.386-2.398 0-5.204-1.132-5.365-3.907h3.318c0.301 1.248 1.319 1.671 2.494 1.671 1.856 0 2.695-1.27 2.676-3.012v-1.599h-0.040c-0.735 1.272-2.195 1.883-3.657 1.883-3.64 0-5.194-2.777-5.194-6.118 0-3.151 1.811-6.021 5.22-6.021 1.603 0 2.821 0.539 3.63 1.95h0.040v-1.618h3.177v11.385z"></path>
<path fill="#00000b" d="M323.705 80.825c-0.303-1.694-1.036-2.591-2.661-2.591-2.118 0-2.725 1.646-2.775 2.591h5.436zM318.269 82.94c0.096 2.118 1.132 3.084 2.993 3.084 1.338 0 2.418-0.828 2.631-1.576h2.945c-0.945 2.867-2.945 4.087-5.701 4.087-3.832 0-6.205-2.631-6.205-6.394 0-3.647 2.514-6.424 6.205-6.424 4.149 0 6.139 3.482 5.904 7.223h-8.771z"></path>
<path fill="#00000b" d="M327.869 84.582h3.695v3.628h-3.695v-3.628z"></path>
<path fill="#00000b" d="M44.163 11.789h10.168v46.259h-10.168v-46.259z"></path>
<path fill="#00000b" d="M60.354 24.554h8.743v4.662h0.197c2.327-3.756 6.351-5.573 10.233-5.573 9.782 0 12.246 5.509 12.246 13.804v20.602h-9.198v-18.918c0-5.509-1.627-8.229-5.898-8.229-4.983 0-7.12 2.788-7.12 9.593v17.556h-9.2v-33.495z"></path>
<path fill="#00000b" d="M108.758 24.554h6.731v6.158h-6.731v16.583c0 3.107 0.774 3.887 3.882 3.887 0.977 0 1.875-0.063 2.849-0.259v7.193c-1.557 0.256-3.558 0.318-5.371 0.318-5.639 0-10.562-1.293-10.562-7.965v-19.755h-5.571v-6.158h5.571v-10.042h9.204v10.042z"></path>
<path fill="#00000b" d="M141.726 37.705c-0.836-4.662-2.849-7.128-7.323-7.128-5.825 0-7.512 4.544-7.642 7.128h14.965zM126.761 43.538c0.256 5.823 3.114 8.488 8.229 8.488 3.685 0 6.667-2.27 7.26-4.342h8.095c-2.593 7.901-8.095 11.274-15.685 11.274-10.549 0-17.098-7.261-17.098-17.62 0-10.050 6.926-17.697 17.098-17.697 11.408 0 16.917 9.589 16.269 19.896h-24.169z"></path>
<path fill="#00000b" d="M155.103 24.691h8.745v6.216h0.135c1.68-4.209 6.216-7.125 10.681-7.125 0.65 0 1.432 0.129 2.013 0.327v8.554c-0.84-0.199-2.202-0.327-3.304-0.327-6.738 0-9.072 4.863-9.072 10.758v15.094h-9.198v-33.495z"></path>
<path fill="#00000b" d="M180.1 24.723h8.749v4.662h0.188c2.339-3.756 6.358-5.568 10.245-5.568 9.777 0 12.235 5.504 12.235 13.807v20.597h-9.192v-18.915c0-5.511-1.624-8.232-5.893-8.232-4.991 0-7.125 2.787-7.125 9.589v17.558h-9.205v-33.498z"></path>
<path fill="#00000b" d="M239.208 37.705c-0.84-4.662-2.856-7.128-7.321-7.128-5.829 0-7.518 4.544-7.645 7.128h14.967zM224.242 43.538c0.258 5.823 3.108 8.488 8.227 8.488 3.691 0 6.673-2.27 7.251-4.342h8.101c-2.59 7.901-8.101 11.274-15.679 11.274-10.555 0-17.098-7.261-17.098-17.62 0-10.050 6.924-17.697 17.098-17.697 11.399 0 16.908 9.589 16.263 19.896h-24.165z"></path>
<path fill="#00000b" d="M289.917 58.048h-9.454l-5.958-22.479h-0.137l-5.701 22.479h-9.519l-10.626-33.498h9.724l6.152 22.744h0.129l5.573-22.744h8.936l5.707 22.676h0.126l6.156-22.676h9.459z"></path>
<path fill="#00000b" d="M309.544 47.161c0.075 4.019 3.429 5.643 7.058 5.643 2.656 0 6.021-1.036 6.021-4.275 0-2.788-3.817-3.756-10.42-5.184-5.315-1.167-10.626-3.048-10.626-8.946 0-8.551 7.383-10.756 14.573-10.756 7.323 0 14.061 2.469 14.769 10.69h-8.744c-0.258-3.561-2.978-4.531-6.282-4.531-2.078 0-5.119 0.389-5.119 3.11 0 3.307 5.179 3.754 10.434 4.986 5.371 1.238 10.617 3.181 10.617 9.397 0 8.81-7.644 11.663-15.277 11.663-7.779 0-15.363-2.915-15.749-11.797h8.745z"></path>
</svg>
