<?xml version="1.0" encoding="utf-8"?>
<!-- Generated by IcoMoon.io -->
<!DOCTYPE svg PUBLIC "-//W3C//DTD SVG 1.1//EN" "http://www.w3.org/Graphics/SVG/1.1/DTD/svg11.dtd">
<svg version="1.1" xmlns="http://www.w3.org/2000/svg" xmlns:xlink="http://www.w3.org/1999/xlink" width="249" height="100" viewBox="0 0 249 100">
<path fill="rgb(0, 0, 0)" d="M-7.555-1.563h256.332v103.125h-256.332v-103.125z"></path>
<path fill="rgb(255, 255, 255)" d="M21.177 9.651h27.028l16.594 55.818h0.229l11.368-55.818h20.419l-17.165 80.495h-26.913l-16.942-55.698h-0.231l-11.254 55.698h-20.417z"></path>
<path fill="rgb(255, 255, 255)" d="M112.619 9.651h21.702l-6.388 30.793h25.645l6.377-30.793h21.694l-16.822 80.495h-21.694l7.191-34.482h-25.636l-7.197 34.482h-21.691z"></path>
<path fill="rgb(255, 255, 255)" d="M238.727 27.876c-4.18-1.966-9.865-3.691-17.868-3.691-8.588 0-15.545 1.266-15.545 7.723 0 11.42 31.445 7.154 31.445 31.599 0 22.257-20.771 28.025-39.565 28.025-8.354 0-17.985-1.963-25.059-4.148l5.106-16.379c4.291 2.771 12.88 4.614 19.954 4.614 6.728 0 17.285-1.263 17.285-9.574 0-12.914-31.436-8.071-31.436-30.785 0-20.757 18.328-26.988 36.076-26.988 9.98 0 19.374 1.043 24.828 3.574l-5.22 16.031z"></path>
</svg>
