<?xml version="1.0" encoding="utf-8"?>
<!-- Generated by IcoMoon.io -->
<!DOCTYPE svg PUBLIC "-//W3C//DTD SVG 1.1//EN" "http://www.w3.org/Graphics/SVG/1.1/DTD/svg11.dtd">
<svg version="1.1" xmlns="http://www.w3.org/2000/svg" xmlns:xlink="http://www.w3.org/1999/xlink" width="463" height="100" viewBox="0 0 463 100">
<path fill="#00000b" d="M158.285 51.59h7.463l-3.731-8.668z"></path>
<path fill="#00000b" d="M222.096 40.289h-7.408v8.617h6.804c0 0 3.787-1.263 3.841-4.307s-3.235-4.309-3.235-4.309z"></path>
<path fill="#00000b" d="M111.375 41.169c-2.799 0-7.407 0-7.407 0v8.45h8.78c0 0 2.633-1.483 2.633-3.841-0.003-2.362-1.209-4.609-4.006-4.609z"></path>
<path fill="#00000b" d="M375.721 10.168h-104.721v12.401h-16.973v-12.401h-167.158c-21.999 0-39.832 17.833-39.832 39.834 0 21.999 17.833 39.83 39.832 39.83h288.852c21.997 0 39.83-17.831 39.83-39.83 0-22.001-17.833-39.834-39.83-39.834zM116.423 58.67h-12.581v12.291h-16.973v-39.795h30.141c0 0 14.923 0.878 14.923 14.924 0 14.045-14.335 12.581-15.508 12.581zM173.775 70.96l-4.096-7.9h-15.216l-4.096 7.9h-16.387l16.387-39.795h21.947l16.972 39.795h-15.508zM225.204 70.96c0 0 0.147-13.755-5.487-13.314h-5.633v13.314h-16.021v-39.795h31.895c0 0 10.827 0.291 10.827 9.948s-6.731 9.948-6.731 9.948l0.513 1.246c0 0 6.804 3.951 6.804 18.654h-16.167zM270.999 70.96h-16.973v-40.088h16.973v40.088zM327.621 42.942h-14.56v28.018h-17.338v-27.799h-14.775v-11.998l46.672-0.293v12.071zM368.147 57.351v13.389h-17.189v-13.314l-16.387-26.555h17.409l7.719 14.997 7.499-14.997h17.631l-16.682 26.48z"></path>
</svg>
