<?xml version="1.0" encoding="utf-8"?>
<!-- Generated by IcoMoon.io -->
<!DOCTYPE svg PUBLIC "-//W3C//DTD SVG 1.1//EN" "http://www.w3.org/Graphics/SVG/1.1/DTD/svg11.dtd">
<svg version="1.1" xmlns="http://www.w3.org/2000/svg" xmlns:xlink="http://www.w3.org/1999/xlink" width="224" height="32" viewBox="0 0 224 32">
<svg id="icon-feed2" width="32" height="32" viewBox="0 0 32 32" x="0" y="0">
<path fill="#ffffff" d="M4.259 23.467c-2.35 0-4.259 1.917-4.259 4.252 0 2.35 1.909 4.244 4.259 4.244 2.358 0 4.265-1.895 4.265-4.244 0-2.336-1.907-4.252-4.265-4.252zM0.005 10.873v6.133c3.993 0 7.749 1.563 10.577 4.391 2.825 2.822 4.384 6.596 4.384 10.604h6.16c0-11.651-9.478-21.128-21.121-21.128zM0.012 0v6.136c14.243 0 25.836 11.604 25.836 25.864h6.152c0-17.64-14.352-32-31.988-32z"></path>
</svg>
<svg id="icon-github" width="32" height="32" viewBox="0 0 32 32" x="48" y="0">
<path fill="#ffffff" d="M16 0.395c-8.836 0-16 7.163-16 16 0 7.069 4.585 13.067 10.942 15.182 0.8 0.147 1.094-0.347 1.094-0.771 0-0.381-0.015-1.642-0.022-2.979-4.452 0.968-5.391-1.889-5.391-1.889-0.728-1.849-1.776-2.34-1.776-2.34-1.452-0.994 0.11-0.974 0.11-0.974 1.606 0.113 2.452 1.649 2.452 1.649 1.427 2.445 3.743 1.738 4.656 1.33 0.143-1.035 0.558-1.74 1.016-2.141-3.554-0.404-7.29-1.777-7.29-7.907 0-1.747 0.625-3.174 1.649-4.295-0.166-0.403-0.714-2.030 0.155-4.234 0 0 1.344-0.43 4.401 1.64 1.276-0.355 2.645-0.532 4.005-0.539 1.358 0.006 2.729 0.184 4.008 0.539 3.054-2.070 4.396-1.64 4.396-1.64 0.871 2.204 0.322 3.831 0.156 4.234 1.026 1.12 1.647 2.548 1.647 4.295 0 6.145-3.743 7.499-7.306 7.895 0.574 0.497 1.084 1.47 1.084 2.963 0 2.141-0.019 3.864-0.019 4.391 0 0.426 0.288 0.926 1.099 0.769 6.355-2.116 10.934-8.111 10.934-15.178 0-8.837-7.164-16-16-16z"></path>
</svg>
<svg id="icon-slideshare" width="32" height="32" viewBox="0 0 32 32" x="96" y="0">
<path fill="#ffffff" d="M15.589 13.214c0 0.987-0.377 1.835-1.134 2.544s-1.664 1.063-2.722 1.063-1.966-0.354-2.722-1.063-1.134-1.557-1.134-2.544c0-1.001 0.379-1.851 1.134-2.553 0.757-0.704 1.664-1.054 2.722-1.054s1.966 0.35 2.722 1.054c0.757 0.702 1.134 1.554 1.134 2.553zM24.553 13.214c0 0.987-0.375 1.835-1.125 2.544s-1.662 1.063-2.731 1.063c-1.058 0-1.963-0.354-2.722-1.063-0.754-0.709-1.131-1.557-1.131-2.544 0-1.001 0.377-1.851 1.131-2.553 0.759-0.704 1.666-1.054 2.722-1.054 1.072 0 1.982 0.35 2.731 1.054 0.75 0.702 1.125 1.554 1.125 2.553zM28.571 16.427v-11.911c0-1.038-0.192-1.771-0.571-2.206s-1.040-0.651-1.982-0.651h-19.858c-0.987 0-1.657 0.201-2.009 0.608-0.352 0.405-0.526 1.154-0.526 2.249v12.018c0.512 0.274 1.040 0.512 1.579 0.713 0.542 0.201 1.024 0.368 1.447 0.503 0.423 0.13 0.905 0.24 1.447 0.329s0.965 0.153 1.269 0.197 0.72 0.066 1.25 0.071 0.878 0.007 1.045 0.009c0.167 0 0.503-0.011 1.008-0.037s0.77-0.039 0.795-0.037c0.809-0.011 1.374 0.149 1.696 0.482 0.073 0.071 0.13 0.126 0.178 0.16 0.309 0.297 0.672 0.601 1.090 0.907 0.085-1.083 0.786-1.6 2.105-1.554 0.062 0 0.277 0.009 0.651 0.027s0.633 0.032 0.768 0.037c0.139 0.009 0.409 0.014 0.811 0.021s0.718 0 0.946-0.021c0.229-0.018 0.551-0.046 0.974-0.078 0.425-0.037 0.786-0.087 1.090-0.151 0.306-0.064 0.674-0.144 1.106-0.238s0.83-0.21 1.195-0.347c0.363-0.139 0.766-0.299 1.205-0.482 0.441-0.187 0.869-0.393 1.289-0.619zM31.481 16.338c-1.442 1.774-3.657 3.273-6.642 4.501 1.001 3.392 0.862 6.16-0.411 8.304-0.789 1.346-1.877 2.229-3.271 2.642-1.239 0.379-2.322 0.29-3.25-0.267-1.024-0.608-1.513-1.582-1.465-2.928l-0.016-5.822v-0.018c-0.094-0.025-0.24-0.059-0.437-0.107s-0.336-0.078-0.421-0.089l-0.018 6.037c0.048 1.358-0.446 2.334-1.481 2.928-0.939 0.558-2.030 0.647-3.269 0.267-1.392-0.43-2.475-1.321-3.25-2.679-1.25-2.144-1.381-4.901-0.393-8.267-2.987-1.227-5.202-2.727-6.642-4.501-0.297-0.441-0.322-0.814-0.071-1.125 0.249-0.311 0.608-0.304 1.072 0.018 0.034 0.025 0.101 0.066 0.197 0.126s0.162 0.107 0.197 0.142v-12.393c0-0.857 0.281-1.591 0.839-2.197s1.239-0.91 2.037-0.91h22.446c0.798 0 1.477 0.304 2.039 0.91 0.558 0.606 0.839 1.337 0.837 2.197v12.393l0.375-0.267c0.466-0.322 0.823-0.329 1.074-0.018 0.249 0.311 0.222 0.683-0.073 1.125z"></path>
</svg>
<svg id="icon-twitter" width="32" height="32" viewBox="0 0 32 32" x="144" y="0">
<path fill="#ffffff" d="M32 6.076c-1.177 0.522-2.443 0.875-3.771 1.034 1.355-0.813 2.396-2.099 2.888-3.632-1.269 0.752-2.675 1.299-4.169 1.593-1.198-1.276-2.904-2.073-4.793-2.073-3.625 0-6.564 2.939-6.564 6.565 0 0.515 0.058 1.016 0.17 1.496-5.456-0.274-10.294-2.888-13.532-6.86-0.566 0.97-0.89 2.097-0.89 3.301 0 2.278 1.159 4.287 2.921 5.465-1.076-0.034-2.088-0.329-2.974-0.821-0.001 0.027-0.001 0.055-0.001 0.083 0 3.181 2.263 5.833 5.266 6.437-0.551 0.15-1.131 0.23-1.73 0.23-0.423 0-0.834-0.041-1.235-0.119 0.835 2.608 3.26 4.507 6.133 4.56-2.247 1.761-5.078 2.81-8.154 2.81-0.53 0-1.052-0.030-1.566-0.092 2.905 1.863 6.356 2.95 10.064 2.95 12.076 0 18.679-10.004 18.679-18.68 0-0.285-0.006-0.568-0.020-0.849 1.284-0.926 2.397-2.082 3.278-3.398v0z"></path>
</svg>
</svg>
