<?xml version="1.0" encoding="utf-8"?>
<!-- Generated by IcoMoon.io -->
<!DOCTYPE svg PUBLIC "-//W3C//DTD SVG 1.1//EN" "http://www.w3.org/Graphics/SVG/1.1/DTD/svg11.dtd">
<svg version="1.1" xmlns="http://www.w3.org/2000/svg" xmlns:xlink="http://www.w3.org/1999/xlink" width="2114" height="50" viewBox="0 0 2114 50">
<svg id="client-NHS" width="124" height="50" viewBox="0 0 124 50" x="0" y="0">
<path fill="rgb(0, 0, 0)" d="M15.197 6.641h91.27v36.719h-91.27v-36.719z"></path>
<path fill="rgb(255, 255, 255)" d="M25.428 10.633h9.624l5.908 19.875h0.081l4.048-19.875h7.271l-6.112 28.661h-9.583l-6.032-19.832h-0.082l-4.007 19.832h-7.269z"></path>
<path fill="rgb(255, 255, 255)" d="M57.986 10.633h7.727l-2.275 10.964h9.131l2.271-10.964h7.724l-5.99 28.661h-7.724l2.56-12.278h-9.128l-2.562 12.278h-7.724z"></path>
<path fill="rgb(255, 255, 255)" d="M102.888 17.123c-1.488-0.7-3.512-1.314-6.362-1.314-3.058 0-5.535 0.451-5.535 2.75 0 4.066 11.196 2.547 11.196 11.251 0 7.925-7.395 9.979-14.087 9.979-2.975 0-6.404-0.699-8.923-1.477l1.818-5.832c1.528 0.987 4.586 1.643 7.105 1.643 2.396 0 6.154-0.45 6.154-3.409 0-4.598-11.194-2.874-11.194-10.962 0-7.391 6.526-9.609 12.846-9.609 3.554 0 6.898 0.371 8.84 1.273l-1.858 5.708z"></path>
</svg>
<svg id="client-Turner" width="199" height="50" viewBox="0 0 199 50" x="200" y="0">
<path fill="rgb(0, 0, 0)" d="M148.925 36.733h-97.967c-9.61-0.26-12.012-5.727-12.012-10.413 0-4.426 2.67-11.194 12.28-11.194h97.7c9.345 0 10.945 9.112 10.945 11.194s-1.334 10.413-10.945 10.413z"></path>
<path fill="rgb(255, 255, 255)" d="M146.817 26.294c0-1.422 1.183-2.577 2.642-2.577 1.46 0 2.644 1.154 2.644 2.577s-1.182 2.577-2.644 2.577c-1.459 0-2.642-1.153-2.642-2.577zM137.28 32.021h5.639l3.904-8.365h-5.638l-3.905 8.365z"></path>
<path fill="rgb(255, 255, 255)" d="M103.13 23.641l-3.87 8.379h5.605l2.203-4.751c1-2.083 4.003-1.823 3.203 0l-2.268 4.751h5.138l3.204-6.833c0.601-1.367-0.868-1.545-2.003-1.545h-5.873c0 0-0.423 0.018-0.726 0.094-0.561 0.155-1.025 0.395-1.187 0.606-0.33-0.384-0.658-0.699-1.2-0.699h-2.223z"></path>
<path fill="rgb(255, 255, 255)" d="M77.802 30.044c0.64-1.326 2.958-6.402 2.958-6.402h-5.605l-2.203 4.751c-1.001 2.083-4.004 1.823-3.203 0l2.268-4.751h-5.137l-3.204 6.833c-0.6 1.367 0.868 1.546 2.002 1.546h8.358c2.774 0.001 3.126-0.652 3.766-1.977z"></path>
<path fill="rgb(255, 255, 255)" d="M124.461 23.626h9.476c1.336 0.064 1.541 0.817 1.208 1.532l-1.607 3.478h-7.874l-0.936 1.953h7.874l-0.668 1.433h-11.403c-1.012-0.015-1.818-0.43-1.199-1.821 0.313-0.705 2.527-5.468 2.527-5.468 0.359-0.796 1.295-1.020 2.602-1.107zM129.532 26.294c0.267-0.65-0.534-0.716-1.067-0.716-0.333 0-1.339-0.104-1.736 0.781l-0.533 1.107h2.735c0 0 0.334-0.52 0.601-1.171z"></path>
<path fill="rgb(255, 255, 255)" d="M50.073 22.892c0 0 0.408-0.369 0.735-0.611 0.446-0.33 1.45-1.178 2.242-1.195 0.652-0.014 2.662 0 2.662 0l-5.087 10.935h6.105l5.089-10.935h89.424l0.6-1.302h-99.95c-1.327 0-2.335 0.847-2.803 1.302l-2.435 2.116c-0.459 0.462-0.74 1.094-0.74 1.789 0 1.424 1.184 2.577 2.643 2.577s2.643-1.153 2.643-2.577c0-0.857-0.429-1.617-1.088-2.085z"></path>
<path fill="rgb(255, 255, 255)" d="M86.594 23.657h5.639l-3.905 8.365h-5.638l3.904-8.365zM94.876 28.87c1.46 0 2.643-1.153 2.643-2.577 0-1.422-1.183-2.577-2.643-2.577s-2.643 1.154-2.643 2.577c0 1.424 1.183 2.577 2.643 2.577z"></path>
<path fill="rgb(255, 255, 255)" d="M157.974 18.557c-2.306-2.771-5.896-4.235-10.382-4.235h-96.367c-4.488 0-8.078 1.464-10.382 4.235-1.729 2.077-2.721 4.907-2.721 7.763 0 3.268 1.249 10.903 12.814 11.217h96.945c11.566-0.313 12.814-7.949 12.814-11.217 0-2.856-0.991-5.686-2.72-7.763zM147.858 35.931h-96.901c-9.732-0.263-11.189-6.134-11.189-9.611 0-4.793 3-10.392 11.456-10.392h96.366c8.455 0 11.456 5.599 11.456 10.392 0.002 3.476-1.455 9.347-11.188 9.611z"></path>
</svg>
<svg id="client-Champion" width="101" height="50" viewBox="0 0 101 50" x="500" y="0">
<path fill="#ffffff" d="M50.122-23.062c5.006 1.384 8.739 2.033 8.739 2.033-2.147-2.149-4.065-4.359-5.732-6.451 2.906-4.113 5.195-6.957 5.195-6.957-3.082 0.684-5.997 1.519-8.606 2.375-2.479-3.564-3.84-6.072-3.84-6.072-0.721 2.674-1.069 5.353-1.19 7.869-4.144 1.605-6.732 2.917-6.732 2.917 2.24 1.008 4.565 1.892 6.817 2.649 0.365 4.839 1.343 8.196 1.343 8.196 1.257-2.245 2.637-4.474 4.009-6.562z"></path>
<path fill="#ffffff" d="M72.976-24.331c-0.683 1.068-1.726 1.83-2.941 2.367-0.17-3.424-0.691-6.451-0.691-6.451-1.039 2.809-2.143 5.304-3.21 7.458-3.669 0.471-7.276-0.068-7.276-0.068 1.978 2.37 3.511 3.778 4.754 4.725-1.857 3.136-3.204 4.809-3.204 4.809 2.6-0.593 4.664-1.581 6.306-2.753 0.672 0.464 1.251 0.977 1.82 1.85 0 0 1.062-1.503 1.423-4.986 2.626-3.436 3.015-6.951 3.015-6.951z"></path>
<path fill="#ffffff" d="M71.778-33.815c-1.172-2.631-2.856-4.62-4.693-6.115-1.569-3.295-3.37-4.816-3.37-4.816 0.152 0.757 0.036 1.616-0.244 2.502-3.906-1.935-7.465-2.204-7.465-2.204 2.269 1.488 4.28 3.332 6.007 5.231-1.593 2.593-3.686 4.78-3.686 4.78 2.777-0.627 5.011-0.89 6.799-0.935 2.742 3.779 4.219 6.956 4.219 6.956 0.050-2.557-0.201-4.785-0.628-6.708 2.324 0.441 3.059 1.311 3.059 1.311z"></path>
<path fill="#ffffff" d="M56.002-44.449c-1.893-0.952-3.705-1.617-5.39-2.074 2.148-1.814 4.143-2.276 4.143-2.276-3.448-0.135-6.408 0.487-8.887 1.44-3.704-0.294-6.060 0.348-6.060 0.348 0.554 0.416 1.020 1.165 1.5 2.057-3.13 2.143-4.718 4.377-4.718 4.377 1.886-0.935 3.888-1.647 5.86-2.19 0.214 0.396 0.441 0.792 0.69 1.178 1.306 2.033 2.741 3.455 2.741 3.455 0.512-2.441 1.393-4.34 2.41-5.816 4.402-0.611 7.715-0.502 7.715-0.502z"></path>
<path fill="#ffffff" d="M32.228-36.934c1.178-1.141 2.618-2.37 4.358-3.639 0 0-1.606 0-3.302 0.432 1.123-2.717 2.368-4.225 2.368-4.225s-7.146 5.085-8.502 14.225c0 0 0.599-1.653 2.637-4.144 0.806 1.812 1.739 2.953 1.739 2.953 0.012-2.088 0.294-3.962 0.707-5.597z"></path>
<path fill="#ffffff" d="M37.956-27.344c-2.483 0.078-4.425 0.294-5.939 0.573-0.427-2.655-0.493-4.566-0.493-4.566-1.226 1.873-2.019 3.674-2.509 5.353-1.727 0.641-2.162 1.262-2.162 1.262 0.269 0.922 0.806 1.818 1.488 2.656-0.213 3.979 1.074 6.605 1.074 6.605 0.288-1.392 0.866-2.752 1.592-4.022 2.117 1.697 4.211 2.803 4.211 2.803-0.988-1.77-1.715-3.754-2.247-5.675 2.374-2.978 4.988-4.993 4.988-4.993z"></path>
<path fill="#ffffff" d="M50.226-7.021c0 0-2.081-0.831-5.060-2.509 0.105-1.793 0.383-4.072 0.947-6.968 0 0-2.368 2.345-5.432 4.163-1.781-1.232-3.65-2.674-5.468-4.34 0 0 0.885 2.734 2.588 5.744-1.617 0.605-3.284 0.886-4.809 0.513 0 0 1.801 2.247 7.354 3.204 1.538 1.826 3.417 3.338 5.604 3.863 0 0-0.66-0.726-0.806-3.442 1.514 0.020 3.2-0.044 5.079-0.226z"></path>
<path fill="#ffffff" d="M60.29-7.249c0.477-2.198 0.122-4.242 0.122-4.242-1.405 2.020-2.788 3.559-4.065 4.731-3.438 0.178-6.121-0.261-6.121-0.261s1.537 1.533 3.303 2.418c-2.338 1.446-3.905 1.575-3.905 1.575 10.228 0.215 16.363-6.464 16.363-6.464-1.722 1.136-3.718 1.832-5.701 2.241z"></path>
<path fill="#ffffff" d="M38.921 19.97c2.588-2.961 6.391-4.833 10.627-4.833 4.358 0 8.258 1.978 10.846 5.089l0.683-0.641c-2.754-3.279-6.889-5.366-11.509-5.366-4.499 0-8.537 1.978-11.292 5.114l0.646 0.636z"></path>
<path fill="#ffffff" d="M48.348 12.487l-4.132 0.86-1.038-5.004 4.071-0.847 0.194 0.916-2.675 0.556 0.215 1.049 2.556-0.531 0.19 0.916-2.552 0.531 0.249 1.202 2.735-0.567z"></path>
<path fill="#ffffff" d="M56.225 9.26l-2.46-0.52-0.238 1.117 2.461 0.519-0.19 0.916-2.466-0.519-0.432 2.050-1.398-0.293 1.055-4.998 3.858 0.813z"></path>
<path fill="#ffffff" d="M62.174 17.81l-1.221-1.159 0.194-1.099-2.104-1.459-0.927 0.585-1.391-0.777 4.96-2.961 1.356 0.941-0.867 5.927zM61.758 12.342l-1.88 1.189 1.489 1.037 0.391-2.223z"></path>
<path fill="#ffffff" d="M39.487 15.764c-0.916 0.726-2.467 1.319-3.606-0.018l-1.637-2.105 1.097-0.862 1.61 2.068c0.58 0.683 1.311 0.555 1.891 0.096 0.581-0.457 0.879-1.136 0.353-1.862l-1.611-2.068 1.097-0.862 1.641 2.106c0.977 1.343 0.372 2.557-0.829 3.51z"></path>
<path fill="#ffffff" d="M67.207 12.819c-4.401-4.627-10.619-7.514-17.505-7.514-6.971 0-13.254 2.953-17.662 7.679l-0.744-0.758c4.627-4.848 11.157-7.872 18.388-7.872 7.177 0 13.653 2.972 18.279 7.758l-0.756 0.707z"></path>
<path fill="#ffffff" d="M72.141 33.136c-3.057 0-4.914-2.564-4.914-5.377 0-2.918 2.166-5.036 4.992-5.036 3.131 0 5.022 2.489 5.022 5.223-0 3.241-2.35 5.194-5.097 5.193zM71.969 24.196c-1.899 0-2.467 1.813-2.467 3.041 0 1.795 0.799 4.423 2.991 4.423 1.563 0 2.472-1.397 2.472-3.071 0-1.782-0.691-4.393-2.997-4.393z"></path>
<path fill="#ffffff" d="M53.427 31.677c0 0.555 0.109 0.751 0.996 0.923v0.384c-0.964-0.048-1.568-0.091-2.135-0.091-0.568 0-1.166 0.043-1.843 0.091v-0.384c0.599-0.109 0.708-0.371 0.708-1.093v-7.512c0-0.432-0.189-0.629-0.708-0.646v-0.428h4.546c2.843 0 3.869 1.354 3.869 3.136 0 1.905-1.446 3.071-3.423 3.071-0.752 0-1.857-0.384-1.857-0.707 0-0.14 0.092-0.14 0.232-0.14 0.135 0 0.336 0.049 0.532 0.049 1.613 0 2.241-0.904 2.241-2.184 0-1.38-0.861-1.874-2.21-1.874l-0.951 0.103v7.3z"></path>
<path fill="#ffffff" d="M61.831 23.906c0-0.432-0.183-0.629-0.707-0.647v-0.402c0.677 0.048 1.275 0.091 1.843 0.091 0.568 0 1.166-0.043 1.838-0.091v0.402c-0.518 0.018-0.707 0.214-0.707 0.647v8.049c0 0.428 0.184 0.629 0.707 0.646v0.385c-0.677-0.044-1.274-0.091-1.838-0.091-0.567 0-1.166 0.048-1.843 0.091v-0.384c0.524-0.017 0.707-0.215 0.707-0.646v-8.050z"></path>
<path fill="#ffffff" d="M80.317 23.894c0-0.428-0.183-0.628-0.708-0.642v-0.403c0.678 0.049 1.274 0.092 1.844 0.092 0.416 0 0.874 0 1.349-0.092l4.236 6.872 0.031-0.001v-5.609c0-0.798-0.502-0.86-0.922-0.86v-0.401c0.507 0.044 0.996 0.091 1.476 0.091 0.507 0 1.013-0.044 1.507-0.091v0.401c-0.524 0.017-0.707 0.214-0.707 0.642v9.092h-1.63l-5.097-7.935h-0.031v6.683c0 0.799 0.512 0.86 0.923 0.86v0.384c-0.507-0.048-0.996-0.092-1.476-0.092-0.507 0-1.013 0.048-1.502 0.092l-0.001-0.384c0.524-0.018 0.708-0.219 0.708-0.648v-8.050z"></path>
<path fill="#ffffff" d="M92.269 29.492c0.312 1.722 1.446 2.527 3.138 2.527 0.933 0 2.276-0.269 2.276-1.453 0-0.951-0.978-1.202-1.708-1.423l-1.123-0.331c-1.61-0.475-3.223-1.154-3.223-3.021 0-2.452 2.37-3.193 4.725-3.193 0.995 0 2.020 0.172 2.937 0.506 0 1.14 0.062 2.104 0.128 2.924l-0.392 0.001c-0.336-1.454-1.52-2.135-2.942-2.135-0.788 0-2.117 0.251-2.117 1.342 0 0.872 0.757 1.123 1.41 1.313l1.655 0.471c1.599 0.458 3.083 1.044 3.083 3.1 0 2.088-2.1 3.197-4.68 3.197-1.153 0-2.368-0.19-3.431-0.568 0-1.251-0.048-2.339-0.122-3.259l0.385 0z"></path>
<path fill="#ffffff" d="M12.438 23.903c0-0.433-0.183-0.63-0.707-0.646v-0.401c0.677 0.048 1.275 0.091 1.838 0.091 0.573 0 1.171-0.044 1.843-0.091v0.401c-0.519 0.013-0.707 0.213-0.707 0.646v3.045h3.717v-3.045c0-0.433-0.184-0.63-0.708-0.646v-0.401c0.676 0.048 1.276 0.091 1.843 0.091s1.166-0.044 1.843-0.091v0.402c-0.524 0.013-0.708 0.213-0.708 0.646l-0.001 8.051c0 0.428 0.188 0.629 0.708 0.647v0.392c-0.677-0.048-1.275-0.092-1.843-0.092s-1.171 0.048-1.843 0.092v-0.392c0.524-0.017 0.708-0.215 0.708-0.647v-3.534h-3.717v3.534c0 0.428 0.183 0.629 0.703 0.647v0.392c-0.677-0.048-1.27-0.092-1.843-0.092-0.567 0-1.166 0.048-1.843 0.092v-0.392c0.525-0.017 0.708-0.215 0.708-0.647v-8.051h0z"></path>
<path fill="#ffffff" d="M27.087 28.589c0.402-1.088 0.892-2.302 1.245-3.534h0.031c0.306 1.555 0.563 2.538 0.89 3.534h-2.166zM23.371 32.984c0.538-0.048 1.061-0.091 1.594-0.091 0.524 0 1.062 0.043 1.581 0.091v-0.384c-0.506-0.030-0.72-0.215-0.72-0.49 0-0.153 0.044-0.323 0.123-0.538l0.677-1.813h2.996l0.489 1.49c0.080 0.201 0.154 0.555 0.154 0.769 0 0.353-0.201 0.476-0.769 0.585v0.384c0.66-0.048 1.32-0.091 1.983-0.091 0.642 0 1.306 0.043 1.947 0.091v-0.384c-0.458-0.123-0.69-0.323-0.922-1l-2.826-8.741c-0.476 0.048-0.965 0.091-1.441 0.091s-0.952-0.043-1.442-0.091v0.402c0.415 0 0.585 0.244 0.585 0.397s-0.105 0.367-0.197 0.599l-3.010 7.636c-0.154 0.397-0.354 0.646-0.8 0.707v0.385h0z"></path>
<path fill="#ffffff" d="M36.527 25.347c0.013-0.428 0.048-0.86 0.048-1.472 0-0.481-0.109-0.537-0.69-0.616v-0.402c0.458 0.048 1.013 0.091 1.568 0.091 0.55 0 1.104-0.044 1.654-0.091l2.691 7.123 2.406-7.123c0.537 0.048 1.062 0.091 1.594 0.091 0.542 0 1.075-0.043 1.599-0.091v0.402c-0.536 0.048-0.616 0.215-0.616 0.63 0 0.428 0.061 1.118 0.109 1.647l0.49 6.556c0.032 0.402 0.477 0.463 0.783 0.511v0.384c-0.659-0.048-1.336-0.091-1.997-0.091-0.676 0-1.331 0.043-1.965 0.091v-0.384c0.751-0.092 0.952-0.232 0.952-0.94 0-0.367-0.048-1.061-0.091-1.568l-0.354-4.578h-0.031l-2.563 7.551h-1.289l-2.93-7.643h-0.031l-0.121 4.504c-0.017 0.799-0.049 1.213-0.049 1.625 0 0.769 0.078 0.94 1 1.049v0.384c-0.616-0.048-1.183-0.091-1.765-0.091-0.567 0-1.136 0.043-1.612 0.091v-0.384c0.599-0.048 0.847-0.183 0.878-0.831l0.336-6.422z"></path>
<path fill="#ffffff" d="M9.419 32.421c-1.051 0.806-2.558 1.131-3.545 1.131-3.661 0-5.73-2.845-5.73-5.755 0-2.98 2.068-5.859 6.031-5.859 1.392 0 2.391 0.267 2.778 0.416 0 1.165 0.062 2.289 0.147 3.401h-0.444c-0.274-1.422-1.258-2.173-2.685-2.173-1.934 0-3.423 1.52-3.423 4.090 0 1.936 1.594 4.126 3.827 4.126 0.952 0 2.319-0.518 3.23-1.288l-0.195 1.909z"></path>
<path fill="#ffffff" d="M26.039 38.54c0-0.33-0.141-0.487-0.543-0.499v-0.324c0.52 0.036 0.983 0.072 1.422 0.072 0.5 0 1.22-0.036 1.563-0.072v0.324c-0.604 0.024-0.688 0.319-0.688 0.654v5.805h2.191c0.782 0 1.104-0.355 1.301-1.257h0.384c-0.142 0.77-0.274 1.531-0.282 2.301h-5.895v-0.323c0.402-0.013 0.543-0.165 0.543-0.5v-6.183z"></path>
<path fill="#ffffff" d="M33.583 38.579c0-0.33-0.141-0.487-0.544-0.5v-0.324h5.988c0.017 0.654 0.036 1.183 0.097 1.824h-0.328c-0.117-0.653-0.282-0.879-0.922-0.879h-2.533v2.294h1.574c0.532 0 0.616-0.178 0.688-0.604h0.324c-0.036 0.294-0.073 0.806-0.073 1.129 0 0.319 0.037 0.842 0.073 1.128h-0.324c-0.073-0.427-0.153-0.606-0.688-0.606h-1.574v2.465h2.662c0.641 0 0.841-0.213 1.044-1.213h0.392c-0.104 0.976-0.129 1.605-0.141 2.257h-6.262v-0.324c0.403-0.012 0.544-0.165 0.544-0.499v-6.145z"></path>
<path fill="#ffffff" d="M40.862 45.224c0.342-0.048 0.499-0.237 0.617-0.543l2.32-5.879c0.073-0.177 0.153-0.342 0.153-0.459 0-0.121-0.128-0.31-0.447-0.31v-0.323c0.378 0.036 0.745 0.072 1.112 0.072s0.745-0.036 1.117-0.072l2.18 6.745c0.177 0.519 0.354 0.672 0.708 0.769v0.322c-0.496-0.035-1.006-0.068-1.503-0.068-0.511 0-1.020 0.036-1.531 0.068v-0.322c0.44-0.085 0.593-0.178 0.593-0.451 0-0.164-0.061-0.439-0.121-0.592l-0.379-1.147h-2.314l-0.52 1.397c-0.061 0.165-0.093 0.294-0.093 0.415 0 0.213 0.165 0.354 0.556 0.379v0.322c-0.402-0.035-0.818-0.068-1.222-0.068-0.414 0-0.817 0.036-1.233 0.068v-0.323zM45.404 42.137c-0.249-0.769-0.451-1.526-0.685-2.722h-0.024c-0.275 0.946-0.653 1.881-0.959 2.722h1.671z"></path>
<path fill="#ffffff" d="M54.971 42.773c0-0.476-0.214-0.5-0.745-0.512v-0.396c0.483 0.036 0.971 0.072 1.471 0.072 0.531 0 1.055-0.035 1.586-0.072v0.372c-0.415 0.012-0.628 0.121-0.628 0.653v2.655h-0.69l-0.268-0.794c-0.751 0.702-1.533 0.947-2.339 0.947-2.227 0-3.65-1.838-3.65-3.974 0-2.575 1.72-4.132 4.28-4.132 0.818 0 1.697 0.152 2.338 0.551 0 0.586 0.024 1.251 0.073 2.070h-0.342c-0.154-1.056-1.159-1.575-2.143-1.575-1.647 0-2.452 1.258-2.452 2.789 0 1.471 0.83 3.132 2.204 3.132 0.842 0 1.306-0.391 1.306-0.939v-0.849z"></path>
<path fill="#ffffff" d="M59.664 38.54c0-0.33-0.141-0.487-0.544-0.499v-0.324c0.38 0.036 0.866 0.072 1.366 0.072 0.616 0 1.104-0.036 1.575-0.072v0.324c-0.512 0.024-0.636 0.117-0.636 0.58v4.431c0 1.343 0.555 1.605 1.519 1.605 0.958 0 1.519-0.288 1.519-1.605v-4.431c0-0.463-0.133-0.556-0.642-0.58v-0.324c0.477 0.036 0.959 0.072 1.575 0.072 0.5 0 0.984-0.036 1.366-0.072v0.324c-0.404 0.013-0.549 0.166-0.549 0.499v4.267c0 2.191-1.136 2.893-3.271 2.893s-3.273-0.702-3.273-2.73v-4.431h0.001z"></path>
<path fill="#ffffff" d="M69.265 38.579c0-0.33-0.141-0.487-0.544-0.5v-0.324h5.993c0.012 0.654 0.036 1.183 0.093 1.824h-0.323c-0.122-0.653-0.281-0.879-0.928-0.879h-2.533v2.258h1.575c0.531 0 0.616-0.177 0.688-0.605h0.323c-0.036 0.298-0.068 0.807-0.068 1.128 0 0.323 0.032 0.843 0.068 1.13h-0.323c-0.072-0.428-0.154-0.609-0.688-0.609h-1.575v2.498h2.668c0.636 0 0.842-0.213 1.043-1.213h0.396c-0.109 0.976-0.133 1.605-0.142 2.257h-6.262v-0.324c0.404-0.012 0.544-0.165 0.544-0.499v-6.145z"></path>
<path fill="#ffffff" d="M76.967 48.745c0.77 0 1.428-0.599 1.428-1.422 0-0.817-0.658-1.416-1.428-1.416-0.781 0-1.44 0.598-1.44 1.416 0 0.819 0.659 1.422 1.44 1.422zM75.809 47.324c0-0.671 0.506-1.178 1.159-1.178 0.636 0 1.142 0.507 1.142 1.178 0 0.683-0.506 1.183-1.142 1.183-0.653 0-1.159-0.5-1.159-1.183zM76.666 47.435h0.286l0.433 0.708h0.274l-0.464-0.719c0.239-0.031 0.421-0.159 0.421-0.452 0-0.322-0.189-0.464-0.575-0.464h-0.622v1.636h0.25v-0.708zM76.666 47.226v-0.507h0.34c0.171 0 0.355 0.038 0.355 0.239 0 0.255-0.189 0.268-0.397 0.268h-0.298z"></path>
</svg>
<svg id="client-hscic" width="198" height="50" viewBox="0 0 198 50" x="700" y="0">
<path fill="rgb(255, 255, 255)" d="M18.617 3.516c-2.587 0-4.685 2.060-4.685 4.601v33.744l0.009 4.624 59.724-0.024c2.588 0 4.685-2.060 4.685-4.601v-38.344h-59.734z"></path>
<path fill="rgb(0, 0, 0)" d="M23.021 27.689h0.053c0.504-1.061 1.779-2.096 3.743-2.096 3.424 0 4.645 2.415 4.645 5.016v8.042h-3.186v-6.45c0-1.406-0.105-3.743-2.336-3.743-2.098 0-2.919 1.539-2.919 3.239v6.953h-3.186v-20.067h3.186v9.105z"></path>
<path fill="rgb(0, 0, 0)" d="M40.223 29.442c-0.61-0.85-1.407-1.3-2.495-1.3-0.85 0-1.859 0.397-1.859 1.352 0 2.283 6.876 0.425 6.876 5.388 0 3.028-2.894 4.089-5.494 4.089-1.966 0-3.664-0.505-4.964-1.965l2.124-1.991c0.822 0.903 1.672 1.568 3.026 1.568 0.93 0 2.124-0.453 2.124-1.461 0-2.627-6.876-0.557-6.876-5.415 0-2.84 2.548-4.114 5.124-4.114 1.699 0 3.504 0.53 4.54 1.936l-2.124 1.912z"></path>
<path fill="rgb(0, 0, 0)" d="M52.382 29.734c-0.743-0.769-1.566-1.274-2.415-1.274-2.336 0-3.743 1.832-3.743 3.822s1.407 3.823 3.743 3.823c0.982 0 1.884-0.426 2.469-1.196l2.124 2.284c-1.301 1.3-3.478 1.779-4.592 1.779-3.849 0-6.928-2.682-6.928-6.69s3.079-6.689 6.928-6.689c1.619 0 3.398 0.584 4.618 1.937l-2.203 2.204z"></path>
<path fill="rgb(0, 0, 0)" d="M55.781 25.912h3.185v12.741h-3.185v-12.741zM57.346 19.673c1.168 0 2.071 0.823 2.071 1.911s-0.903 1.912-2.071 1.912c-1.168 0-2.017-0.903-2.017-1.912s0.849-1.911 2.017-1.911z"></path>
<path fill="rgb(0, 0, 0)" d="M69.531 29.734c-0.743-0.769-1.566-1.274-2.415-1.274-2.337 0-3.743 1.832-3.743 3.822s1.406 3.823 3.743 3.823c0.982 0 1.884-0.426 2.469-1.196l2.123 2.284c-1.3 1.3-3.476 1.779-4.591 1.779-3.85 0-6.929-2.682-6.929-6.69s3.079-6.689 6.929-6.689c1.619 0 3.398 0.584 4.618 1.937l-2.204 2.204z"></path>
<path fill="rgb(255, 255, 255)" d="M84.239 18.635h1.124v3.443h4.299v-3.443h1.123v8.292h-1.123v-3.795h-4.299v3.795h-1.124z"></path>
<path fill="rgb(255, 255, 255)" d="M96.033 23.694c-0.025-0.925-0.538-1.617-1.605-1.617-1.043 0-1.722 0.879-1.722 1.617h3.326zM92.707 24.538c0 0.972 0.902 1.615 1.874 1.615 0.643 0 1.113-0.328 1.522-0.831l0.797 0.608c-0.586 0.762-1.393 1.136-2.46 1.136-1.756 0-2.858-1.265-2.858-2.916 0-1.664 1.207-2.916 2.87-2.916 1.956 0 2.706 1.5 2.706 2.928v0.376h-4.451z"></path>
<path fill="rgb(255, 255, 255)" d="M100.941 24.256c-0.996 0-2.213 0.175-2.213 1.066 0 0.632 0.469 0.902 1.194 0.902 1.171 0 1.58-0.866 1.58-1.616v-0.352h-0.561zM97.965 22.055c0.586-0.551 1.429-0.82 2.201-0.82 1.64 0 2.32 0.889 2.32 1.851v2.834c0 0.386 0.011 0.715 0.047 1.008h-0.938c-0.023-0.282-0.035-0.562-0.035-0.844h-0.023c-0.468 0.716-1.102 0.984-1.945 0.984-1.031 0-1.921-0.585-1.921-1.664 0-1.428 1.37-1.92 3.058-1.92h0.771v-0.235c0-0.573-0.421-1.171-1.323-1.171-0.808 0-1.195 0.341-1.582 0.632l-0.632-0.654z"></path>
<path fill="rgb(255, 255, 255)" d="M103.506 18.073h1.054v8.855h-1.054v-8.855z"></path>
<path fill="rgb(255, 255, 255)" d="M109.057 22.289h-1.511v2.519c0 0.62 0 1.275 0.797 1.275 0.246 0 0.538-0.034 0.749-0.163v0.96c-0.247 0.141-0.739 0.188-0.95 0.188-1.628 0-1.651-0.995-1.651-1.886v-2.893h-1.218v-0.913h1.218v-1.557h1.055v1.557h1.511v0.913z"></path>
<path fill="rgb(255, 255, 255)" d="M109.865 18.073h1.054v4.158h0.023c0.271-0.585 0.973-0.996 1.829-0.996 1.076 0 2.013 0.644 2.013 2.12v3.572h-1.054v-3.28c0-1.043-0.596-1.428-1.265-1.428-0.878 0-1.546 0.562-1.546 1.851v2.858h-1.054v-8.855z"></path>
<path fill="rgb(255, 255, 255)" d="M122.058 19.479c-0.597 0-1.101 0.351-1.101 0.973 0 0.549 0.457 1.019 0.82 1.38 0.575-0.315 1.288-0.713 1.288-1.463-0.001-0.551-0.422-0.889-1.007-0.889zM121.507 23.015c-0.667 0.386-1.393 0.831-1.393 1.686 0 0.809 0.761 1.453 1.558 1.453 0.807 0 1.405-0.538 1.839-1.053l-2.004-2.086zM126.708 26.927h-1.511l-1.019-1.101c-0.703 0.843-1.429 1.312-2.542 1.312-1.873 0-2.716-1.194-2.716-2.4 0-1.16 0.878-1.897 1.885-2.378-0.527-0.562-0.973-1.113-0.973-1.921 0-1.265 1.030-1.944 2.214-1.944 1.16 0 2.143 0.621 2.143 1.874 0 1.043-0.889 1.699-1.72 2.132l1.639 1.709 1.043-1.699h1.276l-1.605 2.484 1.886 1.931z"></path>
<path fill="rgb(255, 255, 255)" d="M130.901 25.195c0.399 0.608 1.089 0.889 1.758 0.889 0.737 0 1.651-0.468 1.651-1.382 0-1.909-4.089-0.726-4.089-3.958 0-0.973 0.82-2.32 2.812-2.32 0.902 0 1.769 0.188 2.389 0.948l-0.914 0.832c-0.281-0.434-0.831-0.726-1.475-0.726-1.242 0-1.616 0.749-1.616 1.265 0 2.096 4.086 0.842 4.086 3.83 0 1.604-1.288 2.565-2.881 2.565-1.066 0-2.085-0.363-2.646-1.149l0.925-0.794z"></path>
<path fill="rgb(255, 255, 255)" d="M139.029 26.083c1.124 0 1.827-0.807 1.827-1.931s-0.703-1.933-1.827-1.933c-1.126 0-1.827 0.809-1.827 1.933s0.702 1.931 1.827 1.931zM139.029 21.235c1.652 0 2.952 1.3 2.952 2.916 0 1.615-1.3 2.916-2.952 2.916s-2.951-1.3-2.951-2.916c0-1.616 1.299-2.916 2.951-2.916z"></path>
<path fill="rgb(255, 255, 255)" d="M146.677 22.851c-0.386-0.409-0.797-0.62-1.382-0.62-1.149 0-1.734 0.925-1.734 1.967s0.703 1.884 1.792 1.884c0.586 0 0.995-0.21 1.347-0.62l0.75 0.751c-0.551 0.609-1.3 0.854-2.107 0.854-1.711 0-2.906-1.183-2.906-2.893s1.171-2.928 2.906-2.928c0.807 0 1.581 0.281 2.131 0.878l-0.797 0.727z"></path>
<path fill="rgb(255, 255, 255)" d="M148.306 21.376h1.054v5.552h-1.054v-5.552zM148.832 18.611c0.422 0 0.774 0.351 0.774 0.773 0 0.421-0.352 0.774-0.774 0.774s-0.772-0.352-0.772-0.774 0.351-0.773 0.772-0.773z"></path>
<path fill="rgb(255, 255, 255)" d="M153.412 24.256c-0.995 0-2.214 0.175-2.214 1.066 0 0.632 0.469 0.902 1.194 0.902 1.172 0 1.582-0.866 1.582-1.616v-0.352h-0.562zM150.437 22.055c0.585-0.551 1.429-0.82 2.201-0.82 1.64 0 2.32 0.889 2.32 1.851v2.834c0 0.386 0.012 0.715 0.046 1.008h-0.936c-0.024-0.282-0.036-0.562-0.036-0.844h-0.023c-0.469 0.716-1.101 0.984-1.944 0.984-1.031 0-1.921-0.585-1.921-1.664 0-1.428 1.37-1.92 3.057-1.92h0.773v-0.235c0-0.573-0.422-1.171-1.323-1.171-0.808 0-1.194 0.341-1.581 0.632l-0.633-0.654z"></path>
<path fill="rgb(255, 255, 255)" d="M156.165 18.073h1.053v8.855h-1.053v-8.855z"></path>
<path fill="rgb(255, 255, 255)" d="M167.983 20.428c-0.47-0.61-1.242-0.949-2.004-0.949-1.861 0-3.092 1.488-3.092 3.374 0 1.745 1.16 3.233 3.092 3.233 0.949 0 1.674-0.422 2.168-1.113l0.948 0.714c-0.247 0.34-1.242 1.453-3.138 1.453-2.636 0-4.264-2.202-4.264-4.287 0-2.577 1.769-4.428 4.322-4.428 1.088 0 2.237 0.41 2.904 1.289l-0.936 0.716z"></path>
<path fill="rgb(255, 255, 255)" d="M172.796 24.256c-0.996 0-2.214 0.175-2.214 1.066 0 0.632 0.469 0.902 1.194 0.902 1.171 0 1.582-0.866 1.582-1.616v-0.352h-0.562zM169.82 22.055c0.587-0.551 1.428-0.82 2.202-0.82 1.64 0 2.319 0.889 2.319 1.851v2.834c0 0.386 0.012 0.715 0.046 1.008h-0.936c-0.024-0.282-0.036-0.562-0.036-0.844h-0.023c-0.469 0.716-1.101 0.984-1.944 0.984-1.030 0-1.92-0.585-1.92-1.664 0-1.428 1.37-1.92 3.056-1.92h0.774v-0.235c0-0.573-0.422-1.171-1.324-1.171-0.807 0-1.194 0.341-1.582 0.632l-0.632-0.654z"></path>
<path fill="rgb(255, 255, 255)" d="M175.443 21.376h1.053v0.855h0.024c0.269-0.585 0.972-0.996 1.662-0.996 0.164 0 0.329 0.024 0.47 0.069l-0.047 1.137c-0.176-0.047-0.351-0.082-0.516-0.082-1.031 0-1.593 0.562-1.593 1.781v2.787h-1.053v-5.552z"></path>
<path fill="rgb(255, 255, 255)" d="M183.208 23.694c-0.023-0.925-0.538-1.617-1.605-1.617-1.043 0-1.72 0.879-1.72 1.617h3.325zM179.882 24.538c0 0.972 0.902 1.615 1.873 1.615 0.644 0 1.113-0.328 1.523-0.831l0.797 0.608c-0.586 0.762-1.394 1.136-2.461 1.136-1.755 0-2.858-1.265-2.858-2.916 0-1.664 1.207-2.916 2.869-2.916 1.957 0 2.706 1.5 2.706 2.928v0.376h-4.45z"></path>
<path fill="rgb(255, 255, 255)" d="M84.215 30.347h1.124v8.292h-1.124v-8.292z"></path>
<path fill="rgb(255, 255, 255)" d="M86.651 33.087h1.054v0.856h0.023c0.27-0.587 0.973-0.996 1.827-0.996 1.078 0 2.015 0.643 2.015 2.12v3.572h-1.053v-3.28c0-1.043-0.597-1.428-1.265-1.428-0.878 0-1.546 0.562-1.546 1.85v2.858h-1.054v-5.552z"></path>
<path fill="rgb(255, 255, 255)" d="M93.375 34.002h-1.194v-0.914h1.194v-1.242c0-1.474 0.515-2.201 1.897-2.201 0.235 0 0.493 0.012 0.785 0.082l-0.117 0.937c-0.199-0.081-0.386-0.105-0.597-0.105-0.774 0-0.902 0.48-0.902 1.253v1.275h1.253v0.914h-1.264v4.639h-1.054v-4.638z"></path>
<path fill="rgb(255, 255, 255)" d="M98.786 37.796c1.124 0 1.828-0.808 1.828-1.933 0-1.123-0.703-1.932-1.828-1.932s-1.828 0.809-1.828 1.932c0 1.125 0.702 1.933 1.828 1.933zM98.786 32.948c1.651 0 2.951 1.299 2.951 2.915s-1.3 2.918-2.951 2.918c-1.652 0-2.951-1.301-2.951-2.918 0-1.615 1.3-2.915 2.951-2.915z"></path>
<path fill="rgb(255, 255, 255)" d="M102.65 33.087h1.055v0.856h0.022c0.27-0.587 0.974-0.996 1.664-0.996 0.164 0 0.327 0.023 0.469 0.068l-0.047 1.137c-0.175-0.047-0.351-0.082-0.515-0.082-1.030 0-1.592 0.562-1.592 1.78v2.788h-1.055v-5.552z"></path>
<path fill="rgb(255, 255, 255)" d="M106.598 33.087h0.983v0.867h0.024c0.106-0.329 0.784-1.006 1.781-1.006 0.819 0 1.382 0.35 1.733 1.030 0.363-0.68 1.089-1.030 1.756-1.030 1.71 0 2.109 1.218 2.109 2.46v3.232h-1.054v-3.092c0-0.843-0.176-1.617-1.194-1.617s-1.417 0.69-1.417 1.674v3.034h-1.054v-2.904c0-1.054-0.153-1.804-1.172-1.804-0.761 0-1.44 0.574-1.44 1.826v2.882h-1.053v-5.552z"></path>
<path fill="rgb(255, 255, 255)" d="M119.095 35.969c-0.996 0-2.214 0.176-2.214 1.066 0 0.632 0.469 0.902 1.194 0.902 1.171 0 1.58-0.867 1.58-1.616v-0.352h-0.561zM116.121 33.767c0.585-0.55 1.428-0.819 2.201-0.819 1.64 0 2.32 0.889 2.32 1.851v2.833c0 0.386 0.011 0.714 0.046 1.008h-0.937c-0.023-0.282-0.035-0.562-0.035-0.844h-0.023c-0.47 0.714-1.101 0.983-1.944 0.983-1.031 0-1.92-0.584-1.92-1.663 0-1.429 1.37-1.921 3.056-1.921h0.772v-0.235c0-0.573-0.421-1.171-1.323-1.171-0.807 0-1.195 0.34-1.582 0.633l-0.63-0.655z"></path>
<path fill="rgb(255, 255, 255)" d="M124.88 34.002h-1.511v2.519c0 0.619 0 1.275 0.797 1.275 0.245 0 0.538-0.035 0.749-0.165v0.961c-0.247 0.141-0.739 0.187-0.95 0.187-1.628 0-1.651-0.995-1.651-1.886v-2.893h-1.219v-0.914h1.219v-1.557h1.054v1.557h1.511v0.915z"></path>
<path fill="rgb(255, 255, 255)" d="M125.678 33.087h1.053v5.551h-1.053v-5.551zM126.203 30.324c0.423 0 0.774 0.351 0.774 0.774s-0.351 0.774-0.774 0.774c-0.421 0-0.772-0.352-0.772-0.774s0.351-0.774 0.772-0.774z"></path>
<path fill="rgb(255, 255, 255)" d="M130.443 37.796c1.126 0 1.828-0.808 1.828-1.933 0-1.123-0.703-1.932-1.828-1.932s-1.825 0.809-1.825 1.932c0 1.125 0.701 1.933 1.825 1.933zM130.443 32.948c1.653 0 2.953 1.299 2.953 2.915s-1.299 2.918-2.953 2.918c-1.65 0-2.951-1.301-2.951-2.918 0-1.615 1.301-2.915 2.951-2.915z"></path>
<path fill="rgb(255, 255, 255)" d="M134.098 33.087h1.053v0.856h0.024c0.271-0.587 0.972-0.996 1.828-0.996 1.078 0 2.015 0.643 2.015 2.12v3.572h-1.054v-3.28c0-1.043-0.597-1.428-1.265-1.428-0.878 0-1.547 0.562-1.547 1.85v2.858h-1.053v-5.552z"></path>
<path fill="rgb(255, 255, 255)" d="M149.747 32.14c-0.47-0.61-1.242-0.949-2.004-0.949-1.862 0-3.092 1.486-3.092 3.372 0 1.746 1.16 3.233 3.092 3.233 0.95 0 1.675-0.421 2.168-1.113l0.948 0.716c-0.247 0.34-1.243 1.451-3.139 1.451-2.636 0-4.264-2.201-4.264-4.287 0-2.577 1.769-4.427 4.323-4.427 1.089 0 2.237 0.41 2.904 1.289l-0.936 0.716z"></path>
<path fill="rgb(255, 255, 255)" d="M155.426 35.408c-0.024-0.925-0.538-1.618-1.605-1.618-1.043 0-1.72 0.878-1.72 1.618h3.325zM152.101 36.249c0 0.973 0.902 1.618 1.874 1.618 0.643 0 1.112-0.329 1.522-0.831l0.797 0.608c-0.585 0.761-1.394 1.136-2.459 1.136-1.758 0-2.858-1.266-2.858-2.916 0-1.664 1.207-2.916 2.869-2.916 1.956 0 2.707 1.498 2.707 2.928v0.374h-4.451z"></path>
<path fill="rgb(255, 255, 255)" d="M157.312 33.087h1.054v0.856h0.023c0.271-0.587 0.972-0.996 1.828-0.996 1.078 0 2.015 0.643 2.015 2.12v3.572h-1.054v-3.28c0-1.043-0.597-1.428-1.265-1.428-0.878 0-1.546 0.562-1.546 1.85v2.858h-1.054v-5.552z"></path>
<path fill="rgb(255, 255, 255)" d="M166.342 34.002h-1.511v2.519c0 0.619 0 1.275 0.796 1.275 0.246 0 0.538-0.035 0.75-0.165v0.961c-0.246 0.141-0.737 0.187-0.949 0.187-1.628 0-1.651-0.995-1.651-1.886v-2.893h-1.218v-0.914h1.218v-1.557h1.054v1.557h1.511v0.915z"></path>
<path fill="rgb(255, 255, 255)" d="M167.174 33.087h1.054v0.856h0.023c0.27-0.587 0.972-0.996 1.663-0.996 0.164 0 0.328 0.023 0.47 0.068l-0.047 1.137c-0.176-0.047-0.352-0.082-0.516-0.082-1.030 0-1.592 0.562-1.592 1.78v2.788h-1.054v-5.552z"></path>
<path fill="rgb(255, 255, 255)" d="M174.939 35.408c-0.023-0.925-0.538-1.618-1.604-1.618-1.043 0-1.722 0.878-1.722 1.618h3.326zM171.613 36.249c0 0.973 0.902 1.618 1.874 1.618 0.643 0 1.112-0.329 1.522-0.831l0.797 0.608c-0.587 0.761-1.393 1.136-2.461 1.136-1.755 0-2.858-1.266-2.858-2.916 0-1.664 1.207-2.916 2.87-2.916 1.955 0 2.706 1.498 2.706 2.928v0.374h-4.451z"></path>
</svg>
<svg id="client-Internews" width="188" height="50" viewBox="0 0 188 50" x="1000" y="0">
<path fill="#ffffff" d="M31.874 34.261h1.598v5.922h3.539v1.344h-5.136z"></path>
<path fill="#ffffff" d="M39.954 40.581c0.987 0 1.281-0.845 1.281-1.679 0-0.844-0.293-1.689-1.281-1.689-0.978 0-1.272 0.844-1.272 1.689-0.001 0.834 0.294 1.679 1.272 1.679zM39.954 36.124c1.657 0 2.726 1.099 2.726 2.779 0 1.668-1.068 2.767-2.726 2.767-1.647 0-2.717-1.099-2.717-2.767 0-1.68 1.070-2.779 2.717-2.779z"></path>
<path fill="#ffffff" d="M46.638 38.117c-0.093-0.589-0.469-0.905-1.068-0.905-0.927 0-1.232 0.935-1.232 1.71 0 0.753 0.293 1.659 1.203 1.659 0.669 0 1.056-0.428 1.148-1.068h1.394c-0.183 1.392-1.149 2.155-2.535 2.155-1.586 0-2.654-1.118-2.654-2.696 0-1.638 0.976-2.849 2.686-2.849 1.241 0 2.38 0.651 2.473 1.994h-1.415z"></path>
<path fill="#ffffff" d="M51.816 38.95c-0.244 0.215-0.752 0.223-1.198 0.306-0.45 0.092-0.858 0.244-0.858 0.774 0 0.54 0.418 0.67 0.886 0.67 1.129 0 1.17-0.894 1.17-1.208v-0.541zM48.479 37.882c0.081-1.354 1.293-1.76 2.474-1.76 1.046 0 2.31 0.235 2.31 1.498v2.737c0 0.477 0.050 0.955 0.184 1.169h-1.467c-0.049-0.162-0.089-0.336-0.102-0.509-0.458 0.479-1.127 0.652-1.77 0.652-0.998 0-1.791-0.499-1.791-1.576 0-1.191 0.894-1.477 1.791-1.599 0.885-0.13 1.708-0.102 1.708-0.691 0-0.62-0.427-0.712-0.935-0.712-0.549 0-0.907 0.223-0.956 0.792h-1.447z"></path>
<path fill="#ffffff" d="M54.065 34.261h1.446v7.266h-1.446v-7.266z"></path>
<path fill="#ffffff" d="M61.269 41.526h-1.608l-1.799-5.261h1.515l1.109 3.592h0.021l1.109-3.592h1.435z"></path>
<path fill="#ffffff" d="M65.644 40.581c0.987 0 1.281-0.845 1.281-1.679 0-0.844-0.293-1.689-1.281-1.689-0.974 0-1.272 0.844-1.272 1.689-0.001 0.834 0.297 1.679 1.272 1.679zM65.644 36.124c1.657 0 2.728 1.099 2.728 2.779 0 1.668-1.070 2.767-2.728 2.767-1.647 0-2.717-1.099-2.717-2.767 0-1.68 1.069-2.779 2.717-2.779z"></path>
<path fill="#ffffff" d="M68.789 36.267h1.445v5.262h-1.445v-5.262zM70.234 35.452h-1.445v-1.191h1.445v1.191z"></path>
<path fill="#ffffff" d="M74.394 38.117c-0.091-0.589-0.465-0.905-1.068-0.905-0.925 0-1.23 0.935-1.23 1.71 0 0.753 0.296 1.659 1.201 1.659 0.671 0 1.057-0.428 1.149-1.068h1.394c-0.183 1.392-1.151 2.155-2.535 2.155-1.586 0-2.654-1.118-2.654-2.696 0-1.638 0.978-2.849 2.686-2.849 1.24 0 2.382 0.651 2.474 1.994h-1.417z"></path>
<path fill="#ffffff" d="M79.839 38.332c-0.134-0.733-0.447-1.121-1.15-1.121-0.915 0-1.179 0.712-1.201 1.121h2.351zM77.487 39.247c0.045 0.916 0.492 1.334 1.294 1.334 0.581 0 1.048-0.358 1.14-0.682h1.272c-0.407 1.24-1.272 1.768-2.463 1.768-1.659 0-2.687-1.138-2.687-2.765 0-1.578 1.090-2.779 2.687-2.779 1.791 0 2.655 1.506 2.554 3.124h-3.797z"></path>
<path fill="#ffffff" d="M82.901 39.817c0.012 0.632 0.54 0.885 1.109 0.885 0.418 0 0.948-0.162 0.948-0.672 0-0.437-0.603-0.589-1.639-0.814-0.836-0.181-1.668-0.477-1.668-1.404 0-1.342 1.158-1.69 2.289-1.69 1.151 0 2.211 0.388 2.319 1.68h-1.372c-0.041-0.559-0.47-0.712-0.987-0.712-0.326 0-0.803 0.060-0.803 0.488 0 0.52 0.814 0.59 1.637 0.784 0.847 0.194 1.67 0.498 1.67 1.473 0 1.384-1.2 1.832-2.404 1.832-1.221 0-2.41-0.457-2.471-1.851h1.373z"></path>
<path fill="#ffffff" d="M86.748 39.957h1.598v1.569h-1.598v-1.569z"></path>
<path fill="#ffffff" d="M96.222 40.702c-0.561 0.722-1.294 0.998-1.999 0.998-2.248 0-3.569-1.679-3.569-3.777 0-2.154 1.322-3.836 3.569-3.836 1.488 0 2.895 0.917 3.065 2.564h-1.525c-0.185-0.803-0.785-1.219-1.54-1.219-1.431 0-1.972 1.219-1.972 2.49 0 1.214 0.54 2.433 1.972 2.433 1.039 0 1.642-0.56 1.731-1.567h-1.608v-1.191h3.054v3.929h-1.016l-0.163-0.825z"></path>
<path fill="#ffffff" d="M98.228 34.261h1.445v7.266h-1.445v-7.266z"></path>
<path fill="#ffffff" d="M102.804 40.581c0.985 0 1.279-0.845 1.279-1.679 0-0.844-0.294-1.689-1.279-1.689-0.976 0-1.27 0.844-1.27 1.689 0.001 0.834 0.295 1.679 1.27 1.679zM102.804 36.124c1.655 0 2.726 1.099 2.726 2.779 0 1.668-1.070 2.767-2.726 2.767-1.646 0-2.714-1.099-2.714-2.767 0-1.68 1.068-2.779 2.714-2.779z"></path>
<path fill="#ffffff" d="M108.528 37.213c-0.851 0-1.229 0.803-1.229 1.689 0 0.876 0.379 1.679 1.229 1.679 0.858 0 1.235-0.803 1.235-1.679-0.001-0.885-0.378-1.689-1.235-1.689zM105.905 34.261h1.445v2.646h0.021c0.357-0.54 1.009-0.785 1.658-0.785 1.048 0 2.176 0.844 2.176 2.768 0 1.933-1.129 2.778-2.176 2.778-0.772 0-1.414-0.232-1.729-0.814h-0.019v0.674h-1.374v-7.267z"></path>
<path fill="#ffffff" d="M115.042 38.95c-0.244 0.215-0.752 0.223-1.2 0.306-0.446 0.092-0.854 0.244-0.854 0.774 0 0.54 0.417 0.67 0.885 0.67 1.128 0 1.17-0.894 1.17-1.208v-0.541zM111.705 37.882c0.081-1.354 1.292-1.76 2.472-1.76 1.048 0 2.31 0.235 2.31 1.498v2.737c0 0.477 0.052 0.955 0.185 1.169h-1.466c-0.052-0.162-0.091-0.336-0.102-0.509-0.457 0.479-1.126 0.652-1.77 0.652-0.999 0-1.791-0.499-1.791-1.576 0-1.191 0.896-1.477 1.791-1.599 0.885-0.13 1.71-0.102 1.71-0.691 0-0.62-0.426-0.712-0.937-0.712-0.549 0-0.902 0.223-0.955 0.792h-1.445z"></path>
<path fill="#ffffff" d="M117.291 34.261h1.447v7.266h-1.447v-7.266z"></path>
<path fill="#ffffff" d="M125.167 38.117c-0.091-0.589-0.468-0.905-1.070-0.905-0.925 0-1.229 0.935-1.229 1.71 0 0.753 0.294 1.659 1.2 1.659 0.672 0 1.057-0.428 1.149-1.068h1.394c-0.183 1.392-1.15 2.155-2.533 2.155-1.586 0-2.655-1.118-2.655-2.696 0-1.638 0.976-2.849 2.689-2.849 1.239 0 2.38 0.651 2.473 1.994h-1.417z"></path>
<path fill="#ffffff" d="M127.070 34.261h1.445v2.736h0.030c0.366-0.589 0.999-0.875 1.536-0.875 1.539 0 1.924 0.866 1.924 2.169v3.235h-1.444v-2.971c0-0.866-0.257-1.293-0.927-1.293-0.785 0-1.12 0.437-1.12 1.505v2.759h-1.445v-7.265z"></path>
<path fill="#ffffff" d="M136.024 38.95c-0.244 0.215-0.755 0.223-1.203 0.306-0.446 0.092-0.853 0.244-0.853 0.774 0 0.54 0.417 0.67 0.883 0.67 1.131 0 1.173-0.894 1.173-1.208v-0.541zM132.685 37.882c0.080-1.354 1.292-1.76 2.476-1.76 1.048 0 2.31 0.235 2.31 1.498v2.737c0 0.477 0.048 0.955 0.183 1.169h-1.466c-0.052-0.162-0.091-0.336-0.102-0.509-0.459 0.479-1.129 0.652-1.771 0.652-0.998 0-1.792-0.499-1.792-1.576 0-1.191 0.896-1.477 1.792-1.599 0.886-0.13 1.71-0.102 1.71-0.691 0-0.62-0.429-0.712-0.938-0.712-0.549 0-0.905 0.223-0.956 0.792h-1.445z"></path>
<path fill="#ffffff" d="M138.027 36.264h1.372v0.733h0.033c0.365-0.589 0.996-0.875 1.605-0.875 1.538 0 1.924 0.865 1.924 2.167v3.234h-1.445v-2.97c0-0.864-0.255-1.293-0.927-1.293-0.783 0-1.118 0.437-1.118 1.506v2.757h-1.446v-5.26z"></path>
<path fill="#ffffff" d="M147.183 38.831c0-0.855-0.294-1.619-1.229-1.619-0.816 0-1.17 0.712-1.17 1.497 0 0.752 0.283 1.574 1.17 1.574 0.82 0 1.229-0.701 1.229-1.451zM148.559 41.19c0 0.864-0.309 2.329-2.726 2.329-1.037 0-2.251-0.49-2.32-1.69h1.435c0.13 0.54 0.571 0.722 1.079 0.722 0.803 0 1.165-0.549 1.157-1.303v-0.692h-0.017c-0.318 0.55-0.949 0.814-1.582 0.814-1.574 0-2.246-1.201-2.246-2.646 0-1.363 0.783-2.604 2.258-2.604 0.693 0 1.22 0.233 1.57 0.844h0.017v-0.7h1.374v4.924z"></path>
<path fill="#ffffff" d="M152.699 38.332c-0.131-0.733-0.448-1.121-1.151-1.121-0.916 0-1.178 0.712-1.2 1.121h2.351zM150.348 39.247c0.041 0.916 0.49 1.334 1.295 1.334 0.579 0 1.046-0.358 1.138-0.682h1.274c-0.408 1.24-1.274 1.768-2.466 1.768-1.657 0-2.684-1.138-2.684-2.765 0-1.578 1.087-2.779 2.684-2.779 1.795 0 2.655 1.506 2.554 3.124h-3.794z"></path>
<path fill="#ffffff" d="M154.5 39.957h1.598v1.569h-1.598v-1.569z"></path>
<path fill="#ffffff" d="M31.795 8.473h4.398v20.008h-4.398v-20.008z"></path>
<path fill="#ffffff" d="M38.798 13.994h3.782v2.016h0.085c1.006-1.625 2.747-2.411 4.426-2.411 4.231 0 5.296 2.383 5.296 5.97v8.911h-3.978v-8.182c0-2.383-0.704-3.559-2.551-3.559-2.155 0-3.079 1.206-3.079 4.149v7.593h-3.979v-14.487z"></path>
<path fill="#ffffff" d="M59.733 13.994h2.911v2.663h-2.911v7.172c0 1.344 0.335 1.681 1.679 1.681 0.423 0 0.811-0.027 1.232-0.112v3.111c-0.674 0.111-1.539 0.137-2.323 0.137-2.439 0-4.568-0.559-4.568-3.445v-8.544h-2.41v-2.663h2.41v-4.343h3.981v4.343z"></path>
<path fill="#ffffff" d="M73.992 19.682c-0.362-2.016-1.232-3.083-3.167-3.083-2.519 0-3.249 1.965-3.305 3.083h6.472zM67.519 22.205c0.111 2.519 1.347 3.671 3.559 3.671 1.594 0 2.884-0.982 3.14-1.878h3.501c-1.122 3.418-3.501 4.876-6.784 4.876-4.563 0-7.395-3.14-7.395-7.621 0-4.347 2.996-7.654 7.395-7.654 4.934 0 7.317 4.148 7.037 8.605h-10.453z"></path>
<path fill="#ffffff" d="M79.778 14.053h3.782v2.689h0.058c0.727-1.821 2.689-3.082 4.619-3.082 0.281 0 0.619 0.056 0.871 0.141v3.699c-0.363-0.086-0.952-0.141-1.429-0.141-2.914 0-3.924 2.103-3.924 4.653v6.529h-3.978v-14.487z"></path>
<path fill="#ffffff" d="M90.589 14.067h3.784v2.016h0.081c1.012-1.625 2.75-2.408 4.431-2.408 4.229 0 5.292 2.38 5.292 5.972v8.908h-3.976v-8.181c0-2.384-0.702-3.56-2.549-3.56-2.159 0-3.082 1.205-3.082 4.148v7.594h-3.981v-14.488z"></path>
<path fill="#ffffff" d="M116.154 19.682c-0.363-2.016-1.235-3.083-3.166-3.083-2.521 0-3.252 1.965-3.306 3.083h6.473zM109.681 22.205c0.111 2.519 1.344 3.671 3.558 3.671 1.596 0 2.886-0.982 3.136-1.878h3.504c-1.12 3.418-3.504 4.876-6.781 4.876-4.565 0-7.395-3.14-7.395-7.621 0-4.347 2.995-7.654 7.395-7.654 4.93 0 7.313 4.148 7.034 8.605h-10.452z"></path>
<path fill="#ffffff" d="M138.086 28.481h-4.089l-2.577-9.722h-0.059l-2.466 9.722h-4.117l-4.596-14.488h4.206l2.661 9.837h0.056l2.411-9.837h3.865l2.468 9.808h0.054l2.662-9.808h4.091z"></path>
<path fill="#ffffff" d="M146.575 23.772c0.032 1.738 1.483 2.441 3.052 2.441 1.149 0 2.604-0.448 2.604-1.849 0-1.206-1.651-1.625-4.507-2.242-2.299-0.505-4.596-1.318-4.596-3.869 0-3.698 3.193-4.652 6.303-4.652 3.167 0 6.082 1.068 6.388 4.623h-3.782c-0.111-1.54-1.288-1.959-2.717-1.959-0.899 0-2.214 0.168-2.214 1.345 0 1.43 2.24 1.624 4.513 2.156 2.323 0.536 4.592 1.376 4.592 4.064 0 3.81-3.306 5.045-6.607 5.045-3.365 0-6.645-1.261-6.811-5.102h3.782z"></path>
</svg>
<svg id="client-Parity" width="231" height="50" viewBox="0 0 231 50" x="1300" y="0">
<path fill="#ffffff" d="M90.599 25.546h2.56l-1.28-2.974z"></path>
<path fill="#ffffff" d="M112.492 21.668h-2.542v2.956h2.334c0 0 1.299-0.433 1.318-1.478s-1.11-1.478-1.11-1.478z"></path>
<path fill="#ffffff" d="M74.505 21.97c-0.96 0-2.541 0-2.541 0v2.899h3.013c0 0 0.903-0.509 0.903-1.318-0.001-0.81-0.415-1.581-1.374-1.581z"></path>
<path fill="#ffffff" d="M165.199 11.334h-35.929v4.254h-5.823v-4.254h-57.35c-7.548 0-13.666 6.118-13.666 13.667s6.118 13.665 13.666 13.665h99.103c7.547 0 13.665-6.118 13.665-13.665 0-7.548-6.118-13.667-13.665-13.667zM76.236 27.975h-4.316v4.217h-5.823v-13.653h10.341c0 0 5.12 0.301 5.12 5.12s-4.918 4.316-5.321 4.316zM95.913 32.191l-1.405-2.71h-5.221l-1.405 2.71h-5.622l5.622-13.653h7.53l5.823 13.653h-5.321zM113.558 32.191c0 0 0.050-4.719-1.883-4.568h-1.933v4.568h-5.497v-13.653h10.943c0 0 3.715 0.1 3.715 3.413s-2.309 3.413-2.309 3.413l0.176 0.428c0 0 2.334 1.355 2.334 6.4h-5.547zM129.27 32.191h-5.823v-13.754h5.823v13.754zM148.697 22.579h-4.995v9.613h-5.948v-9.538h-5.069v-4.116l16.013-0.1v4.142zM162.601 27.522v4.594h-5.898v-4.568l-5.622-9.111h5.973l2.649 5.146 2.573-5.146h6.049l-5.723 9.085z"></path>
</svg>
<svg id="client-Bank" width="214" height="50" viewBox="0 0 214 50" x="1600" y="0">
<path fill="#ffffff" d="M208.133 28.52c3.138 0 4.273-1.921 4.273-4.127 0-2.373-1.408-4.008-4.308-4.008h-1.271v8.136h1.306zM205.047 18.945h3.205c3.968 0 6.055 2.223 6.055 5.431 0 3.274-2.256 5.579-6.19 5.579h-3.071v-11.010zM191.040 18.945h1.747l4.9 6.248c0.577 0.736 1.018 1.336 1.374 1.872h0.033c-0.017-0.585-0.033-1.203-0.033-1.887v-6.233h1.779v11.009h-1.576l-5.088-6.497c-0.561-0.703-0.985-1.304-1.374-1.822h-0.034c0.034 0.485 0.053 1.052 0.053 1.77v6.549h-1.781v-11.010zM184.495 25.696l-0.9-2.507c-0.321-0.902-0.475-1.403-0.593-1.77h-0.034c-0.118 0.385-0.289 0.886-0.611 1.77l-0.932 2.507h3.071zM182.29 18.896h1.324l4.426 11.058h-1.899l-1.085-2.823h-4.155l-1.068 2.823h-1.832l4.289-11.058zM170.249 18.945h1.781v9.574h4.019v1.435h-5.8v-11.010zM166.163 29.254c-0.917 0.468-2.374 0.869-3.918 0.869-3.562 0-5.749-2.304-5.749-5.479 0-3.358 2.39-5.797 6.019-5.797 1.306 0 2.39 0.268 3.189 0.567v1.638c-0.847-0.418-1.848-0.719-3.052-0.719-2.764 0-4.256 1.721-4.256 4.178 0 2.506 1.509 4.126 3.986 4.126 0.814 0 1.541-0.15 2-0.367v-3.609h1.781v4.594zM142.998 18.945h1.747l4.902 6.248c0.577 0.736 1.018 1.336 1.373 1.872h0.034c-0.017-0.585-0.034-1.203-0.034-1.887v-6.233h1.781v11.009h-1.578l-5.088-6.498c-0.559-0.702-0.983-1.303-1.373-1.821h-0.034c0.034 0.485 0.051 1.052 0.051 1.77v6.549h-1.781v-11.010zM132.418 18.945h6.749l-0.491 1.436h-4.476v3.225h4.441v1.437h-4.441v3.476h5.018v1.435h-6.799v-11.010zM117.886 18.945h6.458l-0.489 1.436h-4.188v3.225h4.119v1.437h-4.119v4.911h-1.781v-11.010zM112.289 24.492c0-2.489-1.391-4.16-3.68-4.16-2.204 0-3.679 1.587-3.679 4.16s1.476 4.143 3.679 4.143c2.205 0 3.68-1.571 3.68-4.143zM103.029 24.492c0-3.342 2.324-5.648 5.579-5.648 3.273 0 5.562 2.341 5.562 5.648 0 3.409-2.374 5.63-5.562 5.63-3.238 0-5.579-2.239-5.579-5.63zM88.298 18.945h1.781v4.812h0.033l3.968-4.812h2.069l-4.528 5.379 4.799 5.63h-2.17l-4.138-4.894h-0.033v4.894h-1.781v-11.009zM74.29 18.945h1.746l4.901 6.248c0.576 0.736 1.018 1.336 1.373 1.872h0.033c-0.017-0.585-0.033-1.203-0.033-1.887v-6.233h1.779v11.009h-1.576l-5.088-6.498c-0.561-0.702-0.985-1.303-1.374-1.821h-0.034c0.034 0.485 0.052 1.052 0.052 1.77v6.549h-1.78v-11.010zM67.745 25.696l-0.9-2.507c-0.322-0.902-0.475-1.403-0.593-1.77h-0.033c-0.12 0.385-0.289 0.886-0.61 1.77l-0.934 2.507h3.071zM65.541 18.896h1.322l4.427 11.058h-1.9l-1.085-2.823h-4.155l-1.068 2.823h-1.831l4.29-11.058zM54.805 28.502c1.391 0 2.221-0.5 2.221-1.737 0-1.053-0.796-1.688-2.034-1.688h-1.61v3.425h1.424zM54.431 23.623c1.255 0 1.916-0.634 1.916-1.62 0-0.918-0.576-1.605-1.916-1.605h-1.051v3.225h1.051zM51.6 18.945h3.052c2.391 0 3.46 1.336 3.46 2.79 0 1.019-0.508 1.905-1.408 2.306v0.033c1.307 0.302 2.137 1.354 2.137 2.673 0 1.755-1.322 3.207-3.882 3.207h-3.359v-11.009z"></path>
<path fill="#ffffff" d="M21.927 35.997c-3.236 0.406-4.836-0.605-7.364-2.666 0.207 1.223 1.1 2.173 1.841 2.706 0.677 0.489 2.104 0.84 3.045 0.84s1.82-0.524 2.478-0.879z"></path>
<path fill="#ffffff" d="M15.17 38.132c0.164 0.023 0.267-0.261 0.13-0.351-0.245-0.163-0.462-0.434-0.244-1.085-0.28 0.018-0.973-0.336-1.256-1.529-0.159 1.156 0.552 2.847 1.371 2.966z"></path>
<path fill="#ffffff" d="M17.286 37.39c-0.23-0.68-1.566-0.774-1.7-1.116-0.114 0.39-0.293 0.408-0.328 1.052 0.589-0.473 1.167 0.292 1.407 0.629s0.84 0.080 0.621-0.565z"></path>
<path fill="#ffffff" d="M18.546 38.131c-0.131-0.214-0.414-0.21-0.736-0.999-0.354 0.424-0.152 0.871 0.065 1.064s0.614 0.068 0.671-0.065z"></path>
<path fill="#ffffff" d="M16.343 25.86c-3.45 0-3.982 4.995-3.982 6.946 0 0.355-0.012 1.012-0.020 1.291l-0.843-3.296c-0.207 0-0.336 0.472-0.286 0.67l2.341 9.222c0.087 0.317 0.139 0.545 0.361 0.5 0.252-0.052 0.088-0.561 0.026-0.83l-0.951-3.732c0.219-0.436 0.407-1.004 0.504-1.56-0.217 0-0.675-0.064-0.74-0.323 0.696-0.021 0.801-0.21 0.813-0.317 0.258-2.374-0.035-5.29 0.977-6.847 1.018-1.565 3.179-1.32 3.986-1.406-0.415-0.256-1.505-0.317-2.187-0.317z"></path>
<path fill="#ffffff" d="M8.752 38.712c1.144 0.29 2.989-0.351 3.531-1.199-0.073-0.339-0.138-0.565-0.235-0.971-0.108 0.483-0.331 0.925-0.747 1.3-0.818-0.531-1.046 0.644-2.55 0.87z"></path>
<path fill="#ffffff" d="M14.964 24.328c-2.048 0.322-2.643-0.17-3.302-0.083-0.964 0.129-1.445 0.763-1.264 1.374 0.031-0.241 0.545-0.761 1.003-0.697-0.229 0.235-0.374 0.436-0.294 0.677-0.009-0.026 0.181 0.136 0.457-0.097 0.52-0.443 1.293-0.531 1.897-0.531 0.726 0 1.442-0.115 1.733-0.361 0.106-0.087-0.135-0.297-0.229-0.282z"></path>
<path fill="#ffffff" d="M34.005 15.338c-1.208 1.051-1.604 0.536-2.53 0.826-0.047 0.015-0.019-0.112-0.070-0.094 1.208-1.576 2.127-0.554 2.6-0.733z"></path>
<path fill="#ffffff" d="M32.928 17.089c0.011-0.553-0.66-1.292-1.689-0.897 0.792 0.795 1.286 0.708 1.689 0.897z"></path>
<path fill="#ffffff" d="M24.126 34.886c0.050-0.127 0.22-0.216 0.050-0.342-0.599-0.44-0.108-0.634-0.305-0.794-0.59-0.43-1.307 0.226-2.19-0.998 0.425 0.177 0.967 0.567 1.509 0.398-0.527-1.667-1.509-4.198-1.708-5.242-0.068-0.341-0.15-0.845-0.992-0.845-0.529 0-0.826 0.097-1.093 0.228 0.069-0.178 0.694-0.529 1.107-0.579-2.028-0.382-5.481-0.593-6.037 1.958-0.127 0.573 0.601 1.393 2.536 0.72 0.281-0.098 0.612 0.113 0.182 0.521s-1.867 1.384-3.122 0.522c0.28 0.422 1.155 0.715 1.851 0.715 0.693 0 1.844-0.12 2.383-1.585 0.148 0 0.997-0.033 1.586-0.902-0.184 1.225-0.61 1.644-1.046 1.965-0.295 0.63-0.976 2.021-2.956 2.021-0.5 0-0.774-0.016-1.229-0.314 0.985 1.25 5.427 4.672 9.079 2.804-0.044 0.193-0.479 0.621-0.953 0.805-0.926 0.358-1.577 1.406-4.431 1.558 0.063 0.902 1.532 0.697 1.864 0.584-0.556-0.080-0.846-0.184-0.882-0.327 1.046 0.058 2.18-0.064 3.488-0.645-0.131 0.291-0.207 0.495-0.5 0.624 1.732 0.138 2.31-1.27 2.721-1.413-0.088-0.349-0.806-1.343-0.908-1.436z"></path>
<path fill="#ffffff" d="M16.567 22.894c-0.16 0.404-0.948 0.87-0.784 1.513 0-0.193 0.929-1.006 1.144-1.416 0.447-0.856 0.196-1.127 0.031-1.902-0.016 0.666-0.123 1.125-0.391 1.804z"></path>
<path fill="#ffffff" d="M10.813 31.076c0.158 0.186 0.256 0.575 0.469 0.591-0.043-0.047 0.050-0.419-0.088-0.601-0.108-0.558-0.058-0.815 0.011-0.86 0.262-0.167 0.175 0.443 0.365 0.596 0.047 0.040 0.114 0.088 0.196 0.036-0.011-0.144-0.037-0.344-0.004-0.629-0.115-0.257-0.196-0.785-0.196-0.809-0.221-0.343-0.437-0.633-0.775-0.88-0.132-0.163-0.268-0.42-0.442-0.669-0.356-0.51-0.999-2.035-1.564-3.262-0.381-0.828-0.807-1.245-0.677-1.482 0.181-0.306 0.283-0.5 0.369-0.724-0.15-0.569-0.617-2.349-0.871-3.349-0.778 1.38-0.738 3.196-0.924 3.84-0.199 0.683 0.049 0.732 0.097 1.050 0.161 1.021 1.066 2.464 1.661 3.075 0.341 0.349 1.362 1.416 1.362 1.854 0.045 0.177 0.111 0.499 0.095 0.87 0.055 0.167 0.146 0.141 0.246 0.242 0.048 0.051 0.060 0.222 0.17 0.275 0.057 0.026 0.085 0.036 0.239 0.15 0.078 0.056 0.161 0.567 0.261 0.685z"></path>
<path fill="#ffffff" d="M18.578 24.825c-0.283 0.214-1.206-0.317-1.831-0.241-0.424 0.064-0.636 0.328-0.855 0.359-1.269-0.247-2.696 0.586-3.393 1.623-0.111 0.164-0.269 0.29-0.292 0.514-0.020 0.227 0.158 0.291 0.027 0.613-0.27 0.904-0.261 1.64-0.158 2.265 0.241-0.838 0.959-3.715 3.706-4.264-0.686-0.128-1.679 0.163-2.354 0.442 0.762-0.861 2.027-0.838 2.861-0.795 0.045-0.004-0.169-0.173-0.245-0.333 0.175 0 0.367 0.2 0.948 0.174 0.639-0.031 0.871-0.060 1.226-0.113-0.532 0.262-0.944 0.445-1.696 0.468 2.115 0.644 2.508-0.131 3.619-0.301-0.15-0.281-0.826-0.475-1.563-0.41z"></path>
<path fill="#ffffff" d="M9.531 30.534c-0.455-2.062-1.993-3.405-3.175-3.714-0.040-0.011-0.604 1.897-0.539 3.71 1.242-0.089 2.787-0.058 3.713 0.005z"></path>
<path fill="#ffffff" d="M6.070 32.87c0.382 1.922 0.906 3.098 1.307 3.82 0.968-0.475 2.154-1.598 2.347-3.931-1.353-0.061-2.678 0.040-3.654 0.111z"></path>
<path fill="#ffffff" d="M4.027 27.106c-0.993 0.561-2 1.856-2.11 4.007 0.425-0.108 1.031-0.252 1.604-0.337-0.022-0.794-0.001-2.092 0.506-3.67z"></path>
<path fill="#ffffff" d="M2.2 33.341c0.603 2.118 2 3.073 2.823 3.396-0.675-1.241-1.028-2.415-1.258-3.631-0.69 0.093-1.193 0.169-1.565 0.235z"></path>
<path fill="#ffffff" d="M12.643 25.622c-1.569 0.204-1.49 1.441-1.34 1.719 0.319-0.704 0.49-0.989 1.34-1.719z"></path>
<path fill="#ffffff" d="M9.637 21.107c0.33-0.227 0.33-0.783 0.28-1.041-0.247 0.375-0.361 0.733-0.28 1.041z"></path>
<path fill="#ffffff" d="M31.658 15.048c-1.063 0.049-1.536 0.375-1.706 1.479 1.733-0.644 1.292-1.307 1.706-1.479z"></path>
<path fill="#ffffff" d="M15.457 19.113c-0.104 0.618-0.633 0.624-0.85 0.902-0.084-0.112 0.031-0.456 0.097-0.602-0.605 0.404-0.98 1.034-0.98 1.547-0.164-0.268-0.447-1.18-1.255-1.461-0.243-0.084-0.115 0.159 0 0.408 0.116 0.251 0.335 0.859 0.329 1.44-0.006 0.394-0.235 0.766-0.365 0.821 0.167-1.273-0.595-2.756-0.77-2.756-0.328 0-0.806 1.955-0.121 3.406-1.405-1.686-0.576-3.153-0.576-3.535 0-0.44-0.051-0.655-0.414-0.966 0.175 1.268-0.381 1.75-0.582 2.796-0.099 0.521-0.098 0.93 0.075 1.171 0.17 0.243 0.488 0.527 0.605 0.673 0.115 0.146 0.579 0.772 0.948 0.772 0.305 0 0.305-0.437 0.159-0.593 0.163-0.021 0.359 0.014 0.475 0.132 0.239 0.248 0.073 0.468 0.164 0.461 0.462-0.031 1.084-1.658 1.227-2.163 0.493 1.295-0.453 2.392-0.312 2.388 0.413-0.010 1.177-0.944 1.42-1.31 0.011 0.067 0.014 0.136-0.009 0.216-0.076 0.28-0.14 0.644-0.018 0.644 0.397 0 0.605-1.23 0.644-1.707 0.038-0.478 0.696-0.731 0.65-1.513-0.019-0.281-0.28-0.889-0.183-1.16 0.288 0.161 0.511 0.275 0.702 0.378 0.251 0.134 0.88 0.341 1.116 0.404 0.706 0.182 1.689 0.442 1.945 0.512 0.292 0.079 0.408 0.159 0.618 0.159 1.092 0 2.702-0.855 2.862-0.977 0.173-0.132 0.623-0.362 0.919-0.54 0.285-0.2 0.803-0.507 1.113-0.603 0.16-0.058 0.282-0.026 0.389 0.027 0.353 0.173 0.547 0.259 0.948 0.302-0.308 0.399-0.809 0.968-1.089 1.536 0.047 0.058 0.184 0.119 0.234 0.153 0.443-0.74 0.909-1.37 1.368-1.861 0.031-0.033-0.187-0.072-0.154-0.217 0.023-0.022 0.449 0.217 0.736 0.13 0.019-0.018 0.138 0 0.122-0.153 0.139-0.047 0.177-0.167 0.164-0.193-0.344-0.057-0.608-0.107-0.722-0.099-0.034 0.008-0.149 0.062-0.129 0.144-0.065 0.005-0.161 0.031-0.167 0.097-0.639 0.257-1.303-0.465-1.83-0.31 0.177-0.337 1.037 0.024 1.435 0.031 0.546 0.010 0.637-0.208 1.373 0.019 0.449 0.097 0.545-0.1 0.213-0.233-0.257-0.103-0.698-0.186-0.88-0.278 0.324-0.004 0.644-0.053 1.067 0.117 0.087-0.004 0.066-0.042 0.084-0.065 0.087-0.118 1.431-0.998 3.225-1.437l0.029-0.174c-0.834 0.144-1.627 0.404-3.389 1.387-0.045-0.021-0.189-0.070-0.657-0.156-0.753 0.086-2.264 0.084-2.65 0.242-1.929 0.79-3.4 0.904-4.251 1.385-0.484 0.276-1.105-0.264-1.307-0.403-0.495-0.338-0.66-0.385-1.069-0.579-0.158-0.066-0.907-0.492-1.058-0.522-0.783 0.099-1.519 1.154-1.665 1.766z"></path>
<path fill="#ffffff" d="M10.992 18.276c0.429 0.486 1.242 0.977 2.126 0.686-1.275-0.273-2.262-2.855-3.699-2.942-0.306-0.021-0.763 0.085-1.22 0.686 1.633-0.622 2.395 1.112 2.794 1.569z"></path>
<path fill="#ffffff" d="M29.997 15.097c-0.241 0.011-1.373 0.322-1.068 1.89 1.188-0.774 0.916-1.653 1.068-1.89z"></path>
<path fill="#ffffff" d="M28.519 15.87c-1.014 0.53-0.738 1.075-0.756 1.449l0.251 0.097c0.752-0.742 0.41-1.365 0.505-1.547z"></path>
<path fill="#ffffff" d="M26.703 39.41c-0.601-0.138-0.999 0.027-1.547-0.344-0.287-0.194-1.224-0.693-1.832-0.837-1.169 0.426-1.632 0.28-2.18 0.264-0.675 0.359-1.444 0.241-2.112 0-0.63 0.457-1.168 0.25-1.442 0.036-1.068 0.623-0.913-0.274-1.634-0.291-1.058 0.667-1.936 0.225-2.357-0.034 0.097 0.407 0.23 0.869 0.343 1.342l12.888 0.006c0.001 0.001 0.2-0.068-0.127-0.142z"></path>
<path fill="#ffffff" d="M26.382 40.065c-0.246-0.001-12.306-0.001-12.306-0.001l0.212 0.849c0.099 0.488-0.091 0.759-0.466 0.747-0.347-0.010-0.509-0.167-0.63-0.619l-0.246-0.976c0 0-2.101 0.001-3.976 0.003 0.43 0.252 3.823 2.145 8.676 2.167 4.431 0.023 7.799-1.643 8.736-2.169z"></path>
<path fill="#ffffff" d="M6.661 18.36c-2.717 3.714-1.452 5.959-1.213 6.433-0.131-0.558-0.37-1.643 0-2.587 0 0.163 0.066 0.687 0.459 1.052-0.088-0.944-0.501-1.75 1.123-5.052 0.116-0.244-0.143-0.155-0.369 0.154z"></path>
<path fill="#ffffff" d="M11.363 33.751c-0.093-0.396-0.397-1.608-0.55-2.184-0.217-0.332-0.462-0.549-0.696-0.677 0.027 0.118 0.052 0.239 0.073 0.363 0.1 0.58 0.131 1.222 0.065 1.872-0.203 2.064-1.282 4.186-3.569 4.524-2.479 0.365-5.156-2.515-5.095-6.090 0.058-3.575 2.224-5.219 3.875-5.235 0.76-0.008 1.509 0.166 2.339 0.747-0.524-0.892-0.705-1.373-0.855-1.876-0.421-0.157-1.038-0.239-1.458-0.217-3.814 0.19-5.492 4.874-4.587 8.557 0.344 1.401 1.030 2.86 2.143 3.936 0.56 0.514 1.454 1.278 2.55 1.45 2.919 0.657 5.363-1.916 5.765-5.17z"></path>
<path fill="#ffffff" d="M6.594 13.239c0.054 0.15 3.341 13.186 3.417 13.488 0.058 0.229 0.179 0.445 0.306 0.421 0.091-0.019 0.227-0.166 0.139-0.475 0 0-1.373-5.316-1.422-5.542 0.408-0.644 0.5-1.59 0.881-2.075 0.231 0.312 0.259-0.016 0.266-0.258 0.041-1.628-0.864-1.885-1.055-1.897-0.801-0.048-0.941 0.856-0.941 0.856l-1.161-4.609c0.221-0.033 0.385 0.064 0.539 0.21-0.045-0.479-0.554-2.117-1.478-2.602-0.483 1.515-0.070 2.548 0.060 2.978 0.047-0.19 0.163-0.43 0.449-0.494z"></path>
<path fill="#ffffff" d="M12.48 38.233c-1.003 0.686-2.698 1.075-3.647 1.107-0.489 0.012-0.504 0.152-0.479 0.214 0.386 0.006 4.468-0.006 4.468-0.006s-0.255-0.994-0.343-1.315z"></path>
<path fill="#ffffff" d="M30.137 16.514c1.529-0.040 1.725 0.717 1.7 1.064-0.138-0.129-1.307-0.033-1.7-1.064z"></path>
<path fill="#ffffff" d="M25.467 14.273c0.622 0.891 4.968 3.566 5.358 3.702-0.457-1.139-1.494-1.004-1.755-0.946z"></path>
<path fill="#ffffff" d="M29.081 17.654c-0.231-0.111-0.725-0.239-0.982-0.097 0 0 0.11 1.008 1.7 0.815 0.023 0.057-0.48-0.601-0.718-0.719z"></path>
<path fill="#ffffff" d="M26.465 38.937c0.242 0 0.697 0.064 1.133-0.28 0.312 0.097 0.467-0.155 0.524-0.3-0.283-0.129-1.153-0.611-1.596-0.998-0.379-0.331-0.57-0.578-0.91-0.698-0.458 0.216-1.159 1.204-1.505 1.267 0.807 0.322 1.38 1.007 2.355 1.009z"></path>
<path fill="#ffffff" d="M26.804 30.812c-0.055 0.218-0.397 0.326-0.763 0.237s-0.619-0.337-0.566-0.556c0.228 0.022 0.433-0.063 0.762-0.237 0.105 0.232 0.367 0.388 0.566 0.556z"></path>
<path fill="#ffffff" d="M27.057 32.252c0.278 0.097 0.573 0.075 0.753-0.021 0.051 0.169-0.040 0.483-0.32 0.704-0.319 0.252-0.747 0.302-0.871 0.148 0.307-0.143 0.462-0.492 0.438-0.83z"></path>
<path fill="#ffffff" d="M25.92 33.455c0.32 0.149 0.516 0.41 0.459 0.655-0.070 0.306-0.51 0.468-0.98 0.362-0.472-0.105-0.796-0.438-0.725-0.745 0.034-0.152 0.16-0.267 0.333-0.333 0.111 0.083 0.567 0.16 0.914 0.060z"></path>
<path fill="#ffffff" d="M25.605 32.31c-0.016 0-0.030 0.001-0.047 0.003-0.436-0.16-0.537-0.383-0.515-0.663-0.227 0-0.702 0.037-0.66 0.395 0.027 0.224 0.289 0.424 0.592 0.482-0.080 0.075-0.126 0.164-0.124 0.261 0.004 0.256 0.346 0.461 0.765 0.455 0.421-0.006 0.759-0.219 0.755-0.476-0.003-0.257-0.346-0.461-0.766-0.456z"></path>
<path fill="#ffffff" d="M28.336 34.736c-0.177 0.284-0.65 0.317-1.054 0.072-0.405-0.244-0.587-0.675-0.408-0.958 0.177-0.286 0.648-0.319 1.053-0.072 0.403 0.244 0.587 0.673 0.41 0.958z"></path>
<path fill="#ffffff" d="M30.824 37.173c0 0.609-0.566 1.103-1.266 1.103s-1.268-0.493-1.268-1.103 0.567-1.103 1.268-1.103c0.698 0 1.266 0.494 1.266 1.103z"></path>
<path fill="#ffffff" d="M31.43 32.728c0.198 0.084 0.339 0.228 0.375 0.41 0.069 0.355-0.281 0.719-0.784 0.814s-0.965-0.113-1.034-0.467c-0.033-0.175 0.034-0.352 0.172-0.498 0.16 0.109 0.969 0.158 1.271-0.26z"></path>
<path fill="#ffffff" d="M31.936 35.122c-0.525-0.017-0.939-0.399-0.925-0.853 0.293 0.040 0.927-0.261 0.977-0.794 0.524 0.016 0.939 0.397 0.924 0.853-0.014 0.454-0.45 0.81-0.976 0.794z"></path>
<path fill="#ffffff" d="M28.723 35.174c1.218 0.106 1.53-0.415 1.639-0.902 0.065 0.028 0.125 0.060 0.18 0.097 0.28 0.184 0.449 0.461 0.421 0.757-0.047 0.478-0.589 0.817-1.216 0.758-0.51-0.045-0.916-0.343-1.024-0.709z"></path>
<path fill="#ffffff" d="M26.295 36.109c0.081-0.185 0.25-0.314 0.463-0.376 0.011 0.235 0.303 1.058 1.557 0.852-0.041 0.091-0.048 0.308 0.076 0.405-0.177 0.408-0.788 0.543-1.368 0.3s-0.906-0.772-0.729-1.18z"></path>
<path fill="#ffffff" d="M26.815 35.444c-0.089 0.278-0.527 0.39-0.98 0.251s-0.751-0.479-0.662-0.755c0.142 0.068 0.535 0.148 0.98-0.251 0.455 0.139 0.752 0.476 0.663 0.755z"></path>
<path fill="#ffffff" d="M28.8 36.155c-0.161 0.047-0.343 0.075-0.536 0.075-0.669 0-1.21-0.326-1.21-0.725 0.124-0.033 0.676 0.124 1.307-0.457-0.054 0.408 0.111 0.876 0.439 1.107z"></path>
<path fill="#ffffff" d="M29.67 30.471c-0.579 0.358-1.014 0.422-1.187 0.292 0.536-0.139 0.91-0.469 0.838-0.736-0.059-0.225-0.419-0.334-0.851-0.28-0.038 0.253-0.133 0.587-1.068 0.593-0.027 0.065-0.034 0.129-0.019 0.19 0.051 0.192 0.32 0.299 0.666 0.292-0.169 0.401-0.627 0.562-1.115 0.499-0.015 0.317 0.392 0.592 0.907 0.616s0.945-0.214 0.959-0.529c0.001-0.013 0-0.023 0-0.035 0.097 0.025 0.202 0.044 0.314 0.049 0.523 0.028 0.959-0.184 0.976-0.477 0.010-0.189-0.159-0.366-0.422-0.475z"></path>
<path fill="#ffffff" d="M25.2 30.932c0-0.26-0.439-0.472-0.98-0.472-0.019 0-0.054-0.002-0.087-0.006-0.083-1.136-0.167-2.376-0.154-3.095 0.008-0.387-0.065-0.795-0.591-0.987-0.479-0.175-2.208-0.827-2.753-0.949-0.678 0.006-1.272 0.387-1.8 0.755 0.154-0.005 0.197-0.026 0.333-0.022 0.737 0.019 0.962-0.010 1.648 0.183 0.447 0.126 0.865 0.354 0.978 0.548 0.148 0.26 0.668 0.684 0.878 0.684s0.514-0.198 0.908-0.475c-0.097 0.596-0.396 0.853-0.605 1.122s-0.327 0.859-0.174 1.568c0.131-0.324 0.138-1.007 0.696-1.311-0.253 0.455-0.261 1.744-0.261 2.256s0.393 1.267 1.025 2.47c0.060-0.259-0.001-0.799-0.064-1.8 0.008 0 0.015 0.002 0.022 0.002 0.539 0 0.979-0.212 0.979-0.472z"></path>
<path fill="#ffffff" d="M29.607 33.492c-0.193 0.256-0.373 0.721-1.061 0.85 0.177 0.281 0.653 0.359 1.108 0.169 0.102-0.044 0.195-0.097 0.278-0.158-0.263-0.356-0.311-0.565-0.324-0.861z"></path>
<path fill="#ffffff" d="M31.002 31.445c-0.479-0.2-0.954-0.164-1.061 0.084-0.047 0.106 0.025 0.353 0.181 0.484-0.213-0.009-0.343-0.042-0.548-0.323-0.212 0.097-0.428 0.045-0.544 0.033-0.047 0.139-0.021 0.291 0.061 0.431-0.243-0.091-0.562-0.050-0.838 0.133-0.406 0.266-0.563 0.733-0.355 1.043 0.211 0.31 0.708 0.344 1.113 0.076 0.359-0.235 0.524-0.63 0.41-0.93 0.074 0.044 0.157 0.083 0.246 0.112 0.418 0.136 0.837 0.033 0.994-0.228 0.463 0.177 0.913 0.136 1.017-0.101 0.108-0.247-0.194-0.61-0.675-0.813z"></path>
<path fill="#ffffff" d="M11.021 13.307c-1.22 0.88-0.35 1.939-1.353 2.465 1.166-0.037 0.852-1.693 1.353-2.465zM15.093 12.075c0.031-0.011-0.033-0.239-0.426-0.217 0.5-0.266 0.862 0.009 0.852 0.057-0.024 0.122-0.161 0.177-0.175 0.271-0.006 0.039 0.087 0.064 0.11 0.102-0.047-0.002-0.128 0.035-0.17 0.037-0.017 0.037-0.059 0.175-0.1 0.177-0.246-0.008-0.39-0.266-0.548-0.314 0.035 0.015 0.191-0.085 0.458-0.113zM14.573 10.876c0.49-0.161 0.458-0.436 0.273-0.784 0.855 0.412 0.74 0.88-0.273 0.784zM16.371 16.761c-0.644-0.462-0.658-0.938-0.969-0.785 0.393 0.838 0.316 1.44-0.929 2.056-0.085-0.225 0.231-0.354 0.482-0.596 0.282-0.271 0.379-0.673 0.217-1.309-0.033-0.131-0.305-0.794-0.915-0.784 0.347 0.493 0.707 1.024 0.382 1.864-0.001-0.71-0.154-0.936-0.644-1.509-0.141 0.174-0.485 0.386-0.517 0.784-0.414-0.214 0.566-1.293 0.362-1.773-0.278-0.144-0.408-0.472-0.446-0.793 0.278 0.282 0.727 0.529 1.272 0.611 0.251 0.038 0.507 0.011 0.556-0.161 0.050-0.173-0.038-0.206-0.027-0.28 0.006-0.042-0.009-0.138 0.154-0.135 0.055-0.148-0.006-0.193-0.089-0.252 0.166 0 0.22-0.103 0.231-0.139-0.031-0.058-0.070-0.097-0.034-0.179 0.065-0.16 0.407-0.062 0.433-0.234 0.015-0.097-0.052-0.179-0.097-0.281-0.074-0.167-0.077-0.164-0.213-0.492-0.069-0.165 0.019-0.322 0.049-0.572 0.031-0.29-0.106-0.669-0.106-0.669 0.436-0.281 0.389-0.703 0.204-0.767-0.458-0.13-1.152-0.988-2.051-1.053-0.687-0.049-1.587-0.048-1.995 0.467-0.3 0.378-0.945 0.959-1.062 1.579-0.13 0.677 0.033 1.39 0.491 1.712-0.152-0.559-0.161-0.873-0.149-1.197 0.014-0.344 0.179-1.691 1.463-2.278 0.711-0.186 1.627-0.171 1.92 0.313-0.539-0.161-1.127-0.097-1.602 0.097s-1.014 0.677-0.862 1.483c-0.371 0.011-0.434-0.371-0.437-0.375-0.105 0.269-0.255 1.129 0.412 1.573 0.154 0.103 0.362-0.001 0.292-0.111-0.274-0.439-0.059-0.796 0.036-0.832 0.241-0.090 0.472-0.324 0.507-0.626 0.197 0.371 0.098 0.629-0.131 0.854 0.703-0.161 0.344-0.461 1.259-0.591-0.566 0.322-0.373 0.747-0.974 0.937 1.039 0.371 0.867-1.256 1.988-1.13-0.974 0.098-0.867 2.588-3.063 3.028-0.305 1.347-0.84 1.439-1.624 1.772 1.596 0.461 2.256 2.503 3.957 2.202-0.175 0.301-0.414 0.3-0.633 0.3-0.019 0.43 0.038 0.779 0.366 0.762 1.49-0.322 1.847-1.916 3.244-2.159-0.055-0.171-0.468-0.138-0.709-0.331z"></path>
<path fill="#ffffff" d="M4.511 26.883c0.502-0.178 1.077-0.21 1.429-0.139-1.357 4.623 0.055 8.418 1.039 10.079-0.662 0.205-1.348 0.107-1.483 0.047-1.299-2.549-2.204-6.332-0.985-9.986z"></path>
<path fill="#ffffff" d="M1.919 31.538c0.021 0.473 0.109 1.107 0.174 1.396 1.723-0.311 3.897-0.538 7.659-0.609 0.037-0.379-0.070-1.222-0.132-1.431-2.306-0.204-6.321 0.125-7.701 0.644z"></path>
<path fill="#ffffff" d="M33.579 35.463c-0.319 0.431-0.918 1.126-1.332 1.531-0.534-0.131-0.908-0.438-0.908-0.795 0-0.476 0.661-0.86 1.477-0.86 0.28 0 0.541 0.045 0.763 0.124z"></path>
<path fill="#ffffff" d="M28.214 29.651c-0.009 0.2-0.419 0.346-0.916 0.323-0.495-0.020-0.891-0.202-0.881-0.401s0.418-0.344 0.915-0.323c0.496 0.020 0.891 0.2 0.882 0.401z"></path>
<path fill="#ffffff" d="M26.754 29.131c-0.061-0.149-0.552-0.089-1.096 0.131-0.54 0.221-0.93 0.521-0.869 0.668 0.061 0.149 0.552 0.090 1.096-0.132 0.54-0.22 0.93-0.519 0.869-0.667z"></path>
<path fill="#ffffff" d="M26.498 31.344c-0.12 0.182-0.131 0.386 0.081 0.634-0.145 0.073-0.342 0.118-0.556 0.118-0.453 0-0.824-0.2-0.824-0.446s0.37-0.445 0.824-0.445c0.084 0.063 0.191 0.149 0.475 0.138z"></path>
</svg>
</svg>
