<?xml version="1.0" encoding="utf-8"?>
<!-- Generated by IcoMoon.io -->
<!DOCTYPE svg PUBLIC "-//W3C//DTD SVG 1.1//EN" "http://www.w3.org/Graphics/SVG/1.1/DTD/svg11.dtd">
<svg version="1.1" xmlns="http://www.w3.org/2000/svg" xmlns:xlink="http://www.w3.org/1999/xlink" width="1881" height="40" viewBox="0 0 1881 40">
<svg id="client-NHS" width="99" height="40" viewBox="0 0 99 40" x="0" y="0">
<path fill="rgb(0, 0, 0)" d="M1 0h99.426v40h-99.426v-40z"></path>
<path fill="rgb(255, 255, 255)" d="M11.596 3.86h10.811l6.638 22.327h0.091l4.547-22.327h8.168l-6.866 32.198h-10.765l-6.777-22.279h-0.093l-4.502 22.279h-8.167z"></path>
<path fill="rgb(255, 255, 255)" d="M45.047 3.86h8.681l-2.555 12.317h10.258l2.551-12.317h8.677l-6.729 32.198h-8.677l2.876-13.793h-10.255l-2.879 13.793h-8.676z"></path>
<path fill="rgb(255, 255, 255)" d="M95.491 11.151c-1.672-0.786-3.946-1.477-7.147-1.477-3.435 0-6.218 0.506-6.218 3.089 0 4.568 12.578 2.862 12.578 12.64 0 8.903-8.308 11.21-15.826 11.21-3.342 0-7.194-0.785-10.024-1.659l2.042-6.552c1.717 1.109 5.152 1.846 7.981 1.846 2.691 0 6.914-0.505 6.914-3.83 0-5.166-12.574-3.228-12.574-12.314 0-8.303 7.331-10.795 14.43-10.795 3.992 0 7.749 0.417 9.931 1.43l-2.088 6.412z"></path>
</svg>
<svg id="client-Turner" width="159" height="40" viewBox="0 0 159 40" x="180" y="0">
<path fill="rgb(0, 0, 0)" d="M140.373 34.44h-120.575c-11.827-0.32-14.784-7.049-14.784-12.816 0-5.448 3.286-13.778 15.113-13.778h120.246c11.501 0 13.471 11.215 13.471 13.778s-1.642 12.816-13.471 12.816z"></path>
<path fill="rgb(255, 255, 255)" d="M137.778 21.592c0-1.751 1.456-3.171 3.251-3.171 1.798 0 3.254 1.421 3.254 3.171 0 1.752-1.455 3.171-3.254 3.171-1.795 0-3.251-1.419-3.251-3.171zM126.040 28.642h6.941l4.805-10.295h-6.939l-4.806 10.295z"></path>
<path fill="rgb(255, 255, 255)" d="M84.010 18.328l-4.763 10.312h6.898l2.712-5.847c1.231-2.563 4.927-2.243 3.942 0l-2.792 5.847h6.323l3.943-8.41c0.739-1.682-1.069-1.902-2.465-1.902h-7.229c0 0-0.52 0.023-0.894 0.115-0.69 0.19-1.262 0.487-1.461 0.745-0.407-0.473-0.809-0.861-1.478-0.861h-2.737z"></path>
<path fill="rgb(255, 255, 255)" d="M52.838 26.208c0.787-1.631 3.64-7.88 3.64-7.88h-6.899l-2.712 5.847c-1.232 2.563-4.928 2.243-3.942 0l2.792-5.847h-6.322l-3.943 8.41c-0.738 1.683 1.069 1.903 2.464 1.903h10.287c3.414 0.001 3.847-0.802 4.635-2.433z"></path>
<path fill="rgb(255, 255, 255)" d="M110.263 18.309h11.663c1.643 0.079 1.897 1.006 1.487 1.886l-1.978 4.281h-9.69l-1.152 2.403h9.691l-0.822 1.763h-14.035c-1.246-0.018-2.237-0.529-1.475-2.242 0.385-0.867 3.11-6.73 3.11-6.73 0.442-0.979 1.593-1.255 3.202-1.361zM116.505 21.592c0.328-0.8-0.657-0.881-1.313-0.881-0.41 0-1.647-0.128-2.136 0.961l-0.656 1.361h3.366c0 0 0.411-0.64 0.739-1.441z"></path>
<path fill="rgb(255, 255, 255)" d="M18.71 17.406c0 0 0.502-0.454 0.904-0.752 0.549-0.406 1.785-1.45 2.76-1.471 0.802-0.017 3.277 0 3.277 0l-6.262 13.458h7.514l6.263-13.458h110.059l0.738-1.602h-123.015c-1.633 0-2.874 1.042-3.45 1.602l-2.998 2.605c-0.565 0.569-0.912 1.346-0.912 2.202 0 1.752 1.457 3.171 3.253 3.171 1.797 0 3.253-1.419 3.253-3.171 0-1.055-0.528-1.99-1.339-2.567z"></path>
<path fill="rgb(255, 255, 255)" d="M63.658 18.347h6.941l-4.806 10.295h-6.939l4.805-10.295zM73.851 24.763c1.797 0 3.253-1.419 3.253-3.171 0-1.751-1.456-3.171-3.253-3.171s-3.253 1.421-3.253 3.171c0 1.752 1.456 3.171 3.253 3.171z"></path>
<path fill="rgb(255, 255, 255)" d="M151.51 12.070c-2.838-3.41-7.257-5.213-12.778-5.213h-118.605c-5.523 0-9.942 1.802-12.778 5.213-2.128 2.557-3.349 6.039-3.349 9.554 0 4.022 1.537 13.419 15.77 13.805h119.317c14.234-0.385 15.77-9.783 15.77-13.805 0-3.515-1.221-6.998-3.347-9.554zM139.059 33.453h-119.262c-11.978-0.323-13.771-7.55-13.771-11.829 0-5.899 3.693-12.79 14.099-12.79h118.603c10.407 0 14.099 6.89 14.099 12.79 0.002 4.278-1.791 11.504-13.769 11.829z"></path>
</svg>
<svg id="client-Champion" width="81" height="40" viewBox="0 0 81 40" x="450" y="0">
<path fill="#ffffff" d="M40.097-18.45c4.005 1.108 6.991 1.626 6.991 1.626-1.718-1.719-3.252-3.487-4.586-5.161 2.325-3.29 4.156-5.566 4.156-5.566-2.466 0.547-4.798 1.215-6.885 1.9-1.983-2.851-3.072-4.858-3.072-4.858-0.577 2.139-0.856 4.282-0.952 6.295-3.315 1.284-5.386 2.334-5.386 2.334 1.792 0.806 3.652 1.513 5.454 2.119 0.292 3.871 1.074 6.557 1.074 6.557 1.005-1.796 2.11-3.579 3.207-5.25z"></path>
<path fill="#ffffff" d="M58.381-19.465c-0.546 0.854-1.381 1.464-2.353 1.893-0.136-2.739-0.552-5.16-0.552-5.16-0.831 2.247-1.714 4.243-2.568 5.967-2.935 0.377-5.821-0.054-5.821-0.054 1.582 1.896 2.809 3.022 3.804 3.78-1.485 2.509-2.563 3.847-2.563 3.847 2.080-0.474 3.731-1.265 5.045-2.202 0.538 0.371 1.001 0.782 1.456 1.48 0 0 0.849-1.202 1.138-3.989 2.101-2.749 2.412-5.561 2.412-5.561z"></path>
<path fill="#ffffff" d="M57.422-27.052c-0.937-2.105-2.285-3.696-3.755-4.892-1.255-2.636-2.696-3.853-2.696-3.853 0.121 0.606 0.029 1.293-0.195 2.002-3.125-1.548-5.972-1.764-5.972-1.764 1.815 1.19 3.424 2.665 4.806 4.185-1.274 2.075-2.949 3.824-2.949 3.824 2.221-0.502 4.009-0.712 5.439-0.748 2.193 3.023 3.375 5.565 3.375 5.565 0.040-2.045-0.161-3.828-0.503-5.366 1.86 0.353 2.447 1.049 2.447 1.049z"></path>
<path fill="#ffffff" d="M44.802-35.559c-1.514-0.762-2.964-1.294-4.312-1.659 1.718-1.451 3.314-1.821 3.314-1.821-2.758-0.108-5.126 0.39-7.109 1.152-2.963-0.235-4.848 0.278-4.848 0.278 0.443 0.333 0.816 0.932 1.2 1.646-2.504 1.715-3.774 3.502-3.774 3.502 1.508-0.748 3.11-1.318 4.688-1.752 0.171 0.317 0.353 0.634 0.552 0.942 1.045 1.626 2.193 2.764 2.193 2.764 0.41-1.953 1.114-3.472 1.928-4.653 3.522-0.489 6.172-0.401 6.172-0.401z"></path>
<path fill="#ffffff" d="M25.782-29.547c0.943-0.913 2.094-1.896 3.486-2.911 0 0-1.284 0-2.642 0.346 0.898-2.174 1.894-3.38 1.894-3.38s-5.717 4.068-6.802 11.38c0 0 0.479-1.322 2.109-3.315 0.645 1.45 1.391 2.362 1.391 2.362 0.010-1.67 0.235-3.169 0.565-4.478z"></path>
<path fill="#ffffff" d="M30.365-21.875c-1.986 0.063-3.54 0.235-4.751 0.459-0.342-2.124-0.395-3.653-0.395-3.653-0.981 1.498-1.615 2.939-2.007 4.283-1.382 0.513-1.729 1.010-1.729 1.010 0.215 0.737 0.645 1.454 1.191 2.125-0.17 3.183 0.859 5.284 0.859 5.284 0.23-1.114 0.693-2.202 1.274-3.218 1.693 1.358 3.369 2.242 3.369 2.242-0.79-1.416-1.372-3.003-1.798-4.54 1.899-2.383 3.99-3.994 3.99-3.994z"></path>
<path fill="#ffffff" d="M40.181-5.616c0 0-1.665-0.664-4.048-2.007 0.084-1.435 0.307-3.258 0.758-5.575 0 0-1.894 1.876-4.346 3.33-1.425-0.986-2.92-2.139-4.374-3.472 0 0 0.708 2.187 2.070 4.595-1.293 0.484-2.627 0.709-3.847 0.41 0 0 1.441 1.798 5.883 2.563 1.231 1.461 2.733 2.671 4.483 3.091 0 0-0.528-0.58-0.645-2.754 1.211 0.016 2.56-0.035 4.063-0.181z"></path>
<path fill="#ffffff" d="M48.232-5.799c0.381-1.758 0.098-3.394 0.098-3.394-1.124 1.616-2.231 2.847-3.252 3.785-2.75 0.142-4.897-0.209-4.897-0.209s1.23 1.226 2.643 1.934c-1.87 1.157-3.124 1.26-3.124 1.26 8.182 0.172 13.091-5.171 13.091-5.171-1.378 0.909-2.974 1.466-4.561 1.793z"></path>
<path fill="#ffffff" d="M31.137 15.976c2.070-2.369 5.112-3.866 8.502-3.866 3.486 0 6.606 1.582 8.677 4.072l0.546-0.513c-2.203-2.623-5.511-4.293-9.207-4.293-3.599 0-6.83 1.582-9.034 4.092l0.517 0.509z"></path>
<path fill="#ffffff" d="M38.678 9.99l-3.305 0.688-0.83-4.003 3.257-0.678 0.155 0.733-2.14 0.445 0.172 0.84 2.045-0.425 0.152 0.733-2.042 0.425 0.199 0.962 2.188-0.454z"></path>
<path fill="#ffffff" d="M44.98 7.408l-1.968-0.416-0.19 0.893 1.969 0.415-0.152 0.732-1.973-0.415-0.346 1.64-1.118-0.235 0.844-3.998 3.086 0.65z"></path>
<path fill="#ffffff" d="M49.739 14.248l-0.977-0.927 0.155-0.879-1.684-1.168-0.742 0.468-1.113-0.621 3.968-2.368 1.085 0.753-0.694 4.742zM49.406 9.874l-1.504 0.951 1.191 0.83 0.313-1.778z"></path>
<path fill="#ffffff" d="M31.59 12.611c-0.733 0.58-1.973 1.055-2.885-0.014l-1.309-1.684 0.878-0.689 1.288 1.654c0.464 0.547 1.049 0.444 1.513 0.077 0.465-0.366 0.703-0.909 0.283-1.49l-1.289-1.655 0.878-0.689 1.313 1.685c0.781 1.075 0.298 2.045-0.663 2.808z"></path>
<path fill="#ffffff" d="M53.766 10.255c-3.521-3.702-8.495-6.011-14.004-6.011-5.577 0-10.604 2.363-14.13 6.144l-0.595-0.606c3.702-3.878 8.926-6.297 14.711-6.297 5.742 0 10.923 2.378 14.623 6.206l-0.605 0.566z"></path>
<path fill="#ffffff" d="M57.713 26.509c-2.446 0-3.931-2.051-3.931-4.301 0-2.334 1.733-4.029 3.994-4.029 2.505 0 4.017 1.991 4.017 4.179-0 2.593-1.88 4.155-4.078 4.154zM57.575 19.357c-1.519 0-1.973 1.45-1.973 2.433 0 1.436 0.639 3.538 2.393 3.538 1.251 0 1.978-1.118 1.978-2.457 0-1.425-0.553-3.515-2.398-3.515z"></path>
<path fill="#ffffff" d="M42.742 25.342c0 0.444 0.087 0.601 0.797 0.738v0.307c-0.771-0.038-1.254-0.073-1.708-0.073s-0.933 0.035-1.474 0.073v-0.307c0.479-0.087 0.567-0.297 0.567-0.874v-6.010c0-0.346-0.151-0.504-0.567-0.517v-0.342h3.637c2.274 0 3.095 1.083 3.095 2.509 0 1.524-1.156 2.457-2.739 2.457-0.601 0-1.485-0.307-1.485-0.566 0-0.112 0.073-0.112 0.186-0.112 0.108 0 0.269 0.039 0.426 0.039 1.29 0 1.793-0.724 1.793-1.747 0-1.104-0.689-1.499-1.768-1.499l-0.761 0.082v5.84z"></path>
<path fill="#ffffff" d="M49.465 19.125c0-0.346-0.147-0.504-0.566-0.517v-0.322c0.541 0.039 1.020 0.073 1.474 0.073s0.933-0.035 1.471-0.073v0.322c-0.415 0.014-0.566 0.171-0.566 0.517v6.439c0 0.342 0.148 0.504 0.566 0.517v0.308c-0.541-0.035-1.019-0.073-1.471-0.073-0.454 0-0.933 0.038-1.474 0.073v-0.307c0.419-0.014 0.566-0.172 0.566-0.517v-6.44z"></path>
<path fill="#ffffff" d="M64.253 19.116c0-0.342-0.147-0.503-0.566-0.514v-0.322c0.542 0.039 1.019 0.073 1.475 0.074 0.332 0 0.699 0 1.080-0.074l3.389 5.498 0.024-0.001v-4.487c0-0.639-0.401-0.688-0.738-0.688v-0.321c0.406 0.035 0.797 0.073 1.181 0.073 0.406 0 0.811-0.035 1.205-0.073v0.321c-0.419 0.014-0.566 0.171-0.566 0.514v7.274h-1.304l-4.078-6.348h-0.024v5.346c0 0.639 0.409 0.688 0.738 0.688v0.307c-0.406-0.038-0.797-0.073-1.181-0.073-0.406 0-0.811 0.038-1.202 0.073l-0.001-0.307c0.419-0.015 0.566-0.175 0.566-0.518v-6.44z"></path>
<path fill="#ffffff" d="M73.815 23.593c0.25 1.377 1.156 2.022 2.51 2.022 0.746 0 1.821-0.215 1.821-1.163 0-0.761-0.782-0.961-1.367-1.138l-0.898-0.264c-1.288-0.38-2.578-0.923-2.578-2.417 0-1.962 1.896-2.554 3.78-2.554 0.796 0 1.616 0.138 2.349 0.405 0 0.912 0.050 1.684 0.102 2.339l-0.313 0.001c-0.269-1.163-1.216-1.708-2.354-1.708-0.63 0-1.694 0.2-1.694 1.074 0 0.698 0.606 0.898 1.128 1.051l1.324 0.377c1.279 0.367 2.467 0.835 2.467 2.48 0 1.67-1.68 2.558-3.744 2.558-0.922 0-1.895-0.152-2.745-0.455 0-1.001-0.038-1.871-0.098-2.607l0.308 0z"></path>
<path fill="#ffffff" d="M9.951 19.122c0-0.346-0.147-0.504-0.566-0.517v-0.321c0.541 0.038 1.020 0.073 1.471 0.073 0.458 0 0.937-0.035 1.475-0.073v0.321c-0.415 0.011-0.565 0.171-0.565 0.517v2.436h2.973v-2.436c0-0.346-0.147-0.504-0.566-0.517v-0.321c0.541 0.038 1.021 0.073 1.475 0.073s0.933-0.035 1.474-0.073v0.322c-0.419 0.010-0.566 0.17-0.566 0.516l-0.001 6.441c0 0.343 0.151 0.504 0.566 0.517v0.313c-0.541-0.039-1.020-0.074-1.474-0.074s-0.936 0.038-1.474 0.074v-0.313c0.419-0.014 0.566-0.172 0.566-0.517v-2.827h-2.973v2.827c0 0.343 0.146 0.504 0.562 0.517v0.313c-0.541-0.039-1.016-0.074-1.474-0.074-0.454 0-0.933 0.038-1.474 0.074v-0.313c0.42-0.014 0.566-0.172 0.566-0.517v-6.441h0z"></path>
<path fill="#ffffff" d="M21.669 22.871c0.322-0.87 0.714-1.841 0.996-2.827h0.025c0.244 1.244 0.45 2.030 0.712 2.827h-1.733zM18.696 26.387c0.43-0.038 0.849-0.073 1.275-0.073 0.42 0 0.849 0.035 1.265 0.073v-0.307c-0.404-0.024-0.576-0.172-0.576-0.392 0-0.122 0.035-0.258 0.098-0.43l0.541-1.45h2.396l0.391 1.192c0.064 0.161 0.123 0.444 0.123 0.616 0 0.282-0.161 0.381-0.615 0.468v0.307c0.528-0.038 1.056-0.073 1.587-0.073 0.514 0 1.045 0.035 1.558 0.073v-0.307c-0.367-0.098-0.552-0.258-0.737-0.8l-2.261-6.993c-0.381 0.038-0.772 0.073-1.153 0.073s-0.761-0.035-1.153-0.073v0.321c0.332 0 0.468 0.195 0.468 0.318s-0.084 0.294-0.157 0.479l-2.408 6.109c-0.123 0.318-0.283 0.517-0.64 0.566v0.308h0z"></path>
<path fill="#ffffff" d="M29.221 20.278c0.010-0.342 0.038-0.688 0.038-1.177 0-0.385-0.087-0.43-0.552-0.493v-0.321c0.367 0.038 0.81 0.073 1.255 0.073 0.44 0 0.883-0.035 1.323-0.073l2.153 5.698 1.925-5.698c0.429 0.039 0.849 0.073 1.275 0.073 0.434 0 0.86-0.034 1.279-0.073v0.321c-0.429 0.038-0.493 0.172-0.493 0.504 0 0.342 0.049 0.894 0.087 1.317l0.392 5.245c0.025 0.322 0.381 0.371 0.626 0.409v0.307c-0.528-0.038-1.069-0.073-1.598-0.073-0.541 0-1.065 0.035-1.572 0.073v-0.307c0.6-0.074 0.762-0.186 0.762-0.752 0-0.294-0.038-0.849-0.072-1.254l-0.283-3.662h-0.025l-2.051 6.041h-1.031l-2.344-6.114h-0.025l-0.097 3.603c-0.014 0.639-0.039 0.971-0.039 1.3 0 0.616 0.063 0.752 0.8 0.839v0.307c-0.493-0.038-0.947-0.073-1.412-0.073-0.454 0-0.909 0.035-1.29 0.073v-0.307c0.479-0.038 0.678-0.147 0.702-0.665l0.269-5.137z"></path>
<path fill="#ffffff" d="M7.535 25.937c-0.841 0.645-2.047 0.904-2.836 0.904-2.929 0-4.584-2.276-4.584-4.604 0-2.384 1.655-4.687 4.825-4.687 1.114 0 1.913 0.214 2.222 0.332 0 0.932 0.050 1.831 0.118 2.72h-0.356c-0.219-1.138-1.006-1.739-2.148-1.739-1.547 0-2.739 1.216-2.739 3.272 0 1.549 1.275 3.301 3.062 3.301 0.762 0 1.855-0.414 2.584-1.031l-0.156 1.528z"></path>
<path fill="#ffffff" d="M20.831 30.832c0-0.264-0.113-0.39-0.435-0.399v-0.259c0.416 0.029 0.786 0.058 1.138 0.058 0.4 0 0.976-0.029 1.251-0.058v0.259c-0.483 0.020-0.551 0.255-0.551 0.523v4.644h1.753c0.625 0 0.883-0.284 1.041-1.005h0.307c-0.113 0.616-0.219 1.225-0.225 1.84h-4.716v-0.259c0.322-0.010 0.435-0.132 0.435-0.4v-4.946z"></path>
<path fill="#ffffff" d="M26.866 30.863c0-0.264-0.113-0.39-0.435-0.4v-0.259h4.791c0.014 0.523 0.029 0.947 0.078 1.46h-0.263c-0.093-0.522-0.225-0.703-0.738-0.703h-2.027v1.835h1.259c0.426 0 0.493-0.142 0.551-0.484h0.259c-0.029 0.235-0.058 0.645-0.058 0.903 0 0.255 0.029 0.674 0.058 0.902h-0.259c-0.058-0.342-0.122-0.484-0.551-0.484h-1.259v1.972h2.13c0.513 0 0.673-0.17 0.835-0.971h0.314c-0.083 0.781-0.103 1.284-0.113 1.806h-5.010v-0.259c0.323-0.010 0.435-0.132 0.435-0.399v-4.916z"></path>
<path fill="#ffffff" d="M32.69 36.179c0.274-0.038 0.399-0.189 0.494-0.435l1.856-4.703c0.059-0.142 0.122-0.274 0.122-0.367 0-0.097-0.102-0.248-0.357-0.248v-0.258c0.302 0.029 0.596 0.058 0.89 0.058s0.596-0.029 0.893-0.058l1.744 5.396c0.141 0.415 0.283 0.538 0.567 0.616v0.258c-0.396-0.028-0.805-0.055-1.202-0.055-0.409 0-0.816 0.029-1.225 0.055v-0.258c0.352-0.068 0.474-0.142 0.474-0.361 0-0.131-0.049-0.351-0.097-0.474l-0.303-0.917h-1.851l-0.416 1.117c-0.049 0.132-0.074 0.235-0.074 0.332 0 0.17 0.132 0.283 0.445 0.303v0.258c-0.322-0.028-0.654-0.055-0.977-0.055-0.331 0-0.654 0.029-0.986 0.055v-0.258zM36.323 33.709c-0.2-0.616-0.361-1.221-0.548-2.178h-0.020c-0.22 0.757-0.523 1.505-0.767 2.178h1.337z"></path>
<path fill="#ffffff" d="M43.977 34.219c0-0.381-0.171-0.4-0.596-0.41v-0.317c0.387 0.029 0.777 0.058 1.177 0.058 0.425 0 0.844-0.028 1.269-0.058v0.297c-0.332 0.010-0.503 0.097-0.503 0.522v2.124h-0.552l-0.215-0.635c-0.6 0.561-1.226 0.758-1.871 0.758-1.781 0-2.92-1.47-2.92-3.179 0-2.060 1.376-3.306 3.424-3.306 0.655 0 1.358 0.122 1.87 0.44 0 0.469 0.019 1.001 0.059 1.656h-0.273c-0.123-0.845-0.927-1.26-1.714-1.26-1.318 0-1.962 1.006-1.962 2.231 0 1.177 0.664 2.506 1.763 2.506 0.674 0 1.045-0.313 1.045-0.751v-0.679z"></path>
<path fill="#ffffff" d="M47.731 30.832c0-0.264-0.113-0.39-0.435-0.399v-0.259c0.304 0.029 0.693 0.058 1.093 0.058 0.493 0 0.883-0.029 1.26-0.058v0.259c-0.409 0.020-0.509 0.094-0.509 0.464v3.545c0 1.074 0.444 1.284 1.215 1.284 0.766 0 1.215-0.23 1.215-1.284v-3.545c0-0.371-0.106-0.445-0.513-0.464v-0.259c0.381 0.029 0.767 0.058 1.26 0.058 0.4 0 0.787-0.029 1.093-0.058v0.259c-0.323 0.010-0.439 0.133-0.439 0.399v3.414c0 1.753-0.909 2.315-2.617 2.315s-2.618-0.561-2.618-2.184v-3.545h0.001z"></path>
<path fill="#ffffff" d="M55.412 30.863c0-0.264-0.113-0.39-0.435-0.4v-0.259h4.794c0.010 0.523 0.029 0.947 0.074 1.46h-0.258c-0.098-0.522-0.225-0.703-0.743-0.703h-2.027v1.806h1.26c0.425 0 0.493-0.142 0.551-0.484h0.258c-0.029 0.238-0.054 0.646-0.054 0.902 0 0.258 0.025 0.674 0.054 0.904h-0.258c-0.058-0.342-0.123-0.487-0.551-0.487h-1.26v1.998h2.134c0.509 0 0.674-0.17 0.834-0.971h0.317c-0.087 0.781-0.106 1.284-0.113 1.806h-5.010v-0.259c0.323-0.010 0.435-0.132 0.435-0.399v-4.916z"></path>
<path fill="#ffffff" d="M61.573 38.996c0.616 0 1.142-0.479 1.142-1.137 0-0.653-0.526-1.133-1.142-1.133-0.625 0-1.152 0.479-1.152 1.133 0 0.655 0.527 1.137 1.152 1.137zM60.647 37.859c0-0.537 0.405-0.942 0.927-0.942 0.509 0 0.914 0.405 0.914 0.942 0 0.547-0.405 0.947-0.914 0.947-0.522 0-0.927-0.4-0.927-0.947zM61.333 37.948h0.229l0.346 0.567h0.219l-0.371-0.575c0.191-0.025 0.337-0.127 0.337-0.362 0-0.258-0.151-0.371-0.46-0.371h-0.498v1.309h0.2v-0.567zM61.333 37.78v-0.406h0.272c0.137 0 0.284 0.030 0.284 0.191 0 0.204-0.151 0.214-0.318 0.214h-0.238z"></path>
</svg>
<svg id="client-hscic" width="159" height="40" viewBox="0 0 159 40" x="630" y="0">
<path fill="rgb(255, 255, 255)" d="M4.352 0c-2.408 0-4.361 1.918-4.361 4.283v31.412l0.009 4.304 55.598-0.022c2.409 0 4.361-1.918 4.361-4.283v-35.695h-55.607z"></path>
<path fill="rgb(0, 0, 0)" d="M8.451 22.503h0.049c0.469-0.988 1.656-1.951 3.485-1.951 3.187 0 4.324 2.248 4.324 4.67v7.487h-2.966v-6.004c0-1.309-0.098-3.484-2.174-3.484-1.953 0-2.718 1.433-2.718 3.016v6.473h-2.966v-18.68h2.966v8.476z"></path>
<path fill="rgb(0, 0, 0)" d="M24.465 24.135c-0.568-0.791-1.31-1.21-2.323-1.21-0.791 0-1.73 0.37-1.73 1.259 0 2.125 6.401 0.396 6.401 5.016 0 2.819-2.694 3.807-5.115 3.807-1.83 0-3.411-0.47-4.622-1.829l1.977-1.854c0.765 0.841 1.556 1.46 2.817 1.46 0.866 0 1.977-0.422 1.977-1.36 0-2.445-6.401-0.518-6.401-5.041 0-2.644 2.372-3.83 4.77-3.83 1.581 0 3.262 0.494 4.226 1.802l-1.977 1.78z"></path>
<path fill="rgb(0, 0, 0)" d="M35.784 24.407c-0.692-0.716-1.458-1.186-2.248-1.186-2.174 0-3.484 1.705-3.484 3.558s1.31 3.559 3.484 3.559c0.914 0 1.754-0.396 2.298-1.114l1.977 2.126c-1.211 1.21-3.238 1.656-4.275 1.656-3.583 0-6.449-2.497-6.449-6.228 0-3.732 2.867-6.227 6.449-6.227 1.507 0 3.163 0.543 4.299 1.803l-2.051 2.052z"></path>
<path fill="rgb(0, 0, 0)" d="M38.948 20.849h2.965v11.86h-2.965v-11.86zM40.405 15.041c1.087 0 1.928 0.767 1.928 1.779s-0.841 1.78-1.928 1.78c-1.088 0-1.877-0.841-1.877-1.78s0.79-1.779 1.877-1.779z"></path>
<path fill="rgb(0, 0, 0)" d="M51.748 24.407c-0.691-0.716-1.458-1.186-2.248-1.186-2.175 0-3.485 1.705-3.485 3.558s1.309 3.559 3.485 3.559c0.914 0 1.754-0.396 2.298-1.114l1.976 2.126c-1.21 1.21-3.236 1.656-4.274 1.656-3.584 0-6.45-2.497-6.45-6.228 0-3.732 2.867-6.227 6.45-6.227 1.507 0 3.163 0.543 4.299 1.803l-2.052 2.052z"></path>
<path fill="rgb(255, 255, 255)" d="M65.439 14.075h1.047v3.205h4.002v-3.205h1.046v7.719h-1.046v-3.533h-4.002v3.533h-1.047z"></path>
<path fill="rgb(255, 255, 255)" d="M76.419 18.784c-0.023-0.861-0.501-1.506-1.494-1.506-0.971 0-1.603 0.819-1.603 1.506h3.097zM73.322 19.57c0 0.905 0.84 1.504 1.745 1.504 0.599 0 1.036-0.306 1.417-0.774l0.742 0.567c-0.546 0.709-1.297 1.058-2.29 1.058-1.635 0-2.66-1.178-2.66-2.715 0-1.549 1.123-2.715 2.671-2.715 1.821 0 2.519 1.396 2.519 2.725v0.35h-4.143z"></path>
<path fill="rgb(255, 255, 255)" d="M80.988 19.308c-0.927 0-2.060 0.163-2.060 0.992 0 0.589 0.436 0.84 1.111 0.84 1.090 0 1.471-0.806 1.471-1.504v-0.328h-0.522zM78.218 17.259c0.546-0.513 1.33-0.764 2.049-0.764 1.527 0 2.159 0.828 2.159 1.723v2.638c0 0.359 0.011 0.665 0.044 0.938h-0.873c-0.022-0.263-0.033-0.523-0.033-0.786h-0.021c-0.436 0.666-1.026 0.916-1.811 0.916-0.959 0-1.788-0.544-1.788-1.549 0-1.33 1.276-1.787 2.847-1.787h0.718v-0.219c0-0.534-0.392-1.090-1.231-1.090-0.752 0-1.113 0.317-1.472 0.589l-0.588-0.609z"></path>
<path fill="rgb(255, 255, 255)" d="M83.375 13.551h0.981v8.243h-0.981v-8.243z"></path>
<path fill="rgb(255, 255, 255)" d="M88.544 17.476h-1.406v2.345c0 0.577 0 1.187 0.742 1.187 0.229 0 0.501-0.032 0.698-0.152v0.894c-0.23 0.132-0.688 0.175-0.884 0.175-1.515 0-1.537-0.926-1.537-1.756v-2.693h-1.134v-0.85h1.134v-1.45h0.982v1.45h1.406v0.85z"></path>
<path fill="rgb(255, 255, 255)" d="M89.295 13.551h0.981v3.871h0.022c0.252-0.545 0.906-0.927 1.702-0.927 1.002 0 1.874 0.6 1.874 1.973v3.326h-0.981v-3.053c0-0.971-0.555-1.33-1.177-1.33-0.817 0-1.439 0.523-1.439 1.723v2.66h-0.981v-8.243z"></path>
<path fill="rgb(255, 255, 255)" d="M100.646 14.86c-0.556 0-1.025 0.327-1.025 0.905 0 0.511 0.426 0.948 0.763 1.285 0.536-0.293 1.199-0.663 1.199-1.362-0.001-0.513-0.392-0.828-0.937-0.828zM100.133 18.152c-0.621 0.36-1.297 0.774-1.297 1.57 0 0.753 0.708 1.352 1.45 1.352 0.751 0 1.308-0.501 1.712-0.98l-1.865-1.942zM104.974 21.794h-1.407l-0.949-1.025c-0.654 0.785-1.33 1.221-2.366 1.221-1.743 0-2.529-1.111-2.529-2.234 0-1.080 0.817-1.766 1.755-2.214-0.49-0.523-0.905-1.036-0.905-1.788 0-1.177 0.959-1.81 2.061-1.81 1.080 0 1.995 0.578 1.995 1.744 0 0.971-0.827 1.581-1.602 1.985l1.526 1.591 0.971-1.581h1.188l-1.494 2.312 1.756 1.798z"></path>
<path fill="rgb(255, 255, 255)" d="M108.878 20.181c0.371 0.567 1.014 0.827 1.636 0.827 0.686 0 1.537-0.436 1.537-1.286 0-1.777-3.806-0.676-3.806-3.685 0-0.906 0.764-2.159 2.618-2.159 0.84 0 1.646 0.175 2.223 0.883l-0.851 0.775c-0.261-0.404-0.773-0.676-1.373-0.676-1.156 0-1.504 0.697-1.504 1.177 0 1.952 3.804 0.784 3.804 3.565 0 1.493-1.199 2.388-2.682 2.388-0.992 0-1.941-0.338-2.463-1.070l0.861-0.739z"></path>
<path fill="rgb(255, 255, 255)" d="M116.445 21.008c1.047 0 1.701-0.752 1.701-1.798s-0.654-1.8-1.701-1.8c-1.048 0-1.701 0.753-1.701 1.8s0.653 1.798 1.701 1.798zM116.445 16.495c1.538 0 2.748 1.21 2.748 2.715 0 1.504-1.21 2.715-2.748 2.715s-2.747-1.21-2.747-2.715c0-1.504 1.209-2.715 2.747-2.715z"></path>
<path fill="rgb(255, 255, 255)" d="M123.564 18c-0.359-0.381-0.742-0.578-1.286-0.578-1.069 0-1.614 0.862-1.614 1.832s0.654 1.754 1.668 1.754c0.546 0 0.926-0.196 1.254-0.578l0.698 0.699c-0.513 0.567-1.21 0.795-1.962 0.795-1.593 0-2.705-1.101-2.705-2.693s1.090-2.726 2.705-2.726c0.751 0 1.472 0.261 1.984 0.817l-0.742 0.676z"></path>
<path fill="rgb(255, 255, 255)" d="M125.080 16.626h0.981v5.168h-0.981v-5.168zM125.57 14.053c0.392 0 0.72 0.327 0.72 0.72 0 0.392-0.328 0.72-0.72 0.72s-0.719-0.328-0.719-0.72 0.327-0.72 0.719-0.72z"></path>
<path fill="rgb(255, 255, 255)" d="M129.834 19.308c-0.926 0-2.061 0.163-2.061 0.992 0 0.589 0.437 0.84 1.111 0.84 1.092 0 1.473-0.806 1.473-1.504v-0.328h-0.523zM127.064 17.259c0.545-0.513 1.33-0.764 2.049-0.764 1.527 0 2.159 0.828 2.159 1.723v2.638c0 0.359 0.011 0.665 0.043 0.938h-0.872c-0.022-0.263-0.033-0.523-0.033-0.786h-0.022c-0.436 0.666-1.025 0.916-1.81 0.916-0.959 0-1.788-0.544-1.788-1.549 0-1.33 1.276-1.787 2.846-1.787h0.72v-0.219c0-0.534-0.393-1.090-1.232-1.090-0.752 0-1.112 0.317-1.472 0.589l-0.589-0.609z"></path>
<path fill="rgb(255, 255, 255)" d="M132.396 13.551h0.98v8.243h-0.98v-8.243z"></path>
<path fill="rgb(255, 255, 255)" d="M143.398 15.743c-0.437-0.568-1.156-0.884-1.865-0.884-1.733 0-2.878 1.385-2.878 3.14 0 1.624 1.080 3.009 2.878 3.009 0.883 0 1.559-0.393 2.018-1.036l0.883 0.664c-0.23 0.316-1.156 1.352-2.922 1.352-2.453 0-3.969-2.050-3.969-3.991 0-2.399 1.646-4.122 4.024-4.122 1.013 0 2.083 0.381 2.703 1.2l-0.871 0.666z"></path>
<path fill="rgb(255, 255, 255)" d="M147.878 19.308c-0.927 0-2.061 0.163-2.061 0.992 0 0.589 0.436 0.84 1.112 0.84 1.090 0 1.472-0.806 1.472-1.504v-0.328h-0.523zM145.108 17.259c0.546-0.513 1.33-0.764 2.050-0.764 1.527 0 2.159 0.828 2.159 1.723v2.638c0 0.359 0.011 0.665 0.043 0.938h-0.871c-0.022-0.263-0.034-0.523-0.034-0.786h-0.022c-0.436 0.666-1.025 0.916-1.81 0.916-0.959 0-1.787-0.544-1.787-1.549 0-1.33 1.275-1.787 2.845-1.787h0.72v-0.219c0-0.534-0.393-1.090-1.233-1.090-0.752 0-1.111 0.317-1.472 0.589l-0.589-0.609z"></path>
<path fill="rgb(255, 255, 255)" d="M150.343 16.626h0.98v0.796h0.022c0.25-0.545 0.905-0.927 1.548-0.927 0.153 0 0.306 0.022 0.437 0.065l-0.044 1.058c-0.164-0.044-0.327-0.076-0.48-0.076-0.959 0-1.483 0.523-1.483 1.658v2.594h-0.98v-5.168z"></path>
<path fill="rgb(255, 255, 255)" d="M157.571 18.784c-0.022-0.861-0.501-1.506-1.494-1.506-0.971 0-1.602 0.819-1.602 1.506h3.096zM154.475 19.57c0 0.905 0.84 1.504 1.744 1.504 0.6 0 1.036-0.306 1.418-0.774l0.742 0.567c-0.546 0.709-1.298 1.058-2.291 1.058-1.634 0-2.66-1.178-2.66-2.715 0-1.549 1.124-2.715 2.671-2.715 1.822 0 2.519 1.396 2.519 2.725v0.35h-4.142z"></path>
<path fill="rgb(255, 255, 255)" d="M65.417 24.978h1.047v7.719h-1.047v-7.719z"></path>
<path fill="rgb(255, 255, 255)" d="M67.685 27.529h0.981v0.797h0.022c0.251-0.547 0.905-0.927 1.701-0.927 1.003 0 1.875 0.599 1.875 1.973v3.326h-0.98v-3.053c0-0.971-0.556-1.33-1.177-1.33-0.817 0-1.439 0.523-1.439 1.722v2.661h-0.981v-5.169z"></path>
<path fill="rgb(255, 255, 255)" d="M73.944 28.38h-1.112v-0.851h1.112v-1.156c0-1.372 0.479-2.049 1.766-2.049 0.219 0 0.459 0.012 0.731 0.076l-0.109 0.872c-0.185-0.076-0.36-0.098-0.556-0.098-0.72 0-0.84 0.447-0.84 1.166v1.187h1.166v0.851h-1.177v4.318h-0.981v-4.318z"></path>
<path fill="rgb(255, 255, 255)" d="M78.981 31.912c1.047 0 1.701-0.752 1.701-1.8 0-1.045-0.654-1.798-1.701-1.798s-1.701 0.753-1.701 1.798c0 1.047 0.654 1.8 1.701 1.8zM78.981 27.399c1.537 0 2.747 1.209 2.747 2.714s-1.21 2.716-2.747 2.716c-1.538 0-2.747-1.211-2.747-2.716 0-1.504 1.21-2.714 2.747-2.714z"></path>
<path fill="rgb(255, 255, 255)" d="M82.579 27.529h0.982v0.797h0.020c0.251-0.547 0.906-0.927 1.549-0.927 0.153 0 0.305 0.022 0.436 0.064l-0.044 1.058c-0.163-0.044-0.327-0.076-0.479-0.076-0.959 0-1.482 0.523-1.482 1.657v2.595h-0.982v-5.168z"></path>
<path fill="rgb(255, 255, 255)" d="M86.254 27.529h0.915v0.808h0.023c0.098-0.306 0.73-0.937 1.658-0.937 0.762 0 1.286 0.326 1.613 0.958 0.338-0.633 1.014-0.958 1.635-0.958 1.592 0 1.963 1.134 1.963 2.29v3.009h-0.982v-2.878c0-0.785-0.164-1.505-1.112-1.505s-1.319 0.642-1.319 1.559v2.824h-0.981v-2.704c0-0.982-0.143-1.68-1.092-1.68-0.708 0-1.341 0.534-1.341 1.7v2.683h-0.98v-5.168z"></path>
<path fill="rgb(255, 255, 255)" d="M97.888 30.211c-0.927 0-2.061 0.164-2.061 0.993 0 0.588 0.436 0.84 1.112 0.84 1.090 0 1.471-0.807 1.471-1.504v-0.328h-0.522zM95.119 28.161c0.544-0.512 1.33-0.762 2.049-0.762 1.527 0 2.159 0.828 2.159 1.723v2.637c0 0.36 0.011 0.665 0.043 0.938h-0.872c-0.022-0.263-0.033-0.523-0.033-0.785h-0.022c-0.437 0.664-1.025 0.915-1.81 0.915-0.959 0-1.787-0.544-1.787-1.548 0-1.33 1.276-1.788 2.845-1.788h0.719v-0.219c0-0.533-0.392-1.090-1.231-1.090-0.752 0-1.113 0.316-1.473 0.589l-0.587-0.61z"></path>
<path fill="rgb(255, 255, 255)" d="M103.273 28.38h-1.406v2.345c0 0.576 0 1.187 0.742 1.187 0.228 0 0.501-0.033 0.698-0.153v0.895c-0.23 0.131-0.688 0.174-0.884 0.174-1.515 0-1.537-0.926-1.537-1.755v-2.693h-1.135v-0.851h1.135v-1.45h0.982v1.45h1.406v0.852z"></path>
<path fill="rgb(255, 255, 255)" d="M104.016 27.529h0.98v5.168h-0.98v-5.168zM104.505 24.956c0.394 0 0.72 0.327 0.72 0.72s-0.327 0.72-0.72 0.72c-0.392 0-0.719-0.328-0.719-0.72s0.327-0.72 0.719-0.72z"></path>
<path fill="rgb(255, 255, 255)" d="M108.451 31.912c1.048 0 1.702-0.752 1.702-1.8 0-1.045-0.654-1.798-1.702-1.798s-1.699 0.753-1.699 1.798c0 1.047 0.653 1.8 1.699 1.8zM108.451 27.399c1.539 0 2.749 1.209 2.749 2.714s-1.209 2.716-2.749 2.716c-1.536 0-2.747-1.211-2.747-2.716 0-1.504 1.211-2.714 2.747-2.714z"></path>
<path fill="rgb(255, 255, 255)" d="M111.854 27.529h0.98v0.797h0.022c0.252-0.547 0.905-0.927 1.701-0.927 1.003 0 1.875 0.599 1.875 1.973v3.326h-0.981v-3.053c0-0.971-0.556-1.33-1.177-1.33-0.817 0-1.44 0.523-1.44 1.722v2.661h-0.98v-5.169z"></path>
<path fill="rgb(255, 255, 255)" d="M126.422 26.646c-0.437-0.568-1.156-0.883-1.865-0.883-1.733 0-2.878 1.383-2.878 3.139 0 1.625 1.080 3.009 2.878 3.009 0.884 0 1.56-0.392 2.018-1.036l0.883 0.666c-0.23 0.316-1.157 1.351-2.922 1.351-2.453 0-3.969-2.049-3.969-3.99 0-2.399 1.646-4.121 4.024-4.121 1.014 0 2.083 0.382 2.703 1.2l-0.871 0.666z"></path>
<path fill="rgb(255, 255, 255)" d="M131.709 29.688c-0.023-0.862-0.501-1.506-1.494-1.506-0.971 0-1.602 0.817-1.602 1.506h3.096zM128.613 30.472c0 0.905 0.84 1.506 1.744 1.506 0.599 0 1.035-0.307 1.417-0.774l0.742 0.567c-0.544 0.708-1.298 1.058-2.289 1.058-1.637 0-2.661-1.179-2.661-2.715 0-1.549 1.123-2.715 2.671-2.715 1.821 0 2.52 1.394 2.52 2.725v0.348h-4.144z"></path>
<path fill="rgb(255, 255, 255)" d="M133.464 27.529h0.981v0.797h0.022c0.252-0.547 0.905-0.927 1.701-0.927 1.003 0 1.875 0.599 1.875 1.973v3.326h-0.981v-3.053c0-0.971-0.555-1.33-1.177-1.33-0.817 0-1.439 0.523-1.439 1.722v2.661h-0.981v-5.169z"></path>
<path fill="rgb(255, 255, 255)" d="M141.871 28.38h-1.406v2.345c0 0.576 0 1.187 0.741 1.187 0.229 0 0.501-0.033 0.698-0.153v0.895c-0.229 0.131-0.686 0.174-0.883 0.174-1.515 0-1.537-0.926-1.537-1.755v-2.693h-1.134v-0.851h1.134v-1.45h0.981v1.45h1.406v0.852z"></path>
<path fill="rgb(255, 255, 255)" d="M142.645 27.529h0.981v0.797h0.022c0.251-0.547 0.905-0.927 1.548-0.927 0.153 0 0.306 0.022 0.437 0.064l-0.044 1.058c-0.164-0.044-0.328-0.076-0.48-0.076-0.959 0-1.482 0.523-1.482 1.657v2.595h-0.981v-5.168z"></path>
<path fill="rgb(255, 255, 255)" d="M149.873 29.688c-0.022-0.862-0.501-1.506-1.493-1.506-0.971 0-1.603 0.817-1.603 1.506h3.096zM146.777 30.472c0 0.905 0.84 1.506 1.745 1.506 0.599 0 1.035-0.307 1.417-0.774l0.742 0.567c-0.546 0.708-1.297 1.058-2.291 1.058-1.634 0-2.66-1.179-2.66-2.715 0-1.549 1.123-2.715 2.672-2.715 1.82 0 2.519 1.394 2.519 2.725v0.348h-4.143z"></path>
</svg>
<svg id="client-Internews" width="150" height="40" viewBox="0 0 150 40" x="900" y="0">
<path fill="#ffffff" d="M17.739 28.565h1.478v5.477h3.273v1.242h-4.75z"></path>
<path fill="#ffffff" d="M25.211 34.409c0.913 0 1.185-0.782 1.185-1.553 0-0.781-0.271-1.562-1.185-1.562-0.904 0-1.176 0.781-1.176 1.562-0.001 0.771 0.272 1.553 1.176 1.553zM25.211 30.288c1.533 0 2.521 1.016 2.521 2.57 0 1.542-0.988 2.559-2.521 2.559-1.524 0-2.513-1.016-2.513-2.559 0-1.554 0.989-2.57 2.513-2.57z"></path>
<path fill="#ffffff" d="M31.393 32.131c-0.086-0.545-0.434-0.837-0.988-0.837-0.857 0-1.139 0.865-1.139 1.581 0 0.697 0.271 1.535 1.112 1.535 0.619 0 0.976-0.395 1.062-0.988h1.289c-0.169 1.288-1.063 1.993-2.344 1.993-1.466 0-2.454-1.034-2.454-2.493 0-1.515 0.903-2.634 2.484-2.634 1.148 0 2.201 0.602 2.287 1.844h-1.309z"></path>
<path fill="#ffffff" d="M36.181 32.902c-0.225 0.199-0.696 0.207-1.108 0.283-0.416 0.085-0.793 0.226-0.793 0.716 0 0.499 0.386 0.619 0.819 0.619 1.044 0 1.082-0.827 1.082-1.118v-0.501zM33.095 31.914c0.075-1.252 1.196-1.628 2.288-1.628 0.967 0 2.136 0.217 2.136 1.385v2.531c0 0.441 0.046 0.883 0.17 1.082h-1.357c-0.046-0.15-0.083-0.31-0.094-0.471-0.423 0.443-1.043 0.603-1.637 0.603-0.923 0-1.656-0.462-1.656-1.457 0-1.101 0.827-1.366 1.656-1.479 0.819-0.121 1.58-0.094 1.58-0.639 0-0.573-0.395-0.658-0.865-0.658-0.508 0-0.839 0.207-0.884 0.733h-1.338z"></path>
<path fill="#ffffff" d="M38.261 28.565h1.337v6.72h-1.337v-6.72z"></path>
<path fill="#ffffff" d="M44.924 35.283h-1.487l-1.663-4.865h1.401l1.025 3.322h0.019l1.026-3.322h1.327z"></path>
<path fill="#ffffff" d="M48.97 34.409c0.913 0 1.185-0.782 1.185-1.553 0-0.781-0.271-1.562-1.185-1.562-0.901 0-1.176 0.781-1.176 1.562-0.001 0.771 0.275 1.553 1.176 1.553zM48.97 30.288c1.533 0 2.522 1.016 2.522 2.57 0 1.542-0.99 2.559-2.522 2.559-1.524 0-2.513-1.016-2.513-2.559 0-1.554 0.988-2.57 2.513-2.57z"></path>
<path fill="#ffffff" d="M51.879 30.42h1.336v4.867h-1.336v-4.867zM53.215 29.666h-1.336v-1.101h1.336v1.101z"></path>
<path fill="#ffffff" d="M57.062 32.131c-0.084-0.545-0.43-0.837-0.988-0.837-0.855 0-1.138 0.865-1.138 1.581 0 0.697 0.274 1.535 1.111 1.535 0.621 0 0.977-0.395 1.063-0.988h1.289c-0.169 1.288-1.064 1.993-2.344 1.993-1.466 0-2.454-1.034-2.454-2.493 0-1.515 0.904-2.634 2.484-2.634 1.147 0 2.203 0.602 2.288 1.844h-1.31z"></path>
<path fill="#ffffff" d="M62.098 32.33c-0.124-0.678-0.413-1.037-1.064-1.037-0.846 0-1.091 0.658-1.111 1.037h2.175zM59.923 33.176c0.042 0.847 0.455 1.233 1.197 1.233 0.537 0 0.969-0.331 1.054-0.631h1.176c-0.377 1.147-1.176 1.635-2.278 1.635-1.534 0-2.485-1.052-2.485-2.558 0-1.459 1.008-2.57 2.485-2.57 1.656 0 2.456 1.393 2.362 2.889h-3.512z"></path>
<path fill="#ffffff" d="M64.93 33.703c0.011 0.585 0.5 0.819 1.026 0.819 0.386 0 0.876-0.15 0.876-0.622 0-0.404-0.558-0.545-1.516-0.753-0.773-0.167-1.543-0.441-1.543-1.298 0-1.241 1.071-1.563 2.117-1.563 1.064 0 2.044 0.359 2.144 1.554h-1.269c-0.038-0.517-0.435-0.658-0.913-0.658-0.301 0-0.743 0.056-0.743 0.451 0 0.481 0.753 0.546 1.514 0.725 0.783 0.179 1.545 0.461 1.545 1.362 0 1.28-1.11 1.695-2.223 1.695-1.129 0-2.229-0.422-2.285-1.711h1.27z"></path>
<path fill="#ffffff" d="M68.488 33.833h1.478v1.451h-1.478v-1.451z"></path>
<path fill="#ffffff" d="M77.25 34.522c-0.519 0.667-1.197 0.923-1.849 0.923-2.079 0-3.301-1.553-3.301-3.494 0-1.992 1.222-3.548 3.301-3.548 1.376 0 2.677 0.848 2.834 2.371h-1.41c-0.171-0.743-0.726-1.128-1.424-1.128-1.324 0-1.823 1.128-1.823 2.303 0 1.123 0.5 2.25 1.823 2.25 0.961 0 1.519-0.518 1.601-1.449h-1.487v-1.102h2.825v3.634h-0.94l-0.151-0.763z"></path>
<path fill="#ffffff" d="M79.105 28.565h1.336v6.72h-1.336v-6.72z"></path>
<path fill="#ffffff" d="M83.336 34.409c0.911 0 1.183-0.782 1.183-1.553 0-0.781-0.272-1.562-1.183-1.562-0.902 0-1.175 0.781-1.175 1.562 0.001 0.771 0.272 1.553 1.175 1.553zM83.336 30.288c1.531 0 2.521 1.016 2.521 2.57 0 1.542-0.99 2.559-2.521 2.559-1.522 0-2.51-1.016-2.51-2.559 0-1.554 0.988-2.57 2.51-2.57z"></path>
<path fill="#ffffff" d="M88.631 31.295c-0.787 0-1.136 0.743-1.136 1.562 0 0.81 0.35 1.553 1.136 1.553 0.793 0 1.142-0.743 1.142-1.553-0.001-0.819-0.35-1.562-1.142-1.562zM86.205 28.565h1.336v2.447h0.020c0.33-0.499 0.934-0.726 1.533-0.726 0.969 0 2.013 0.781 2.013 2.56 0 1.787-1.044 2.569-2.013 2.569-0.714 0-1.308-0.214-1.599-0.753h-0.017v0.623h-1.271v-6.72z"></path>
<path fill="#ffffff" d="M94.655 32.902c-0.225 0.199-0.696 0.207-1.11 0.283-0.412 0.085-0.79 0.226-0.79 0.716 0 0.499 0.386 0.619 0.819 0.619 1.043 0 1.082-0.827 1.082-1.118v-0.501zM91.569 31.914c0.075-1.252 1.195-1.628 2.286-1.628 0.97 0 2.136 0.217 2.136 1.385v2.531c0 0.441 0.048 0.883 0.171 1.082h-1.356c-0.048-0.15-0.084-0.31-0.095-0.471-0.422 0.443-1.042 0.603-1.637 0.603-0.924 0-1.656-0.462-1.656-1.457 0-1.101 0.829-1.366 1.656-1.479 0.819-0.121 1.581-0.094 1.581-0.639 0-0.573-0.394-0.658-0.867-0.658-0.507 0-0.834 0.207-0.883 0.733h-1.336z"></path>
<path fill="#ffffff" d="M96.735 28.565h1.338v6.72h-1.338v-6.72z"></path>
<path fill="#ffffff" d="M104.019 32.131c-0.084-0.545-0.433-0.837-0.99-0.837-0.855 0-1.136 0.865-1.136 1.581 0 0.697 0.272 1.535 1.11 1.535 0.622 0 0.977-0.395 1.062-0.988h1.289c-0.169 1.288-1.064 1.993-2.343 1.993-1.466 0-2.456-1.034-2.456-2.493 0-1.515 0.903-2.634 2.486-2.634 1.146 0 2.201 0.602 2.287 1.844h-1.31z"></path>
<path fill="#ffffff" d="M105.779 28.565h1.336v2.531h0.028c0.338-0.545 0.924-0.81 1.421-0.81 1.423 0 1.78 0.801 1.78 2.006v2.992h-1.336v-2.748c0-0.801-0.238-1.196-0.857-1.196-0.726 0-1.036 0.404-1.036 1.392v2.551h-1.336v-6.718z"></path>
<path fill="#ffffff" d="M114.060 32.902c-0.225 0.199-0.698 0.207-1.112 0.283-0.412 0.085-0.788 0.226-0.788 0.716 0 0.499 0.386 0.619 0.816 0.619 1.046 0 1.085-0.827 1.085-1.118v-0.501zM110.972 31.914c0.074-1.252 1.195-1.628 2.289-1.628 0.97 0 2.136 0.217 2.136 1.385v2.531c0 0.441 0.044 0.883 0.169 1.082h-1.356c-0.048-0.15-0.084-0.31-0.094-0.471-0.424 0.443-1.044 0.603-1.638 0.603-0.923 0-1.657-0.462-1.657-1.457 0-1.101 0.829-1.366 1.657-1.479 0.819-0.121 1.581-0.094 1.581-0.639 0-0.573-0.397-0.658-0.867-0.658-0.507 0-0.837 0.207-0.885 0.733h-1.336z"></path>
<path fill="#ffffff" d="M115.913 30.418h1.269v0.678h0.031c0.337-0.545 0.922-0.809 1.484-0.809 1.422 0 1.78 0.8 1.78 2.005v2.991h-1.336v-2.746c0-0.799-0.236-1.196-0.857-1.196-0.724 0-1.034 0.404-1.034 1.393v2.549h-1.337v-4.864z"></path>
<path fill="#ffffff" d="M124.381 32.791c0-0.791-0.272-1.497-1.136-1.497-0.755 0-1.082 0.658-1.082 1.384 0 0.695 0.262 1.456 1.082 1.456 0.758 0 1.136-0.648 1.136-1.342zM125.652 34.973c0 0.799-0.286 2.154-2.521 2.154-0.959 0-2.081-0.453-2.146-1.563h1.327c0.121 0.499 0.528 0.668 0.998 0.668 0.742 0 1.078-0.508 1.070-1.205v-0.64h-0.016c-0.294 0.509-0.878 0.753-1.463 0.753-1.456 0-2.078-1.111-2.078-2.447 0-1.26 0.724-2.408 2.088-2.408 0.641 0 1.128 0.216 1.452 0.78h0.016v-0.647h1.271v4.554z"></path>
<path fill="#ffffff" d="M129.482 32.33c-0.121-0.678-0.414-1.037-1.064-1.037-0.847 0-1.090 0.658-1.11 1.037h2.174zM127.307 33.176c0.038 0.847 0.453 1.233 1.197 1.233 0.535 0 0.967-0.331 1.052-0.631h1.178c-0.378 1.147-1.178 1.635-2.28 1.635-1.533 0-2.482-1.052-2.482-2.558 0-1.459 1.006-2.57 2.482-2.57 1.66 0 2.456 1.393 2.362 2.889h-3.509z"></path>
<path fill="#ffffff" d="M131.148 33.833h1.478v1.451h-1.478v-1.451z"></path>
<path fill="#ffffff" d="M17.665 4.716h4.067v18.504h-4.067v-18.504z"></path>
<path fill="#ffffff" d="M24.142 9.822h3.497v1.865h0.079c0.931-1.503 2.541-2.229 4.093-2.229 3.913 0 4.898 2.204 4.898 5.521v8.241h-3.679v-7.567c0-2.204-0.651-3.291-2.359-3.291-1.993 0-2.848 1.115-2.848 3.837v7.022h-3.68v-13.398z"></path>
<path fill="#ffffff" d="M43.503 9.822h2.692v2.463h-2.692v6.633c0 1.243 0.31 1.555 1.553 1.555 0.391 0 0.75-0.025 1.139-0.104v2.877c-0.623 0.102-1.423 0.127-2.148 0.127-2.256 0-4.225-0.517-4.225-3.186v-7.902h-2.229v-2.463h2.229v-4.017h3.681v4.017z"></path>
<path fill="#ffffff" d="M56.69 15.082c-0.334-1.865-1.14-2.851-2.929-2.851-2.33 0-3.005 1.817-3.057 2.851h5.986zM50.704 17.415c0.102 2.329 1.245 3.395 3.291 3.395 1.474 0 2.667-0.908 2.904-1.737h3.238c-1.037 3.161-3.238 4.51-6.274 4.51-4.22 0-6.839-2.904-6.839-7.048 0-4.020 2.771-7.079 6.839-7.079 4.563 0 6.767 3.836 6.508 7.958h-9.667z"></path>
<path fill="#ffffff" d="M62.041 9.876h3.498v2.486h0.054c0.672-1.684 2.486-2.85 4.272-2.85 0.26 0 0.573 0.052 0.805 0.131v3.421c-0.336-0.080-0.881-0.131-1.322-0.131-2.695 0-3.629 1.945-3.629 4.303v6.038h-3.679v-13.398z"></path>
<path fill="#ffffff" d="M72.040 9.889h3.499v1.865h0.075c0.936-1.503 2.543-2.227 4.098-2.227 3.911 0 4.894 2.202 4.894 5.523v8.239h-3.677v-7.566c0-2.204-0.649-3.293-2.357-3.293-1.996 0-2.85 1.115-2.85 3.836v7.023h-3.682v-13.399z"></path>
<path fill="#ffffff" d="M95.683 15.082c-0.336-1.865-1.142-2.851-2.928-2.851-2.332 0-3.007 1.817-3.058 2.851h5.987zM89.697 17.415c0.103 2.329 1.243 3.395 3.291 3.395 1.476 0 2.669-0.908 2.901-1.737h3.24c-1.036 3.161-3.24 4.51-6.272 4.51-4.222 0-6.839-2.904-6.839-7.048 0-4.020 2.77-7.079 6.839-7.079 4.559 0 6.763 3.836 6.505 7.958h-9.666z"></path>
<path fill="#ffffff" d="M115.967 23.219h-3.781l-2.383-8.992h-0.055l-2.28 8.992h-3.808l-4.25-13.399h3.89l2.461 9.098h0.052l2.229-9.098h3.574l2.283 9.070h0.050l2.462-9.070h3.784z"></path>
<path fill="#ffffff" d="M123.818 18.865c0.030 1.607 1.372 2.257 2.823 2.257 1.062 0 2.408-0.414 2.408-1.71 0-1.115-1.527-1.503-4.168-2.074-2.126-0.467-4.25-1.219-4.25-3.578 0-3.421 2.953-4.302 5.829-4.302 2.929 0 5.625 0.988 5.908 4.276h-3.498c-0.103-1.424-1.191-1.812-2.513-1.812-0.831 0-2.047 0.156-2.047 1.244 0 1.323 2.072 1.502 4.174 1.994 2.148 0.495 4.247 1.273 4.247 3.759 0 3.524-3.058 4.665-6.111 4.665-3.112 0-6.145-1.166-6.299-4.719h3.498z"></path>
</svg>
<svg id="client-Parity" width="185" height="40" viewBox="0 0 185 40" x="1170" y="0">
<path fill="#ffffff" d="M63.314 20.636h2.985l-1.492-3.467z"></path>
<path fill="#ffffff" d="M88.838 16.116h-2.963v3.447h2.721c0 0 1.515-0.505 1.536-1.723s-1.294-1.724-1.294-1.724z"></path>
<path fill="#ffffff" d="M44.55 16.467c-1.12 0-2.963 0-2.963 0v3.38h3.512c0 0 1.053-0.593 1.053-1.536-0.001-0.945-0.484-1.844-1.602-1.844z"></path>
<path fill="#ffffff" d="M150.288 4.067h-41.888v4.96h-6.789v-4.96h-66.863c-8.8 0-15.933 7.133-15.933 15.934s7.133 15.932 15.933 15.932h115.541c8.799 0 15.932-7.133 15.932-15.932s-7.133-15.934-15.932-15.934zM46.569 23.468h-5.032v4.916h-6.789v-15.918h12.056c0 0 5.969 0.351 5.969 5.969s-5.734 5.032-6.203 5.032zM69.51 28.384l-1.639-3.16h-6.087l-1.639 3.16h-6.555l6.555-15.918h8.779l6.789 15.918h-6.203zM90.082 28.384c0 0 0.059-5.502-2.195-5.326h-2.253v5.326h-6.408v-15.918h12.758c0 0 4.331 0.116 4.331 3.979s-2.692 3.979-2.692 3.979l0.205 0.498c0 0 2.721 1.58 2.721 7.462h-6.467zM108.4 28.384h-6.789v-16.035h6.789v16.035zM131.048 17.177h-5.824v11.207h-6.935v-11.119h-5.91v-4.799l18.669-0.117v4.828zM147.259 22.94v5.356h-6.876v-5.326l-6.555-10.622h6.964l3.088 5.999 3-5.999h7.052l-6.673 10.592z"></path>
</svg>
<svg id="client-Bank" width="171" height="40" viewBox="0 0 171 40" x="1440" y="0">
<path fill="#ffffff" d="M165.302 22.764c2.464 0 3.355-1.509 3.355-3.24 0-1.863-1.105-3.148-3.382-3.148h-0.998v6.388h1.025zM162.878 15.246h2.516c3.115 0 4.754 1.745 4.754 4.264 0 2.571-1.772 4.38-4.86 4.38h-2.411v-8.645zM151.881 15.246h1.371l3.847 4.906c0.453 0.578 0.799 1.049 1.079 1.47h0.026c-0.013-0.459-0.026-0.945-0.026-1.482v-4.894h1.397v8.644h-1.237l-3.995-5.101c-0.44-0.552-0.774-1.024-1.079-1.43h-0.027c0.027 0.381 0.042 0.826 0.042 1.39v5.142h-1.398v-8.645zM146.741 20.546l-0.707-1.969c-0.252-0.708-0.373-1.102-0.466-1.39h-0.027c-0.093 0.302-0.227 0.696-0.48 1.39l-0.732 1.969h2.411zM145.010 15.207h1.040l3.475 8.683h-1.491l-0.852-2.216h-3.263l-0.838 2.216h-1.438l3.368-8.683zM135.555 15.246h1.398v7.518h3.156v1.127h-4.554v-8.645zM132.347 23.34c-0.72 0.367-1.864 0.682-3.076 0.682-2.797 0-4.514-1.809-4.514-4.302 0-2.636 1.877-4.552 4.726-4.552 1.025 0 1.877 0.211 2.504 0.445v1.286c-0.665-0.328-1.451-0.564-2.397-0.564-2.171 0-3.342 1.352-3.342 3.28 0 1.968 1.185 3.239 3.13 3.239 0.639 0 1.21-0.118 1.57-0.288v-2.834h1.398v3.607zM114.159 15.246h1.371l3.849 4.906c0.453 0.578 0.799 1.049 1.078 1.47h0.027c-0.013-0.459-0.027-0.945-0.027-1.482v-4.894h1.398v8.644h-1.239l-3.995-5.102c-0.439-0.551-0.772-1.023-1.078-1.43h-0.027c0.027 0.381 0.040 0.826 0.040 1.39v5.142h-1.398v-8.645zM105.851 15.246h5.299l-0.386 1.128h-3.514v2.532h3.487v1.129h-3.487v2.729h3.94v1.127h-5.338v-8.645zM94.44 15.246h5.071l-0.384 1.128h-3.288v2.532h3.234v1.129h-3.234v3.856h-1.398v-8.645zM90.046 19.602c0-1.955-1.092-3.266-2.889-3.266-1.73 0-2.889 1.246-2.889 3.266s1.159 3.253 2.889 3.253c1.732 0 2.889-1.234 2.889-3.253zM82.775 19.602c0-2.624 1.825-4.434 4.38-4.434 2.57 0 4.367 1.838 4.367 4.434 0 2.677-1.864 4.421-4.367 4.421-2.542 0-4.38-1.758-4.38-4.421zM71.208 15.246h1.398v3.778h0.026l3.115-3.778h1.624l-3.555 4.224 3.768 4.421h-1.704l-3.249-3.843h-0.026v3.843h-1.398v-8.644zM60.21 15.246h1.371l3.848 4.906c0.452 0.578 0.799 1.049 1.078 1.47h0.026c-0.013-0.459-0.026-0.945-0.026-1.482v-4.894h1.397v8.644h-1.237l-3.995-5.102c-0.44-0.551-0.774-1.023-1.079-1.43h-0.027c0.027 0.381 0.041 0.826 0.041 1.39v5.142h-1.398v-8.645zM55.070 20.546l-0.707-1.969c-0.253-0.708-0.373-1.102-0.466-1.39h-0.026c-0.094 0.302-0.227 0.696-0.479 1.39l-0.734 1.969h2.411zM53.34 15.207h1.038l3.476 8.683h-1.492l-0.852-2.216h-3.263l-0.838 2.216h-1.438l3.368-8.683zM44.91 22.75c1.092 0 1.744-0.393 1.744-1.364 0-0.827-0.625-1.326-1.597-1.326h-1.264v2.69h1.118zM44.617 18.919c0.986 0 1.504-0.498 1.504-1.272 0-0.721-0.452-1.26-1.504-1.26h-0.825v2.532h0.825zM42.394 15.246h2.397c1.877 0 2.717 1.049 2.717 2.191 0 0.801-0.399 1.496-1.105 1.81v0.026c1.026 0.237 1.678 1.063 1.678 2.099 0 1.378-1.038 2.518-3.048 2.518h-2.637v-8.644z"></path>
<path fill="#ffffff" d="M19.095 28.635c-2.541 0.319-3.797-0.475-5.782-2.093 0.163 0.96 0.864 1.706 1.446 2.125 0.532 0.384 1.652 0.659 2.391 0.659s1.429-0.411 1.946-0.69z"></path>
<path fill="#ffffff" d="M13.789 30.311c0.129 0.018 0.21-0.205 0.102-0.276-0.193-0.128-0.363-0.341-0.192-0.852-0.22 0.014-0.764-0.264-0.986-1.201-0.125 0.908 0.433 2.235 1.076 2.329z"></path>
<path fill="#ffffff" d="M15.451 29.729c-0.181-0.534-1.229-0.607-1.335-0.876-0.090 0.306-0.23 0.32-0.257 0.826 0.462-0.371 0.916 0.229 1.105 0.494s0.66 0.063 0.488-0.443z"></path>
<path fill="#ffffff" d="M16.44 30.311c-0.103-0.168-0.325-0.165-0.578-0.784-0.278 0.333-0.12 0.684 0.051 0.836s0.482 0.053 0.527-0.051z"></path>
<path fill="#ffffff" d="M14.711 20.676c-2.709 0-3.126 3.922-3.126 5.454 0 0.279-0.009 0.795-0.016 1.013l-0.662-2.588c-0.163 0-0.264 0.37-0.225 0.526l1.838 7.241c0.069 0.249 0.109 0.428 0.284 0.392 0.198-0.041 0.069-0.44 0.020-0.652l-0.747-2.93c0.172-0.343 0.319-0.788 0.396-1.225-0.171 0-0.53-0.050-0.581-0.254 0.547-0.017 0.629-0.165 0.639-0.249 0.203-1.864-0.028-4.154 0.767-5.376 0.799-1.229 2.496-1.036 3.13-1.104-0.326-0.201-1.182-0.249-1.717-0.249z"></path>
<path fill="#ffffff" d="M8.75 30.766c0.898 0.227 2.347-0.276 2.773-0.941-0.058-0.266-0.109-0.443-0.184-0.763-0.085 0.379-0.26 0.726-0.586 1.021-0.642-0.417-0.821 0.506-2.002 0.683z"></path>
<path fill="#ffffff" d="M13.628 19.473c-1.608 0.253-2.075-0.133-2.593-0.065-0.757 0.101-1.134 0.599-0.992 1.079 0.025-0.19 0.428-0.598 0.787-0.548-0.18 0.184-0.294 0.343-0.231 0.532-0.007-0.020 0.142 0.107 0.359-0.076 0.408-0.348 1.016-0.417 1.49-0.417 0.57 0 1.132-0.090 1.36-0.284 0.083-0.069-0.106-0.233-0.18-0.222z"></path>
<path fill="#ffffff" d="M28.578 12.413c-0.949 0.825-1.259 0.421-1.987 0.649-0.036 0.012-0.015-0.088-0.055-0.074 0.949-1.237 1.67-0.435 2.041-0.575z"></path>
<path fill="#ffffff" d="M27.733 13.788c0.009-0.435-0.518-1.014-1.326-0.704 0.622 0.624 1.010 0.556 1.326 0.704z"></path>
<path fill="#ffffff" d="M21.069 27.762c0.039-0.1 0.173-0.17 0.039-0.268-0.47-0.346-0.085-0.498-0.239-0.623-0.463-0.338-1.027 0.177-1.72-0.784 0.334 0.139 0.759 0.445 1.185 0.313-0.414-1.309-1.185-3.296-1.341-4.116-0.053-0.268-0.118-0.663-0.779-0.663-0.416 0-0.648 0.076-0.858 0.179 0.054-0.14 0.545-0.416 0.869-0.455-1.592-0.3-4.303-0.466-4.741 1.538-0.1 0.45 0.472 1.094 1.991 0.565 0.221-0.077 0.48 0.089 0.143 0.409s-1.466 1.086-2.451 0.41c0.22 0.332 0.907 0.561 1.453 0.561 0.544 0 1.448-0.094 1.871-1.245 0.116 0 0.783-0.026 1.245-0.708-0.144 0.962-0.479 1.291-0.821 1.543-0.232 0.495-0.766 1.587-2.321 1.587-0.393 0-0.608-0.012-0.965-0.246 0.774 0.981 4.262 3.668 7.128 2.202-0.034 0.152-0.376 0.488-0.748 0.632-0.727 0.281-1.238 1.104-3.479 1.223 0.050 0.708 1.203 0.548 1.463 0.459-0.437-0.063-0.664-0.144-0.693-0.257 0.821 0.045 1.712-0.050 2.738-0.507-0.103 0.228-0.163 0.389-0.393 0.49 1.36 0.108 1.814-0.997 2.136-1.11-0.069-0.274-0.633-1.054-0.713-1.128z"></path>
<path fill="#ffffff" d="M14.886 18.346c-0.125 0.317-0.744 0.683-0.615 1.188 0-0.152 0.729-0.79 0.898-1.112 0.351-0.672 0.154-0.885 0.024-1.493-0.012 0.523-0.096 0.884-0.307 1.417z"></path>
<path fill="#ffffff" d="M10.368 24.771c0.124 0.146 0.201 0.451 0.368 0.464-0.034-0.037 0.039-0.329-0.069-0.472-0.085-0.438-0.046-0.64 0.009-0.675 0.206-0.131 0.137 0.348 0.287 0.468 0.037 0.031 0.090 0.069 0.154 0.028-0.009-0.113-0.029-0.27-0.003-0.494-0.090-0.202-0.154-0.616-0.154-0.635-0.174-0.269-0.343-0.497-0.609-0.691-0.104-0.128-0.211-0.33-0.347-0.525-0.279-0.4-0.784-1.598-1.228-2.561-0.299-0.65-0.634-0.978-0.532-1.164 0.142-0.241 0.222-0.393 0.289-0.569-0.118-0.447-0.484-1.845-0.684-2.63-0.611 1.083-0.58 2.51-0.725 3.015-0.156 0.537 0.039 0.574 0.076 0.825 0.126 0.801 0.837 1.934 1.304 2.415 0.268 0.274 1.070 1.112 1.070 1.456 0.036 0.139 0.087 0.392 0.074 0.683 0.043 0.131 0.114 0.111 0.193 0.19 0.038 0.040 0.047 0.174 0.133 0.216 0.045 0.020 0.067 0.028 0.188 0.117 0.061 0.044 0.126 0.445 0.205 0.538z"></path>
<path fill="#ffffff" d="M16.465 19.863c-0.222 0.168-0.947-0.249-1.438-0.19-0.333 0.050-0.499 0.257-0.671 0.282-0.997-0.194-2.117 0.46-2.664 1.274-0.088 0.129-0.211 0.227-0.229 0.404-0.016 0.178 0.124 0.228 0.021 0.481-0.212 0.71-0.205 1.288-0.124 1.778 0.19-0.658 0.753-2.917 2.91-3.348-0.539-0.101-1.318 0.128-1.848 0.347 0.599-0.676 1.592-0.658 2.246-0.624 0.035-0.003-0.133-0.136-0.192-0.262 0.137 0 0.288 0.157 0.744 0.136 0.502-0.024 0.684-0.047 0.962-0.089-0.418 0.206-0.741 0.349-1.331 0.367 1.661 0.505 1.969-0.103 2.841-0.236-0.117-0.221-0.649-0.373-1.227-0.322z"></path>
<path fill="#ffffff" d="M9.362 24.345c-0.357-1.619-1.565-2.674-2.493-2.916-0.031-0.009-0.474 1.49-0.423 2.913 0.976-0.070 2.189-0.045 2.916 0.004z"></path>
<path fill="#ffffff" d="M6.644 26.179c0.3 1.509 0.712 2.433 1.026 3 0.76-0.373 1.692-1.255 1.843-3.086-1.062-0.048-2.103 0.031-2.869 0.087z"></path>
<path fill="#ffffff" d="M5.040 21.653c-0.779 0.44-1.57 1.457-1.656 3.146 0.334-0.085 0.809-0.198 1.259-0.265-0.017-0.623-0.001-1.643 0.397-2.881z"></path>
<path fill="#ffffff" d="M3.606 26.549c0.473 1.663 1.57 2.413 2.216 2.666-0.53-0.974-0.807-1.896-0.988-2.851-0.542 0.073-0.937 0.133-1.229 0.184z"></path>
<path fill="#ffffff" d="M11.805 20.488c-1.232 0.16-1.169 1.132-1.052 1.35 0.25-0.553 0.385-0.776 1.052-1.35z"></path>
<path fill="#ffffff" d="M9.445 16.943c0.259-0.178 0.259-0.615 0.219-0.817-0.194 0.295-0.284 0.575-0.219 0.817z"></path>
<path fill="#ffffff" d="M26.736 12.186c-0.835 0.039-1.206 0.295-1.339 1.161 1.36-0.506 1.014-1.027 1.339-1.161z"></path>
<path fill="#ffffff" d="M14.014 15.378c-0.082 0.485-0.497 0.49-0.667 0.709-0.066-0.088 0.025-0.358 0.076-0.472-0.475 0.317-0.77 0.812-0.77 1.215-0.129-0.211-0.351-0.927-0.986-1.147-0.191-0.066-0.090 0.125 0 0.321s0.263 0.674 0.258 1.131c-0.005 0.309-0.184 0.602-0.287 0.645 0.131-1-0.467-2.164-0.604-2.164-0.257 0-0.633 1.535-0.095 2.674-1.103-1.324-0.452-2.476-0.452-2.776 0-0.346-0.040-0.515-0.325-0.758 0.137 0.995-0.299 1.374-0.457 2.195-0.078 0.409-0.077 0.73 0.059 0.919 0.133 0.191 0.383 0.414 0.475 0.529s0.454 0.607 0.744 0.607c0.24 0 0.239-0.343 0.125-0.466 0.128-0.017 0.282 0.011 0.373 0.104 0.187 0.195 0.058 0.367 0.129 0.362 0.363-0.025 0.851-1.302 0.964-1.699 0.387 1.017-0.356 1.878-0.245 1.875 0.324-0.008 0.925-0.741 1.115-1.029 0.009 0.052 0.011 0.106-0.007 0.17-0.060 0.219-0.11 0.505-0.014 0.505 0.311 0 0.475-0.966 0.505-1.34 0.030-0.375 0.547-0.574 0.51-1.188-0.015-0.221-0.22-0.698-0.144-0.911 0.226 0.126 0.401 0.216 0.551 0.297 0.197 0.105 0.691 0.268 0.876 0.317 0.554 0.143 1.326 0.347 1.527 0.402 0.229 0.062 0.32 0.125 0.486 0.125 0.857 0 2.122-0.671 2.247-0.767 0.136-0.104 0.489-0.284 0.722-0.424 0.224-0.157 0.631-0.398 0.874-0.473 0.125-0.045 0.222-0.020 0.306 0.021 0.277 0.136 0.429 0.203 0.744 0.237-0.242 0.314-0.635 0.76-0.855 1.206 0.037 0.046 0.144 0.093 0.184 0.12 0.348-0.581 0.714-1.075 1.074-1.461 0.024-0.026-0.147-0.056-0.121-0.171 0.018-0.017 0.353 0.171 0.578 0.102 0.015-0.014 0.108 0 0.096-0.12 0.109-0.037 0.139-0.131 0.129-0.152-0.27-0.045-0.478-0.084-0.567-0.078-0.027 0.006-0.117 0.049-0.101 0.113-0.051 0.004-0.127 0.025-0.131 0.076-0.502 0.202-1.023-0.365-1.437-0.244 0.139-0.265 0.814 0.019 1.126 0.024 0.429 0.008 0.5-0.163 1.078 0.015 0.352 0.076 0.428-0.079 0.167-0.183-0.202-0.081-0.548-0.146-0.691-0.219 0.254-0.003 0.505-0.042 0.838 0.092 0.069-0.003 0.052-0.033 0.066-0.051 0.069-0.093 1.124-0.784 2.532-1.129l0.023-0.136c-0.655 0.113-1.277 0.317-2.661 1.089-0.036-0.017-0.148-0.055-0.516-0.123-0.591 0.068-1.778 0.066-2.081 0.19-1.515 0.621-2.67 0.709-3.338 1.088-0.38 0.217-0.868-0.207-1.027-0.316-0.389-0.265-0.518-0.303-0.839-0.455-0.124-0.052-0.712-0.386-0.831-0.41-0.615 0.078-1.193 0.906-1.307 1.387z"></path>
<path fill="#ffffff" d="M10.509 14.72c0.337 0.382 0.976 0.767 1.669 0.539-1.001-0.214-1.776-2.242-2.905-2.31-0.241-0.017-0.599 0.067-0.958 0.539 1.283-0.488 1.88 0.873 2.194 1.232z"></path>
<path fill="#ffffff" d="M25.431 12.224c-0.189 0.009-1.078 0.253-0.838 1.484 0.933-0.607 0.719-1.298 0.838-1.484z"></path>
<path fill="#ffffff" d="M24.27 12.831c-0.796 0.416-0.58 0.844-0.593 1.138l0.197 0.077c0.591-0.583 0.322-1.072 0.397-1.215z"></path>
<path fill="#ffffff" d="M22.845 31.315c-0.472-0.109-0.784 0.021-1.215-0.27-0.225-0.152-0.961-0.544-1.438-0.657-0.918 0.335-1.282 0.219-1.712 0.207-0.53 0.282-1.134 0.189-1.658 0-0.495 0.359-0.917 0.196-1.132 0.028-0.838 0.489-0.717-0.215-1.283-0.228-0.831 0.524-1.52 0.176-1.85-0.027 0.076 0.319 0.181 0.682 0.269 1.054l10.12 0.005c0.001 0.001 0.157-0.053-0.1-0.112z"></path>
<path fill="#ffffff" d="M22.593 31.829c-0.193-0.001-9.663-0.001-9.663-0.001l0.166 0.666c0.078 0.383-0.071 0.596-0.366 0.586-0.273-0.008-0.4-0.131-0.494-0.486l-0.193-0.766c0 0-1.65 0.001-3.122 0.002 0.338 0.198 3.002 1.684 6.813 1.702 3.479 0.018 6.124-1.291 6.859-1.703z"></path>
<path fill="#ffffff" d="M7.108 14.787c-2.133 2.916-1.14 4.679-0.952 5.051-0.103-0.438-0.29-1.29 0-2.031 0 0.128 0.052 0.54 0.36 0.826-0.069-0.741-0.394-1.374 0.881-3.967 0.091-0.192-0.112-0.122-0.289 0.121z"></path>
<path fill="#ffffff" d="M10.8 26.871c-0.073-0.311-0.311-1.263-0.432-1.715-0.171-0.261-0.363-0.431-0.546-0.532 0.021 0.093 0.041 0.187 0.058 0.285 0.079 0.456 0.103 0.959 0.051 1.47-0.16 1.621-1.007 3.287-2.803 3.552-1.947 0.287-4.049-1.975-4.001-4.782 0.046-2.807 1.746-4.098 3.043-4.111 0.596-0.007 1.185 0.131 1.837 0.587-0.411-0.701-0.553-1.078-0.671-1.473-0.33-0.123-0.815-0.187-1.145-0.171-2.994 0.149-4.313 3.827-3.602 6.719 0.27 1.1 0.809 2.246 1.683 3.091 0.44 0.404 1.142 1.003 2.002 1.139 2.292 0.516 4.211-1.504 4.526-4.060z"></path>
<path fill="#ffffff" d="M7.056 10.766c0.042 0.118 2.623 10.353 2.683 10.591 0.046 0.18 0.141 0.349 0.241 0.33 0.071-0.015 0.178-0.131 0.109-0.373 0 0-1.078-4.174-1.116-4.351 0.32-0.505 0.393-1.248 0.692-1.63 0.182 0.245 0.203-0.012 0.209-0.203 0.032-1.278-0.678-1.48-0.828-1.49-0.629-0.038-0.739 0.672-0.739 0.672l-0.911-3.619c0.174-0.026 0.303 0.050 0.423 0.165-0.036-0.376-0.435-1.662-1.161-2.043-0.379 1.189-0.055 2.001 0.047 2.338 0.037-0.149 0.128-0.338 0.352-0.388z"></path>
<path fill="#ffffff" d="M11.677 30.39c-0.787 0.539-2.118 0.844-2.863 0.869-0.384 0.009-0.396 0.12-0.376 0.168 0.303 0.004 3.508-0.005 3.508-0.005s-0.201-0.78-0.269-1.032z"></path>
<path fill="#ffffff" d="M25.541 13.337c1.201-0.031 1.355 0.563 1.335 0.836-0.109-0.101-1.027-0.026-1.335-0.836z"></path>
<path fill="#ffffff" d="M21.874 11.577c0.488 0.7 3.901 2.8 4.207 2.907-0.359-0.895-1.173-0.788-1.378-0.743z"></path>
<path fill="#ffffff" d="M24.712 14.232c-0.182-0.087-0.569-0.188-0.771-0.076 0 0 0.086 0.792 1.335 0.64 0.018 0.045-0.377-0.472-0.564-0.564z"></path>
<path fill="#ffffff" d="M22.658 30.943c0.19 0 0.548 0.050 0.889-0.219 0.245 0.076 0.367-0.122 0.411-0.236-0.222-0.101-0.906-0.48-1.253-0.784-0.297-0.26-0.448-0.453-0.715-0.548-0.359 0.17-0.91 0.946-1.182 0.994 0.634 0.253 1.083 0.79 1.849 0.793z"></path>
<path fill="#ffffff" d="M22.924 24.564c-0.043 0.171-0.311 0.256-0.599 0.186s-0.486-0.265-0.444-0.437c0.179 0.017 0.34-0.050 0.599-0.186 0.082 0.182 0.288 0.305 0.445 0.437z"></path>
<path fill="#ffffff" d="M23.123 25.694c0.218 0.076 0.45 0.059 0.591-0.017 0.040 0.133-0.031 0.379-0.252 0.553-0.251 0.198-0.586 0.237-0.684 0.116 0.241-0.112 0.363-0.386 0.344-0.652z"></path>
<path fill="#ffffff" d="M22.23 26.639c0.252 0.117 0.405 0.322 0.36 0.515-0.055 0.241-0.4 0.367-0.77 0.284s-0.625-0.344-0.569-0.585c0.027-0.12 0.125-0.21 0.262-0.262 0.087 0.065 0.445 0.125 0.717 0.047z"></path>
<path fill="#ffffff" d="M21.983 25.74c-0.012 0-0.023 0.001-0.036 0.002-0.342-0.125-0.421-0.3-0.405-0.521-0.178 0-0.551 0.029-0.518 0.31 0.021 0.176 0.227 0.333 0.465 0.378-0.063 0.059-0.099 0.129-0.098 0.205 0.003 0.201 0.272 0.362 0.601 0.357 0.33-0.004 0.596-0.172 0.593-0.374s-0.271-0.362-0.602-0.358z"></path>
<path fill="#ffffff" d="M24.127 27.644c-0.139 0.223-0.51 0.249-0.828 0.057s-0.461-0.53-0.321-0.752c0.139-0.225 0.509-0.25 0.827-0.057 0.316 0.192 0.461 0.529 0.322 0.752z"></path>
<path fill="#ffffff" d="M26.081 29.558c0 0.478-0.445 0.866-0.994 0.866s-0.995-0.387-0.995-0.866 0.445-0.866 0.995-0.866c0.548 0 0.994 0.388 0.994 0.866z"></path>
<path fill="#ffffff" d="M26.556 26.068c0.155 0.066 0.266 0.179 0.295 0.322 0.054 0.279-0.221 0.564-0.615 0.639s-0.758-0.089-0.812-0.367c-0.026-0.137 0.027-0.276 0.135-0.391 0.125 0.085 0.76 0.124 0.998-0.204z"></path>
<path fill="#ffffff" d="M26.954 27.948c-0.413-0.013-0.737-0.314-0.726-0.67 0.23 0.031 0.728-0.205 0.767-0.623 0.411 0.012 0.737 0.312 0.725 0.67-0.011 0.356-0.354 0.636-0.766 0.623z"></path>
<path fill="#ffffff" d="M24.431 27.988c0.957 0.083 1.202-0.326 1.287-0.708 0.051 0.022 0.098 0.047 0.141 0.076 0.22 0.144 0.352 0.362 0.33 0.594-0.036 0.375-0.462 0.642-0.954 0.595-0.4-0.036-0.719-0.269-0.804-0.557z"></path>
<path fill="#ffffff" d="M22.524 28.723c0.063-0.145 0.196-0.246 0.364-0.295 0.009 0.184 0.238 0.831 1.223 0.669-0.032 0.071-0.038 0.242 0.060 0.318-0.139 0.32-0.619 0.427-1.074 0.236s-0.712-0.607-0.572-0.927z"></path>
<path fill="#ffffff" d="M22.933 28.201c-0.070 0.219-0.414 0.306-0.77 0.197s-0.59-0.376-0.52-0.593c0.112 0.053 0.42 0.116 0.769-0.197 0.357 0.109 0.591 0.374 0.521 0.593z"></path>
<path fill="#ffffff" d="M24.491 28.759c-0.127 0.037-0.269 0.059-0.421 0.059-0.525 0-0.95-0.256-0.95-0.569 0.098-0.026 0.531 0.097 1.026-0.359-0.042 0.321 0.087 0.688 0.345 0.869z"></path>
<path fill="#ffffff" d="M25.175 24.296c-0.454 0.281-0.796 0.331-0.932 0.23 0.421-0.109 0.715-0.368 0.658-0.578-0.047-0.176-0.329-0.262-0.668-0.219-0.030 0.199-0.104 0.461-0.838 0.466-0.021 0.051-0.027 0.101-0.015 0.149 0.040 0.151 0.252 0.235 0.523 0.23-0.133 0.315-0.492 0.441-0.876 0.392-0.012 0.249 0.308 0.465 0.712 0.483s0.742-0.168 0.753-0.416c0.001-0.010 0-0.018 0-0.028 0.077 0.020 0.159 0.034 0.246 0.039 0.411 0.022 0.753-0.144 0.766-0.375 0.008-0.149-0.125-0.287-0.331-0.373z"></path>
<path fill="#ffffff" d="M21.665 24.658c0-0.204-0.345-0.37-0.769-0.37-0.015 0-0.042-0.001-0.069-0.004-0.065-0.892-0.131-1.866-0.121-2.43 0.006-0.304-0.051-0.624-0.464-0.775-0.376-0.137-1.734-0.65-2.162-0.745-0.532 0.004-0.999 0.304-1.413 0.593 0.121-0.004 0.155-0.020 0.262-0.017 0.579 0.015 0.755-0.008 1.294 0.144 0.351 0.099 0.679 0.278 0.768 0.43 0.116 0.204 0.524 0.537 0.69 0.537s0.404-0.155 0.713-0.373c-0.077 0.468-0.311 0.67-0.475 0.881s-0.257 0.674-0.136 1.231c0.103-0.254 0.109-0.791 0.547-1.030-0.198 0.357-0.205 1.369-0.205 1.771s0.308 0.994 0.805 1.939c0.047-0.203-0.001-0.628-0.050-1.413 0.006 0 0.012 0.001 0.018 0.001 0.424 0 0.768-0.166 0.768-0.37z"></path>
<path fill="#ffffff" d="M25.125 26.668c-0.152 0.201-0.293 0.566-0.833 0.667 0.139 0.221 0.513 0.282 0.87 0.133 0.080-0.034 0.153-0.076 0.218-0.124-0.206-0.279-0.244-0.443-0.254-0.676z"></path>
<path fill="#ffffff" d="M26.22 25.060c-0.376-0.157-0.749-0.129-0.833 0.066-0.036 0.083 0.020 0.277 0.142 0.38-0.167-0.007-0.269-0.033-0.43-0.254-0.166 0.077-0.336 0.036-0.427 0.026-0.037 0.109-0.017 0.228 0.048 0.338-0.191-0.071-0.441-0.039-0.658 0.104-0.319 0.209-0.442 0.575-0.279 0.819 0.165 0.244 0.556 0.27 0.874 0.060 0.282-0.184 0.411-0.494 0.322-0.731 0.058 0.034 0.123 0.065 0.193 0.088 0.328 0.107 0.657 0.026 0.78-0.179 0.364 0.139 0.717 0.107 0.798-0.079 0.085-0.194-0.152-0.479-0.53-0.638z"></path>
<path fill="#ffffff" d="M10.531 10.819c-0.958 0.691-0.275 1.522-1.062 1.936 0.916-0.029 0.669-1.329 1.062-1.936zM13.728 9.851c0.025-0.009-0.026-0.188-0.335-0.171 0.393-0.209 0.677 0.007 0.669 0.045-0.019 0.096-0.126 0.139-0.137 0.213-0.004 0.031 0.069 0.050 0.086 0.080-0.037-0.001-0.101 0.028-0.133 0.029-0.013 0.029-0.047 0.137-0.079 0.139-0.193-0.007-0.306-0.209-0.43-0.246 0.028 0.012 0.15-0.067 0.359-0.089zM13.321 8.91c0.385-0.126 0.359-0.342 0.214-0.615 0.671 0.324 0.581 0.691-0.214 0.615zM14.732 13.531c-0.506-0.363-0.517-0.736-0.761-0.616 0.308 0.658 0.248 1.131-0.729 1.614-0.067-0.176 0.182-0.278 0.378-0.468 0.222-0.213 0.297-0.529 0.171-1.028-0.026-0.103-0.239-0.623-0.718-0.615 0.273 0.387 0.555 0.804 0.3 1.463-0.001-0.558-0.121-0.735-0.506-1.185-0.111 0.136-0.381 0.303-0.406 0.615-0.325-0.168 0.445-1.015 0.284-1.392-0.218-0.113-0.32-0.37-0.35-0.623 0.218 0.222 0.571 0.416 0.999 0.48 0.197 0.030 0.398 0.009 0.437-0.126s-0.030-0.162-0.021-0.22c0.005-0.033-0.007-0.109 0.121-0.106 0.043-0.116-0.005-0.152-0.070-0.198 0.131 0 0.173-0.081 0.182-0.109-0.025-0.045-0.055-0.076-0.027-0.141 0.051-0.125 0.319-0.049 0.34-0.184 0.012-0.076-0.041-0.141-0.076-0.221-0.058-0.131-0.060-0.129-0.167-0.386-0.054-0.13 0.015-0.253 0.039-0.449 0.025-0.227-0.083-0.525-0.083-0.525 0.343-0.221 0.306-0.552 0.16-0.602-0.359-0.102-0.905-0.776-1.611-0.827-0.54-0.039-1.246-0.038-1.567 0.367-0.236 0.297-0.742 0.753-0.834 1.239-0.102 0.532 0.026 1.091 0.386 1.344-0.12-0.439-0.127-0.685-0.117-0.94 0.011-0.27 0.141-1.328 1.149-1.788 0.558-0.146 1.277-0.134 1.508 0.246-0.423-0.127-0.885-0.076-1.258 0.076s-0.796 0.532-0.677 1.164c-0.291 0.009-0.341-0.292-0.343-0.295-0.082 0.211-0.2 0.887 0.324 1.235 0.121 0.081 0.284-0.001 0.23-0.088-0.215-0.345-0.047-0.625 0.028-0.653 0.189-0.071 0.37-0.254 0.398-0.491 0.155 0.291 0.077 0.494-0.103 0.671 0.552-0.127 0.27-0.362 0.989-0.464-0.445 0.253-0.293 0.586-0.765 0.736 0.816 0.291 0.681-0.986 1.561-0.887-0.765 0.077-0.681 2.032-2.405 2.378-0.24 1.058-0.659 1.13-1.275 1.391 1.253 0.362 1.772 1.965 3.107 1.729-0.137 0.236-0.325 0.236-0.497 0.236-0.015 0.338 0.030 0.612 0.287 0.599 1.169-0.253 1.45-1.505 2.547-1.695-0.043-0.134-0.367-0.109-0.557-0.26z"></path>
<path fill="#ffffff" d="M5.42 21.478c0.394-0.14 0.846-0.165 1.122-0.109-1.065 3.63 0.043 6.61 0.816 7.914-0.52 0.161-1.059 0.084-1.164 0.036-1.020-2.001-1.731-4.972-0.774-7.841z"></path>
<path fill="#ffffff" d="M3.385 25.133c0.017 0.371 0.085 0.869 0.136 1.097 1.352-0.244 3.060-0.422 6.014-0.478 0.029-0.297-0.055-0.959-0.104-1.124-1.81-0.16-4.963 0.098-6.046 0.505z"></path>
<path fill="#ffffff" d="M28.244 28.215c-0.25 0.338-0.721 0.884-1.046 1.202-0.419-0.103-0.713-0.344-0.713-0.624 0-0.374 0.519-0.675 1.16-0.675 0.22 0 0.425 0.035 0.599 0.097z"></path>
<path fill="#ffffff" d="M24.031 23.652c-0.007 0.157-0.329 0.271-0.719 0.254-0.389-0.016-0.699-0.158-0.692-0.315s0.328-0.27 0.718-0.254c0.389 0.016 0.699 0.157 0.693 0.315z"></path>
<path fill="#ffffff" d="M22.885 23.243c-0.048-0.117-0.434-0.070-0.86 0.103-0.424 0.174-0.731 0.409-0.682 0.524 0.048 0.117 0.434 0.071 0.86-0.104 0.424-0.173 0.731-0.408 0.682-0.524z"></path>
<path fill="#ffffff" d="M22.684 24.982c-0.094 0.143-0.103 0.303 0.063 0.498-0.114 0.058-0.268 0.093-0.437 0.093-0.356 0-0.647-0.157-0.647-0.35s0.29-0.349 0.647-0.349c0.066 0.050 0.15 0.117 0.373 0.109z"></path>
</svg>
</svg>
