<?xml version="1.0" encoding="utf-8"?>
<!-- Generator: Adobe Illustrator 16.0.0, SVG Export Plug-In . SVG Version: 6.00 Build 0)  -->
<!DOCTYPE svg PUBLIC "-//W3C//DTD SVG 1.1//EN" "http://www.w3.org/Graphics/SVG/1.1/DTD/svg11.dtd">
<svg version="1.1" id="Layer_1" xmlns="http://www.w3.org/2000/svg" xmlns:xlink="http://www.w3.org/1999/xlink" x="0px" y="0px"
	 width="132px" height="25px" viewBox="0 0 132 25" enable-background="new 0 0 132 25" xml:space="preserve">
<g>
	<g>
		<defs>
			<rect id="SVGID_1_" width="132" height="25"/>
		</defs>
		<clipPath id="SVGID_2_">
			<use xlink:href="#SVGID_1_"  overflow="visible"/>
		</clipPath>
		<g clip-path="url(#SVGID_2_)">
			<g>
				<defs>
					<rect id="SVGID_3_" width="132" height="25"/>
				</defs>
				<defs>
					<rect id="SVGID_4_" width="132" height="25"/>
				</defs>
				<defs>
					<rect id="SVGID_5_" width="132" height="25"/>
				</defs>
				<defs>
					<rect id="SVGID_6_" width="132" height="25"/>
				</defs>
				<defs>
					<rect id="SVGID_7_" width="132" height="25"/>
				</defs>
				<defs>
					<rect id="SVGID_8_" width="132" height="25"/>
				</defs>
				<defs>
					<rect id="SVGID_9_" width="132" height="25"/>
				</defs>
				<defs>
					<rect id="SVGID_10_" width="132" height="25"/>
				</defs>
				<defs>
					<rect id="SVGID_11_" width="132" height="25"/>
				</defs>
				<clipPath id="SVGID_12_">
					<use xlink:href="#SVGID_3_"  overflow="visible"/>
				</clipPath>
				<clipPath id="SVGID_13_" clip-path="url(#SVGID_12_)">
					<use xlink:href="#SVGID_4_"  overflow="visible"/>
				</clipPath>
				<clipPath id="SVGID_14_" clip-path="url(#SVGID_13_)">
					<use xlink:href="#SVGID_5_"  overflow="visible"/>
				</clipPath>
				<clipPath id="SVGID_15_" clip-path="url(#SVGID_14_)">
					<use xlink:href="#SVGID_6_"  overflow="visible"/>
				</clipPath>
				<clipPath id="SVGID_16_" clip-path="url(#SVGID_15_)">
					<use xlink:href="#SVGID_7_"  overflow="visible"/>
				</clipPath>
				<clipPath id="SVGID_17_" clip-path="url(#SVGID_16_)">
					<use xlink:href="#SVGID_8_"  overflow="visible"/>
				</clipPath>
				<clipPath id="SVGID_18_" clip-path="url(#SVGID_17_)">
					<use xlink:href="#SVGID_9_"  overflow="visible"/>
				</clipPath>
				<clipPath id="SVGID_19_" clip-path="url(#SVGID_18_)">
					<use xlink:href="#SVGID_10_"  overflow="visible"/>
				</clipPath>
				<clipPath id="SVGID_20_" clip-path="url(#SVGID_19_)">
					<use xlink:href="#SVGID_11_"  overflow="visible"/>
				</clipPath>
				<path clip-path="url(#SVGID_20_)" fill="none" d="M119.326,24.135H13.823C3.474,23.855,0.887,17.967,0.887,12.921
					c0-4.767,2.875-12.056,13.224-12.056h105.215c10.063,0,11.787,9.813,11.787,12.056S129.676,24.135,119.326,24.135"/>
				<path clip-path="url(#SVGID_20_)" fill="none" d="M119.326,24.135H13.823C3.474,23.855,0.887,17.967,0.887,12.921
					c0-4.767,2.875-12.056,13.224-12.056h105.215c10.063,0,11.787,9.813,11.787,12.056S129.676,24.135,119.326,24.135"/>
				<path clip-path="url(#SVGID_20_)" fill="#FFFFFF" d="M117.057,12.893c0-1.532,1.273-2.775,2.844-2.775
					c1.574,0,2.848,1.243,2.848,2.775c0,1.533-1.273,2.775-2.848,2.775C118.33,15.668,117.057,14.426,117.057,12.893
					 M106.785,19.063h6.072l4.205-9.008h-6.072L106.785,19.063z"/>
				<path clip-path="url(#SVGID_20_)" fill="#FFFFFF" d="M70.009,10.037l-4.168,9.023h6.036l2.373-5.117
					c1.077-2.242,4.311-1.962,3.449,0l-2.443,5.117h5.533l3.449-7.359c0.648-1.472-0.934-1.664-2.156-1.664h-6.325
					c0,0-0.454,0.02-0.782,0.101c-0.604,0.166-1.104,0.426-1.277,0.652c-0.356-0.414-0.709-0.753-1.293-0.753H70.009z"/>
				<path clip-path="url(#SVGID_20_)" fill="#FFFFFF" d="M42.733,16.932c0.689-1.427,3.185-6.895,3.185-6.895h-6.037l-2.373,5.115
					c-1.078,2.244-4.312,1.964-3.449,0l2.443-5.115H30.97l-3.45,7.359c-0.646,1.473,0.935,1.664,2.156,1.664h9.001
					C41.664,19.063,42.043,18.359,42.733,16.932"/>
				<path clip-path="url(#SVGID_20_)" fill="#FFFFFF" d="M92.98,10.02h10.205c1.438,0.069,1.66,0.88,1.301,1.65l-1.731,3.746h-8.479
					l-1.008,2.104h8.48l-0.719,1.543H88.748c-1.09-0.017-1.957-0.463-1.291-1.963c0.337-0.759,2.721-5.889,2.721-5.889
					C90.564,10.354,91.572,10.113,92.98,10.02 M98.441,12.893c0.287-0.7-0.574-0.771-1.148-0.771c-0.359,0-1.441-0.112-1.869,0.841
					l-0.574,1.191h2.945C97.795,14.154,98.154,13.594,98.441,12.893"/>
				<path clip-path="url(#SVGID_20_)" fill="#FFFFFF" d="M12.871,9.23c0,0,0.439-0.397,0.791-0.658
					c0.48-0.355,1.562-1.27,2.415-1.287c0.702-0.015,2.867,0,2.867,0l-5.479,11.775h6.575l5.48-11.775h96.302l0.646-1.402H14.83
					c-1.429,0-2.515,0.912-3.019,1.402L9.177,9.571l0.011-0.007c-0.494,0.498-0.798,1.178-0.798,1.927
					c0,1.532,1.275,2.774,2.846,2.774c1.572,0,2.846-1.242,2.846-2.774c0-0.923-0.462-1.741-1.172-2.246"/>
				<path clip-path="url(#SVGID_20_)" fill="#FFFFFF" d="M52.201,10.054h6.073l-4.205,9.008h-6.072L52.201,10.054z M61.12,15.668
					c1.572,0,2.846-1.242,2.846-2.775c0-1.532-1.274-2.775-2.846-2.775c-1.572,0-2.846,1.243-2.846,2.775
					C58.274,14.426,59.548,15.668,61.12,15.668"/>
				<path clip-path="url(#SVGID_20_)" fill="#FFFFFF" d="M129.07,4.561C126.588,1.577,122.721,0,117.891,0h-4.938H90.486H14.111
					C9.278,0,5.412,1.577,2.93,4.561C1.068,6.798,0,9.845,0,12.921C0,16.439,1.345,24.663,13.799,25h99.152l0,0h5.25
					C130.656,24.663,132,16.439,132,12.921C132,9.845,130.932,6.798,129.07,4.561 M118.178,23.271h-5.227H90.486H13.823
					c-10.481-0.283-12.05-6.606-12.05-10.351C1.773,7.759,5.004,1.73,14.11,1.73h76.375h22.466h4.938
					c9.105,0,12.336,6.029,12.336,11.191C130.227,16.664,128.658,22.986,118.178,23.271"/>
			</g>
		</g>
	</g>
</g>
</svg>
