<?xml version="1.0" standalone="no"?>
<!DOCTYPE svg PUBLIC "-//W3C//DTD SVG 20010904//EN"
 "http://www.w3.org/TR/2001/REC-SVG-20010904/DTD/svg10.dtd">
<svg version="1.0" xmlns="http://www.w3.org/2000/svg"
 width="22.000000pt" height="25.000000pt" viewBox="0 0 22.000000 25.000000"
 preserveAspectRatio="xMidYMid meet">
<metadata>
Created by potrace 1.11, written by Peter Selinger 2001-2013
</metadata>
<g transform="translate(0.000000,25.000000) scale(0.100000,-0.100000)"
fill="#000000" stroke="none">
<path d="M52 218 l-52 -33 0 -57 c0 -56 1 -58 37 -78 21 -11 45 -25 54 -31 12
-9 27 -5 71 24 l55 35 -3 53 c-2 54 -11 67 -59 90 -12 6 -8 0 9 -14 18 -16 24
-27 17 -31 -16 -10 -31 2 -47 40 -8 19 -18 34 -22 34 -4 0 -31 -15 -60 -32z
m23 -19 c-13 -24 -20 -29 -38 -23 -20 5 -20 5 -6 -7 16 -13 15 -16 -2 -44
l-19 -30 0 42 c0 38 4 45 37 68 21 14 39 25 41 25 1 0 -5 -14 -13 -31z m36
-35 c11 -14 10 -15 -11 -12 -13 1 -25 9 -28 16 -5 17 23 15 39 -4z m55 -26 c5
-8 2 -9 -11 -4 -15 5 -16 4 -5 -9 7 -8 17 -12 23 -8 5 3 7 1 4 -4 -4 -6 0 -16
9 -24 13 -11 9 -16 -31 -41 l-46 -28 -44 26 c-25 14 -45 28 -45 31 0 12 67 58
88 60 13 1 27 4 30 7 9 9 20 7 28 -6z"/>
</g>
</svg>
